<?xml version="1.0" encoding="utf-8"?>
<!-- Generator: Adobe Illustrator 16.0.4, SVG Export Plug-In . SVG Version: 6.00 Build 0)  -->
<!DOCTYPE svg PUBLIC "-//W3C//DTD SVG 1.1//EN" "http://www.w3.org/Graphics/SVG/1.1/DTD/svg11.dtd">
<svg version="1.1" id="Laag_1" xmlns="http://www.w3.org/2000/svg" xmlns:xlink="http://www.w3.org/1999/xlink" x="0px" y="0px"
	 width="100px" height="100px" viewBox="0 0 100 100" enable-background="new 0 0 100 100" xml:space="preserve">
<path fill="#1E9CC8" d="M63.31,38.455c0,7.324-5.9,13.228-13.202,13.228l0,0c-7.308,0-13.225-5.903-13.225-13.228v-5.313
	c0-7.3,5.917-13.229,13.225-13.229l0,0c7.301,0,13.202,5.929,13.202,13.229V38.455z"/>
<path fill="#1E9CC8" d="M57.814,55.96c-2.339,1.095-4.947,1.708-7.702,1.708c-2.757,0-5.368-0.613-7.708-1.707
	c-7.545,2.633-13.313,9.021-15.106,16.917c6.224,4.529,13.881,7.208,22.167,7.208c8.768,0,16.831-3,23.236-8.017
	C70.713,64.548,65.092,58.502,57.814,55.96z"/>
</svg>
