<?xml version="1.0" encoding="utf-8"?>
<!-- Generator: Adobe Illustrator 16.0.4, SVG Export Plug-In . SVG Version: 6.00 Build 0)  -->
<!DOCTYPE svg PUBLIC "-//W3C//DTD SVG 1.1//EN" "http://www.w3.org/Graphics/SVG/1.1/DTD/svg11.dtd">
<svg version="1.1" xmlns="http://www.w3.org/2000/svg" xmlns:xlink="http://www.w3.org/1999/xlink" x="0px" y="0px" width="90px"
	 height="90px" viewBox="0 0 90 90" enable-background="new 0 0 90 90" xml:space="preserve">
<g id="BG">
</g>
<g id="SCENE_1_a">
	<path fill="#009FCC" d="M46.424,49.815c7.049-0.807,12.543-6.81,12.543-14.071c0-7.812-6.356-14.167-14.167-14.167
		c-7.812,0-14.168,6.354-14.168,14.167c0,7.263,5.494,13.265,12.543,14.071v6.74h-8.394v3.25h8.394V68.2h3.249v-8.395h8.394v-3.25
		h-8.394V49.815z M33.881,35.744c0-6.02,4.897-10.918,10.918-10.918c6.02,0,10.918,4.898,10.918,10.918
		c0,6.021-4.898,10.918-10.918,10.918C38.779,46.662,33.881,41.766,33.881,35.744z"/>
</g>
<g id="SCENE_1_b" display="none">
</g>
<g id="SCENE_2_-_m" display="none">
</g>
<g id="SCENE_2_-_v" display="none">
</g>
<g id="SCENE_3_-_m" display="none">
</g>
<g id="SCENE_4_-_m__x3D__BEARD" display="none">
</g>
<g id="SCENE_5_-_m__x3D__FACE" display="none">
</g>
<g id="SCENE_5_-_m__x3D__FACE_kopie" display="none">
</g>
<g id="UI_only_forth" display="none">
</g>
<g id="UI">
</g>
</svg>
