<?xml version="1.0" encoding="utf-8"?>
<!-- Generator: Adobe Illustrator 16.0.4, SVG Export Plug-In . SVG Version: 6.00 Build 0)  -->
<!DOCTYPE svg PUBLIC "-//W3C//DTD SVG 1.1//EN" "http://www.w3.org/Graphics/SVG/1.1/DTD/svg11.dtd">
<svg version="1.1" xmlns="http://www.w3.org/2000/svg" xmlns:xlink="http://www.w3.org/1999/xlink" x="0px" y="0px" width="90px"
	 height="90px" viewBox="0 0 90 90" enable-background="new 0 0 90 90" xml:space="preserve">
<g id="BG">
</g>
<g id="SCENE_1_a">
	<path fill="#009FCC" d="M52.856,24.469v3.313h6.324L47.648,39.314c-2.546-2.024-5.675-3.127-8.977-3.127
		c-3.86,0-7.488,1.502-10.216,4.23c-2.729,2.73-4.232,6.359-4.232,10.219s1.503,7.488,4.232,10.216
		c2.728,2.729,6.357,4.231,10.215,4.231c3.859,0,7.488-1.502,10.218-4.231c2.728-2.728,4.231-6.356,4.231-10.216
		c0-3.303-1.103-6.433-3.129-8.979l12.072-12.074v6.599h3.314V24.469H52.856z M46.545,58.511c-2.104,2.103-4.9,3.261-7.875,3.261
		s-5.77-1.158-7.873-3.261c-2.103-2.104-3.262-4.9-3.262-7.874c0-2.975,1.159-5.772,3.262-7.875
		c2.104-2.104,4.898-3.262,7.874-3.262c2.974,0,5.771,1.158,7.874,3.262c2.104,2.103,3.261,4.898,3.261,7.872
		C49.806,53.61,48.649,56.407,46.545,58.511z"/>
</g>
<g id="SCENE_1_b" display="none">
</g>
<g id="SCENE_2_-_m" display="none">
</g>
<g id="SCENE_2_-_v" display="none">
</g>
<g id="SCENE_3_-_m" display="none">
</g>
<g id="SCENE_4_-_m__x3D__BEARD" display="none">
</g>
<g id="SCENE_5_-_m__x3D__FACE" display="none">
</g>
<g id="SCENE_5_-_m__x3D__FACE_kopie" display="none">
</g>
<g id="UI_only_forth" display="none">
</g>
<g id="UI">
</g>
</svg>
