<?xml version="1.0" encoding="utf-8"?>
<!-- Generator: Adobe Illustrator 16.0.4, SVG Export Plug-In . SVG Version: 6.00 Build 0)  -->
<!DOCTYPE svg PUBLIC "-//W3C//DTD SVG 1.1//EN" "http://www.w3.org/Graphics/SVG/1.1/DTD/svg11.dtd">
<svg version="1.1" id="Laag_1" xmlns="http://www.w3.org/2000/svg" xmlns:xlink="http://www.w3.org/1999/xlink" x="0px" y="0px"
	 width="290px" height="290px" viewBox="-76 0 290 290" enable-background="new -76 0 290 290" xml:space="preserve">
<g id="BG">
</g>
<g id="UI">
</g>
<g id="SCENE_1">
	<g>
		<path fill="#1D9BC6" d="M86.9,80.344c-0.578,0-35.318,0-35.88,0c-33.577,0-33.966,26.63-33.966,26.898l1.687,57.425
			c0.107,3.648,3.098,6.532,6.723,6.532c0.067,0,0.135-0.002,0.202-0.003c3.714-0.109,6.637-3.209,6.527-6.926l-1.567-53.309
			c0.045,0.18,0.077,0.285,0.077,0.285s-0.315-6.506,6.198-6.506c3.878,0,4.241,6.506,4.241,6.506s0.04-0.072,0.104-0.188
			c0.355,17.874,1.587,41.464,1.587,54.305c0,14.988,0.809,31.334,0.809,46.654c0,15.319,0,39.197,0,39.197h0.07
			c0,5.502,6.145,9.962,11.645,9.962c5.502,0,9.963-4.46,9.963-9.962c0-0.05-0.007-0.097-0.008-0.146v-68.458
			c0,0-0.532-3.07,3.581-3.468c4.113,0.396,3.582,3.468,3.582,3.468v68.604h0.002c0.016,5.489,6.153,9.937,11.646,9.937
			s9.944-4.446,9.96-9.937h0.061c0,0,0-23.878,0-39.197c0-15.32,0.811-31.666,0.811-46.654c0-12.71,1.207-35.948,1.574-53.753
			c0.066,0.121,0.109,0.197,0.109,0.197s0.375-6.692,4.362-6.692c4.956,0,6.065,3.66,6.31,5.565l-1.578,53.589
			c-0.107,3.717,2.814,6.815,6.528,6.926c0.067,0.001,0.136,0.003,0.202,0.003c3.624,0,6.615-2.886,6.723-6.532l1.684-57.228
			l0.003-0.198C120.868,106.973,120.48,80.344,86.9,80.344z"/>
		<circle fill="#1D9BC6" cx="69.803" cy="42.072" r="26.062"/>
	</g>
</g>
<g id="SCENE_1_kopie" display="none">
</g>
<g id="SCENE_2_-_m" display="none">
</g>
<g id="SCENE_2_-_v" display="none">
</g>
<g id="SCENE_3" display="none">
</g>
<g id="SCENE_3_kopie" display="none">
</g>
</svg>
