<?xml version="1.0" encoding="utf-8"?>
<!-- Generator: Adobe Illustrator 16.0.4, SVG Export Plug-In . SVG Version: 6.00 Build 0)  -->
<!DOCTYPE svg PUBLIC "-//W3C//DTD SVG 1.1//EN" "http://www.w3.org/Graphics/SVG/1.1/DTD/svg11.dtd">
<svg version="1.1" id="Laag_1" xmlns="http://www.w3.org/2000/svg" xmlns:xlink="http://www.w3.org/1999/xlink" x="0px" y="0px"
	 width="290px" height="290px" viewBox="-76 0 290 290" enable-background="new -76 0 290 290" xml:space="preserve">
<g id="BG">
</g>
<g id="UI">
</g>
<g id="SCENE_1">
	<g>
		<path fill="#1D9BC6" d="M114.403,106.404l-0.021-0.185c-0.028-0.236-0.853-20.794-31.084-22.725
			c-0.116-0.049-0.196-0.099-0.196-0.151l-3.854,0.004c-0.207-0.002-0.399-0.013-0.61-0.013l0.006,0.014l-17.685,0.013l0.013-0.025
			c-0.438,0-0.849,0.02-1.276,0.026l-2.48,0.002c0,0-0.498,0.059-1.244,0.153c-29.9,2.062-30.715,22.467-30.745,22.703l-0.019,0.185
			L20.183,159.7c-0.318,3.396,2.125,6.42,5.492,6.84c0.062,0.008,0.123,0.014,0.188,0.021c3.463,0.332,6.533-2.205,6.859-5.666
			l4.705-49.907c0.443-1.74,0.83-5.067,5.434-4.493c2.848,0.356,3.354,4.013,3.436,5.688c-4.912,35.475-14.074,90.673-14.074,90.673
			c0.727,0.129,7.98,0.217,17.712,0.264c0.185,7.695,0.432,15.529,0.432,23.06c0,11.793,0,30.178,0,30.178h0.056
			c0,4.235,4.729,7.67,8.965,7.67c4.234,0,7.67-3.435,7.67-7.67c0-0.037-0.006-0.074-0.008-0.111v-52.709
			c0,0-0.025-0.147-0.014-0.375c1.846,0,3.698,0,5.543-0.002c0.01,0.229-0.016,0.377-0.016,0.377v52.82h0.004
			c0.012,4.227,4.735,7.649,8.965,7.649c4.229,0,7.656-3.424,7.668-7.649h0.047c0,0,0-18.385,0-30.178
			c0-7.533,0.249-15.373,0.432-23.07c9.598-0.053,16.733-0.146,17.467-0.279c0,0-8.971-54.387-13.877-89.875l0.033,0.066
			c0,0-0.254-6.062,3.451-6.525c4.604-0.575,4.99,2.753,5.434,4.493l4.705,49.907c0.325,3.461,3.396,5.998,6.859,5.666
			c0.062-0.006,0.125-0.013,0.188-0.021c3.365-0.42,5.812-3.442,5.49-6.84L114.403,106.404z"/>
		<circle fill="#1D9BC6" cx="70.577" cy="44.922" r="26.062"/>
	</g>
</g>
<g id="SCENE_1_kopie" display="none">
</g>
<g id="SCENE_2_-_m" display="none">
</g>
<g id="SCENE_2_-_v" display="none">
</g>
<g id="SCENE_3" display="none">
</g>
<g id="SCENE_3_kopie" display="none">
</g>
</svg>
