<?xml version="1.0" encoding="utf-8"?>
<!-- Generator: Adobe Illustrator 16.0.4, SVG Export Plug-In . SVG Version: 6.00 Build 0)  -->
<!DOCTYPE svg PUBLIC "-//W3C//DTD SVG 1.1//EN" "http://www.w3.org/Graphics/SVG/1.1/DTD/svg11.dtd">
<svg version="1.1" xmlns="http://www.w3.org/2000/svg" xmlns:xlink="http://www.w3.org/1999/xlink" x="0px" y="0px" width="50px"
	 height="50px" viewBox="0 0 50 50" enable-background="new 0 0 50 50" xml:space="preserve">
<g id="Laag_1">
</g>
<g id="Laag_2">
	<path fill="none" stroke="#000000" stroke-miterlimit="10" d="M38.544,22.829c0.297-2.01,0.995-3.596,0.666-7.554
		c-0.215-2.62-2.333-8.372-9.42-10.098c-1.386-0.493-2.879-0.764-4.435-0.764s-3.049,0.271-4.436,0.764
		c-7.086,1.726-9.204,7.478-9.42,10.098c-0.331,3.973,0.375,5.558,0.669,7.577c-1.341,0.358-2.249,1.657-2.073,3.075l0.354,2.844
		c0.181,1.456,1.44,2.514,2.877,2.475c0.174,1.458,0.328,2.709,0.434,3.571c0.422,3.437,1.601,4.145,4.331,5.963
		c2.728,1.82,4.549,2.831,7.264,2.831s4.535-1.011,7.263-2.831c2.729-1.818,3.908-2.526,4.329-5.963
		c0.107-0.863,0.263-2.117,0.437-3.577c1.474,0.088,2.782-0.981,2.968-2.469l0.354-2.844C40.885,24.478,39.936,23.15,38.544,22.829z
		"/>
	<circle fill="#020303" cx="21.972" cy="25.449" r="0.901"/>
	<circle fill="#020303" cx="29.059" cy="25.449" r="0.901"/>
	<g>
		<path fill="#1E1E1C" d="M25.451,34.562h-0.188c-1.633,0-2.414-0.695-2.448-0.725c-0.129-0.12-0.137-0.319-0.02-0.449
			c0.119-0.131,0.32-0.14,0.451-0.022c0.004,0.004,0.649,0.562,2.018,0.562h0.188c1.366,0,2.011-0.555,2.018-0.562
			c0.129-0.117,0.331-0.108,0.449,0.022c0.119,0.13,0.109,0.329-0.021,0.449C27.864,33.867,27.083,34.562,25.451,34.562z"/>
	</g>
</g>
</svg>
