<?xml version="1.0" encoding="utf-8"?>
<!-- Generator: Adobe Illustrator 16.0.4, SVG Export Plug-In . SVG Version: 6.00 Build 0)  -->
<!DOCTYPE svg PUBLIC "-//W3C//DTD SVG 1.1//EN" "http://www.w3.org/Graphics/SVG/1.1/DTD/svg11.dtd">
<svg version="1.1" xmlns="http://www.w3.org/2000/svg" xmlns:xlink="http://www.w3.org/1999/xlink" x="0px" y="0px" width="50px"
	 height="50px" viewBox="0 0 50 50" enable-background="new 0 0 50 50" xml:space="preserve">
<g id="Laag_1">
</g>
<g id="Laag_2">
	<g>
		<path fill="none" stroke="#020303" stroke-miterlimit="10" d="M22.745,29.141c3.516,0,9.486-1.203,9.486-5.486
			c0-1.966-3.91-10.984-5.704-10.984c-1.793,0-2.417,1.443-3.782,1.443h-0.107c-0.864,0-1.989-1.443-3.782-1.443
			c-1.793,0-5.704,9.677-5.704,10.984c0,4.283,5.97,5.486,9.486,5.486H22.745z"/>
		<path fill="none" stroke="#020303" stroke-width="0.5" stroke-miterlimit="10" d="M13.961,20.65c0,0,2.467,3.392,8.733,3.392
			c6.265,0,8.817-3.089,8.817-3.089"/>
		<path fill="none" stroke="#020303" stroke-miterlimit="10" d="M30.661,18.765c0.904,2.078,1.57,4.081,1.57,4.89
			c0,4.283-5.97,5.486-9.486,5.486h-0.107c-3.516,0-9.486-1.203-9.486-5.486c0-0.564,0.731-2.691,1.705-4.925
			c-5.197,1.37-8.731,4.059-8.731,7.153c0,4.483,7.416,8.119,16.566,8.119c9.149,0,16.565-3.636,16.565-8.119
			C39.257,22.815,35.784,20.146,30.661,18.765z"/>
	</g>
	<g>
		<path fill="#020303" d="M28.396,35.82l-4,1.467c-0.609,0.223-0.925,0.903-0.701,1.513l0.747,2.022
			c0.225,0.609,0.907,0.926,1.517,0.702l4.005-1.466C28.64,39.093,28.02,37.414,28.396,35.82z"/>
		<path fill="#020303" d="M41.072,34.735l-0.747-2.027c-0.225-0.609-0.907-0.925-1.516-0.702l-3.998,1.465
			c1.317,0.975,1.927,2.655,1.54,4.249l4.02-1.472C40.981,36.025,41.297,35.345,41.072,34.735z"/>
	</g>
	<polyline fill="none" stroke="#020303" stroke-miterlimit="10" points="32.05,38.106 32.284,36.758 34.599,37.673 	"/>
	<path fill="none" stroke="#020303" stroke-miterlimit="10" d="M28.664,35.044c0.946-2.049,3.375-2.946,5.428-2.001
		c2.05,0.947,2.948,3.377,2,5.429c-0.946,2.051-3.376,2.948-5.428,2.001C28.613,39.525,27.717,37.096,28.664,35.044z"/>
</g>
</svg>
