<?xml version="1.0" encoding="utf-8"?>
<!-- Generator: Adobe Illustrator 16.0.4, SVG Export Plug-In . SVG Version: 6.00 Build 0)  -->
<!DOCTYPE svg PUBLIC "-//W3C//DTD SVG 1.1//EN" "http://www.w3.org/Graphics/SVG/1.1/DTD/svg11.dtd">
<svg version="1.1" xmlns="http://www.w3.org/2000/svg" xmlns:xlink="http://www.w3.org/1999/xlink" x="0px" y="0px" width="50px"
	 height="50px" viewBox="0 0 50 50" enable-background="new 0 0 50 50" xml:space="preserve">
<g id="Laag_1">
</g>
<g id="Laag_2">
	<circle fill="#020303" cx="26.15" cy="29.1" r="1.067"/>
	<circle fill="#020303" cx="26.15" cy="34.644" r="1.067"/>
	<path fill="none" stroke="#020303" stroke-miterlimit="10" d="M34.762,15.524h3.193c1.297,0,2.511,1.051,2.695,2.336l2.61,18.161
		c0.185,1.285-0.727,2.336-2.025,2.336H8.874c-1.298,0-2.209-1.051-2.024-2.336l2.61-18.161c0.185-1.285,1.398-2.336,2.696-2.336
		h2.943"/>
	<g>
		<path fill="none" stroke="#020303" stroke-miterlimit="10" d="M15.099,19.368c0,0,2.168-6.777,10.804-6.777
			c7.534,0,9.109,6.689,9.109,6.689"/>
		<path fill="none" stroke="#020303" stroke-miterlimit="10" d="M25.057,24.976c0,0,6.898-3.924,9.956-8.241v12.94L25.057,24.976z"
			/>
		<path fill="none" stroke="#020303" stroke-miterlimit="10" d="M25.902,9.399c-8.635,0-10.803,5.914-10.803,5.914v1.421
			c3.057,4.317,9.955,8.241,9.956,8.241s0,0,0.001,0c0,0,6.898-3.924,9.956-8.241v-1.52C35.012,15.215,33.436,9.399,25.902,9.399z"
			/>
		<path fill="none" stroke="#020303" stroke-miterlimit="10" d="M25.055,24.976c0,0-6.898-3.924-9.956-8.241v12.94L25.055,24.976z"
			/>
	</g>
	<line fill="#FFFFFF" stroke="#020303" stroke-miterlimit="10" x1="23.448" y1="26.135" x2="23.448" y2="38.357"/>
</g>
</svg>
