<?xml version="1.0" encoding="utf-8"?>
<!-- Generator: Adobe Illustrator 16.0.4, SVG Export Plug-In . SVG Version: 6.00 Build 0)  -->
<!DOCTYPE svg PUBLIC "-//W3C//DTD SVG 1.1//EN" "http://www.w3.org/Graphics/SVG/1.1/DTD/svg11.dtd">
<svg version="1.1" xmlns="http://www.w3.org/2000/svg" xmlns:xlink="http://www.w3.org/1999/xlink" x="0px" y="0px" width="50px"
	 height="50px" viewBox="0 0 50 50" enable-background="new 0 0 50 50" xml:space="preserve">
<g id="Laag_1">
</g>
<g id="Laag_2">
	<path fill="none" stroke="#020303" stroke-miterlimit="10" d="M35.456,22.9c-4.162,0-6.278-3.998-7.995-4.196
		c-1.716-0.198-11.821,4.715-14.795,4.933c-2.973,0.219-8.228,2.609-8.228,6.963c0,4.354,0.99,4.476,2.576,4.476
		c1.585,0,36.962,0,36.962,0s1.585-1.649,1.585-5.543c0-3.893-0.819-8.405-2.075-8.444C40.385,20.989,41.771,22.9,35.456,22.9z"/>
	<line fill="none" stroke="#020303" stroke-width="0.5" stroke-miterlimit="10" x1="23.855" y1="18.697" x2="26.849" y2="23.817"/>
	<line fill="none" stroke="#020303" stroke-width="0.5" stroke-miterlimit="10" x1="20.863" y1="19.654" x2="23.855" y2="24.774"/>
	<line fill="none" stroke="#020303" stroke-width="0.5" stroke-miterlimit="10" x1="17.87" y1="20.858" x2="20.863" y2="25.979"/>
	<line fill="none" stroke="#020303" stroke-width="0.5" stroke-miterlimit="10" x1="15.231" y1="22.214" x2="18.224" y2="27.334"/>
</g>
</svg>
