<?xml version="1.0" encoding="utf-8"?>
<!-- Generator: Adobe Illustrator 16.0.4, SVG Export Plug-In . SVG Version: 6.00 Build 0)  -->
<!DOCTYPE svg PUBLIC "-//W3C//DTD SVG 1.1//EN" "http://www.w3.org/Graphics/SVG/1.1/DTD/svg11.dtd">
<svg version="1.1" xmlns="http://www.w3.org/2000/svg" xmlns:xlink="http://www.w3.org/1999/xlink" x="0px" y="0px" width="50px"
	 height="50px" viewBox="0 0 50 50" enable-background="new 0 0 50 50" xml:space="preserve">
<g id="Laag_1">
</g>
<g id="Laag_2">
	<path fill="none" stroke="#020303" stroke-miterlimit="10" d="M18.177,32.09l4.04-4.16"/>
	<circle fill="none" stroke="#020303" stroke-miterlimit="10" cx="14.392" cy="41.68" r="2.085"/>
	<path fill="none" stroke="#020303" stroke-miterlimit="10" d="M19.258,31.404c0,0-1.223,0.416-1.223,1.039
		c0,0.624,0.003,6.753,0.003,8.692l-0.002,0.59c0,1.979-1.603,3.58-3.58,3.58c-1.977,0-3.579-1.602-3.579-3.58
		c0-1.978,1.602-3.578,3.579-3.578c0.722,0,1.265,0.214,1.828,0.582l-0.015-0.671c0,0,0.03-4.216,0.03-5.151
		c0-0.938-0.067-3.479,0-4.014c0.065-0.536,1.119-17,1.186-17.402c0.068-0.402,0.451-2.973,1.772-2.973l0,0
		c1.32,0,1.704,2.57,1.771,2.973s1.12,16.866,1.188,17.402c0.066,0.535,0,3.076,0,4.014c0,0.936,0.029,5.151,0.029,5.151
		l-0.014,0.671c0.562-0.368,1.104-0.582,1.827-0.582c1.978,0,3.579,1.601,3.579,3.578c0,1.979-1.601,3.58-3.579,3.58
		c-1.977,0-3.58-1.602-3.58-3.58l-0.001-0.59c0-1.939,0.002-8.068,0.002-8.692C20.479,31.82,19.258,31.404,19.258,31.404
		L19.258,31.404z"/>
	<circle fill="none" stroke="#020303" stroke-miterlimit="10" cx="24.123" cy="41.68" r="2.086"/>
	<circle fill="#020303" cx="19.258" cy="27.386" r="1.067"/>
	<path fill="none" stroke="#020303" stroke-miterlimit="10" d="M37.365,43.825V11.88c0,0,0.269-2.965-2.562-2.965
		c-2.831,0-6.648,0-6.648,0v20.418h5.854v14.492c0,0,0.286,1.438,1.725,1.438S37.365,43.825,37.365,43.825z"/>
	<line fill="none" stroke="#020303" stroke-width="0.5" stroke-miterlimit="10" x1="28.156" y1="12.041" x2="33.383" y2="12.041"/>
	<line fill="none" stroke="#020303" stroke-width="0.5" stroke-miterlimit="10" x1="28.156" y1="14.104" x2="33.383" y2="14.104"/>
	<line fill="none" stroke="#020303" stroke-width="0.5" stroke-miterlimit="10" x1="28.156" y1="16.167" x2="33.383" y2="16.167"/>
	<line fill="none" stroke="#020303" stroke-width="0.5" stroke-miterlimit="10" x1="28.156" y1="18.231" x2="33.383" y2="18.231"/>
	<line fill="none" stroke="#020303" stroke-width="0.5" stroke-miterlimit="10" x1="28.156" y1="20.294" x2="33.383" y2="20.294"/>
	<line fill="none" stroke="#020303" stroke-width="0.5" stroke-miterlimit="10" x1="28.156" y1="22.357" x2="33.383" y2="22.357"/>
	<line fill="none" stroke="#020303" stroke-width="0.5" stroke-miterlimit="10" x1="28.156" y1="24.421" x2="33.383" y2="24.421"/>
	<line fill="none" stroke="#020303" stroke-width="0.5" stroke-miterlimit="10" x1="28.156" y1="26.484" x2="33.383" y2="26.484"/>
</g>
</svg>
