<?xml version="1.0" encoding="utf-8"?>
<!-- Generator: Adobe Illustrator 16.0.0, SVG Export Plug-In . SVG Version: 6.00 Build 0)  -->
<!DOCTYPE svg PUBLIC "-//W3C//DTD SVG 1.1//EN" "http://www.w3.org/Graphics/SVG/1.1/DTD/svg11.dtd">
<svg version="1.1" id="Layer_1" xmlns="http://www.w3.org/2000/svg" xmlns:xlink="http://www.w3.org/1999/xlink" x="0px" y="0px"
	 width="230.039px" height="108.835px" viewBox="0 0 230.039 108.835" enable-background="new 0 0 230.039 108.835"
	 xml:space="preserve">
<path fill-rule="evenodd" clip-rule="evenodd" d="M226.851,45.125c-4.625-4.793-9.498-9.354-14.005-14.253
	c-2.447-2.66-5.022-3.691-8.685-3.675c-32.643,0.145-65.288,0.025-97.932,0.163c-3.871,0.016-6.207-1.066-8.527-4.369
	C86.77,7.43,71.429-0.601,52.525,0.035C18.198,1.189-5.685,31.509,1.179,65.267c4.22,20.754,17.104,34.918,37.431,40.963
	c20.567,6.115,39.724,1.561,53.626-14.688c7.23-8.45,14.206-11.552,24.334-10.151c0.49,0.068,1.058,0.156,1.487-0.016
	c2.468-0.985,5.432-1.485,7.25-3.19c4.794-4.494,9.086-9.522,14.588-15.421c4.821,5.451,8.748,9.892,13.328,15.071
	c4.1-4.709,7.801-8.96,12.369-14.206c4.455,5.363,8.257,9.939,12.712,15.301c4.911-5.495,8.878-9.936,13.562-15.176
	c4.441,5.125,8.344,9.627,12.795,14.763c8.157-8.319,15.31-15.53,22.361-22.839C231.097,51.457,231.048,49.476,226.851,45.125z
	 M30.316,68.332c-7.691,0.041-14.259-6.602-14.23-14.393c0.029-7.649,6.188-14.024,13.802-14.286
	c7.683-0.264,14.291,6.217,14.386,14.11C44.37,61.668,38.025,68.291,30.316,68.332z"/>
</svg>
