<?xml version="1.0" encoding="utf-8"?>
<!-- Generator: Adobe Illustrator 16.0.4, SVG Export Plug-In . SVG Version: 6.00 Build 0)  -->
<!DOCTYPE svg PUBLIC "-//W3C//DTD SVG 1.1//EN" "http://www.w3.org/Graphics/SVG/1.1/DTD/svg11.dtd">
<svg version="1.1" xmlns="http://www.w3.org/2000/svg" xmlns:xlink="http://www.w3.org/1999/xlink" x="0px" y="0px" width="220px"
	 height="250px" viewBox="0 0 220 250" enable-background="new 0 0 220 250" xml:space="preserve">
<g id="head">
	<path fill="#009FCC" d="M172.4,127.516c1.392-9.41,4.657-16.848,3.123-35.387c-1.017-12.273-10.936-39.229-44.142-47.311
		c-6.497-2.314-13.489-3.582-20.781-3.582c-7.29,0-14.283,1.268-20.781,3.582c-33.207,8.082-43.126,35.037-44.142,47.311
		c-1.541,18.617,1.76,26.039,3.14,35.506c-6.284,1.676-10.533,7.762-9.707,14.4l4.639,13.334
		c0.903,7.248,4.532,12.396,11.786,11.496c0.527-0.066,1.041-0.17,1.546-0.295c2.498,15.994,9.116,29.125,20.478,36.699
		c12.789,8.525,23.702,14.492,33.042,14.492c9.643,0,21.422-7.412,33.042-17.473c10.836-9.381,17.853-18.725,20.451-33.85
		c0.649,0.186,1.317,0.34,2.008,0.426c7.254,0.9,10.884-4.248,11.786-11.496l4.64-13.334
		C183.371,135.249,178.918,129.028,172.4,127.516z"/>
	<circle fill="#010202" cx="94.476" cy="138.371" r="4.252"/>
	<circle fill="#010202" cx="127.917" cy="138.371" r="4.252"/>
	<path fill="none" stroke="#006B88" stroke-width="3" stroke-linecap="round" stroke-miterlimit="10" d="M122.13,180.571
		c0,0-3.327,3.035-10.535,3.035h-0.883c-7.208,0-10.535-3.035-10.535-3.035"/>
</g>
<g id="snit_1" display="none">
	<path display="inline" fill="#006B88" d="M172.673,126.804c0,0,6.762-17.695,2.916-37.596c-3.844-19.9-7.436-20.293-9.625-23.139
		c-2.191-2.844-6.785,2.732-2.527,12.346C167.696,88.028,174.106,106.89,172.673,126.804z"/>
	<path display="inline" fill="#006B88" d="M46.27,126.804c-3.035-7.408-11.32-28.152-7.937-41.307s3.251-20.236,3.569-26.814
		c0.32-6.576,6.897-17.708,7.403-10.119c0.506,7.59-1.012,16.697,5.565,8.096s3.035-12.242,9.107-16.746
		c6.071-4.504,2.023-15.129,21.754-11.587c19.732,3.542,20.236,8.095,30.357,3.036c10.119-5.06,3.543-11.636,16.697-6.578
		c13.154,5.061,8.6,10.12,15.684,12.649c7.082,2.529,8.602,15.179,8.602,15.179l-3.037,4.047c0,0-25.297,32.887-49.582,41.488
		c-24.285,8.6-48.065,22.479-51.1,33.248C50.318,142.163,46.27,126.804,46.27,126.804z"/>
	<path display="inline" fill="#006B88" d="M157.073,52.612c0,0,10.09,9.75,13.445,19.311c3.355,9.559-5.842,10.939-8.006,4.051
		c-2.164-6.891-16.785-9.525-16.785-9.525L157.073,52.612z"/>
</g>
<g id="snit_2" display="none">
	<path display="inline" fill="#15B4E6" d="M187.172,139.939c0.577-6.864,5.734-8.896,4.952-17.282
		c-1.651-17.712-6.831-13.989-6.928-24.087s1.938-21.382-13.068-42.507c-6.067-8.541-14.18-14.586-22.815-18.761
		c-2.479-3.276-10.017-7.186-31.435-8.059c-1.845-0.122-3.613-0.18-5.278-0.18h-8.01c-17,0-38.953,5.207-53.96,26.332
		C35.624,76.52,38.3,88.161,38.203,98.258s-13.111,15.035-9.896,32.531c1.471,8.006,5.91,10.25,6.391,17.122
		c0.348,4.973-4.541,11.81,2.222,20.401c4.402,5.593-3.399,18.267-3.399,18.267s4.683-0.78,9.424-4.376
		c0,0,7.417,2.455,5.865,13.569c-1.586,11.357-7.453,16.425-7.453,16.425s20.334-0.247,26.592-4.77c0,0,1.489,2.423-0.328,4.922
		c0,0,3.313-1.314,10.569-8.664c-0.211-0.14-0.419-0.274-0.631-0.416c-11.361-7.574-17.979-20.705-20.478-36.699
		c-0.505,0.125-1.019,0.229-1.546,0.295c-7.254,0.9-10.883-4.248-11.786-11.496l-4.639-13.334c-0.826-6.639,3.423-12.725,9.707-14.4
		c-0.845-5.798-2.409-10.833-3.142-18.138c0.089-0.081,0.17-0.156,0.262-0.238c2.135-0.523,33.7-8.311,61.925-18.314
		c20.846-7.388,31.524-23.806,36.384-35.649c0,0,0,0,0,0c23.137,14.241,20.398,33.711,20.715,45.384
		c0.206,7.634,5.078,16.326,8.425,21.426c-0.367,1.792-0.712,3.563-0.985,5.409c6.518,1.512,10.971,7.732,10.127,14.52l-4.64,13.334
		c-0.902,7.248-4.532,12.396-11.786,11.496c-0.69-0.086-1.358-0.24-2.008-0.426c-2.599,15.125-9.615,24.469-20.451,33.85
		c-1.109,0.96-2.219,1.887-3.329,2.795c6.204,6.351,19.928,4.876,19.928,4.876l-0.138-4.673c6.1,5.608,19.731,4.906,19.731,4.906
		s-6.755-6.401-7.453-12.421c-0.791-6.823,4.065-12.779,9.06-19.828c0.638,1.163,1.722,2.918,2.808,3.679
		c-1.197-4.391,0.871-9.01,1.812-10.79c0.141-0.247,0.281-0.496,0.419-0.746c0.003-0.005,0.014-0.023,0.014-0.023l-0.004,0.004
		c1.415-2.58,2.647-5.339,3.514-8.348C192.923,149.581,186.596,146.803,187.172,139.939z"/>
</g>
<g id="snit_3" display="none">
	<path display="inline" fill="#15B4E6" d="M71.626,72.902c0,0,23.82-32.363-6.573-16.719c-2.777,1.43-5.303,3.074-7.601,4.891
		c-0.04,0.031-0.102,0.08-0.188,0.152c-0.052,0.041-0.099,0.085-0.149,0.127C55.067,63.082,45.21,72.056,39.214,88.95
		c-3.598,11.153-3.498,25.28-3.666,32.708c0.621,39.303,21.208,67.253,21.208,67.253c0.001,0.001,0.001,0.001,0.003,0.001
		c-5.082-12.637-3.766-32.771-2.893-58.346C55.277,89.251,71.626,72.902,71.626,72.902z"/>
	<path display="inline" fill="#15B4E6" d="M186.924,108.325c-1.364-17.101-9.128-39.749-29.987-51.403
		c-29.844-16.673-5.139,15.483-5.139,15.483s18.782,3.995,18.782,45.333c0,30.838-5.72,59.537-11.86,74.592
		C158.72,192.33,186.759,164.173,186.924,108.325z"/>
	<path display="inline" fill="#3ABFF0" d="M155.936,55.921c0,0-9.095-16.792-47.26-16.792c-38.671,0-61.236,26.266-64.926,46.685
		c-2.352,13.013,8.221,55.9,9.631,62.948c0,0,8.986-32.192,52.932-43.506C131.759,98.705,155.936,68.725,155.936,55.921z"/>
</g>
<g id="glasses_1" display="none">
	<path display="inline" fill="#006B88" d="M159.261,127.717c-1.029-0.503-2.012-0.925-2.92-1.258l-0.006-0.09l-6.432-1.979
		l-0.182-0.047l-0.021-0.003c-3.16-0.617-6.52-0.931-9.988-0.931c-5.449,0-10.994,0.784-16.033,2.268
		c-3.119,0.919-5.74,2.089-7.789,3.476c-1.379,0.764-2.787,1.201-4.078,1.264c-0.061,0.004-0.119,0.005-0.182,0.005l-0.127-0.001
		h-0.027h-0.033l-0.129,0.001c-0.061,0-0.121-0.001-0.184-0.005c-1.289-0.062-2.697-0.5-4.076-1.264
		c-2.047-1.387-4.67-2.557-7.789-3.476c-5.037-1.482-10.582-2.268-16.031-2.268c-3.467,0-6.828,0.313-9.988,0.931l-6.634,2.029
		l-0.006,0.09c-0.91,0.333-1.892,0.755-2.921,1.257l-0.247,0.12l0.028,0.273c0.042,0.404,0.087,0.872,0.134,1.381
		c0.317,3.336,0.753,7.904,1.629,9.36c0.625,1.037,1.538,1.214,2.205,1.342c0.183,0.036,0.357,0.069,0.483,0.116
		c0.005,0.029,0.01,0.06,0.016,0.09c0.866,4.875,2.838,8.123,6.206,10.217c2.855,1.776,6.652,2.738,12.699,3.212
		c0.639,0.051,1.285,0.076,1.92,0.076c9.527,0,16.361-5.754,17.9-8.835c0.484-0.965,1.049-2.935,1.676-5.851
		c0.076-0.159,0.133-0.311,0.176-0.467c0.406-1.5,2.098-2.501,2.963-2.926c0.867,0.425,2.559,1.425,2.967,2.927
		c0.041,0.155,0.098,0.307,0.172,0.466c0.631,2.916,1.193,4.886,1.676,5.851c1.09,2.178,3.805,4.319,5.982,5.599
		c2.516,1.476,6.623,3.236,11.918,3.236h0.002c0.635,0,1.281-0.025,1.92-0.076c6.047-0.474,9.844-1.436,12.697-3.212
		c3.367-2.094,5.34-5.342,6.207-10.217c0.006-0.03,0.01-0.061,0.016-0.09c0.125-0.047,0.301-0.08,0.484-0.116
		c0.666-0.128,1.58-0.305,2.203-1.342c0.877-1.456,1.312-6.024,1.627-9.36c0.049-0.509,0.096-0.977,0.137-1.381l0.027-0.273
		L159.261,127.717z M118.741,139.464c-0.092-1.656-0.268-5.61,0.051-7.353c0.006-0.03,0.012-0.06,0.016-0.088
		c1.639-0.991,3.654-1.842,5.996-2.531c4.678-1.378,9.832-2.105,14.904-2.105c3.174,0,6.244,0.281,9.129,0.836l3.584,1.104
		c-0.078,1.625-0.357,4.934-1.324,10.375c-0.654,3.667-1.885,5.87-4.119,7.366c-2.244,1.503-5.691,2.363-11.18,2.794
		c-0.535,0.043-1.076,0.064-1.611,0.064c-4.514,0-7.969-1.524-10.072-2.804c-2.463-1.497-3.926-3.146-4.27-3.833
		C119.649,142.9,119.302,141.92,118.741,139.464z M98.825,147.122c-2.107,1.279-5.562,2.804-10.066,2.804
		c-0.531,0-1.074-0.021-1.611-0.064c-5.488-0.431-8.936-1.291-11.18-2.794c-2.234-1.496-3.469-3.699-4.119-7.366
		c-0.969-5.443-1.246-8.75-1.324-10.375l3.584-1.104c2.885-0.555,5.955-0.836,9.127-0.836c5.072,0,10.227,0.728,14.904,2.105
		c2.34,0.688,4.357,1.54,5.998,2.531c0.004,0.028,0.01,0.058,0.014,0.088c0.316,1.735,0.143,5.694,0.051,7.354
		c-0.559,2.458-0.908,3.436-1.102,3.824C102.757,143.975,101.292,145.622,98.825,147.122z"/>
</g>
<g id="leeloo" display="none">
</g>
</svg>
