<?xml version="1.0" encoding="utf-8"?>
<!-- Generator: Adobe Illustrator 16.0.4, SVG Export Plug-In . SVG Version: 6.00 Build 0)  -->
<!DOCTYPE svg PUBLIC "-//W3C//DTD SVG 1.1//EN" "http://www.w3.org/Graphics/SVG/1.1/DTD/svg11.dtd">
<svg version="1.1" xmlns="http://www.w3.org/2000/svg" xmlns:xlink="http://www.w3.org/1999/xlink" x="0px" y="0px" width="45px"
	 height="52.705px" viewBox="0 0 45 52.705" enable-background="new 0 0 45 52.705" xml:space="preserve">
<g id="BG">
</g>
<g id="SCENE_1_a">
	<g>
		<path d="M21.514,33.001v-0.805c0-1.784,0.271-3.241,0.815-4.372c0.544-1.132,1.548-2.343,3.013-3.633l1.979-1.719
			c1.044-0.885,1.791-1.762,2.24-2.632c0.45-0.87,0.674-1.871,0.674-3.002c0-1.842-0.605-3.307-1.816-4.394
			c-1.211-1.088-2.803-1.632-4.775-1.632c-1.146,0-2.219,0.127-3.219,0.381s-2.081,0.663-3.241,1.229l-0.805-1.74
			c1.595-0.695,2.933-1.16,4.013-1.392c1.08-0.232,2.193-0.349,3.339-0.349c2.654,0,4.742,0.715,6.265,2.143
			c1.523,1.429,2.284,3.391,2.284,5.885c0,0.986-0.13,1.849-0.392,2.588c-0.261,0.74-0.627,1.425-1.099,2.056
			c-0.471,0.631-1.04,1.24-1.708,1.827c-0.667,0.588-1.406,1.222-2.219,1.903c-0.928,0.783-1.642,1.497-2.143,2.143
			c-0.5,0.646-0.863,1.323-1.087,2.034c-0.225,0.711-0.337,1.77-0.337,3.176v0.305H21.514z M20.796,39.505
			c0-1.421,0.58-2.132,1.74-2.132c1.189,0,1.784,0.711,1.784,2.132s-0.595,2.132-1.784,2.132
			C21.376,41.637,20.796,40.926,20.796,39.505z"/>
	</g>
</g>
<g id="SCENE_1_b" display="none">
</g>
<g id="SCENE_2_-_m" display="none">
</g>
<g id="SCENE_2_-_v" display="none">
</g>
<g id="SCENE_3_-_m" display="none">
</g>
<g id="SCENE_4_-_m__x3D__BEARD" display="none">
</g>
<g id="SCENE_5_-_m__x3D__FACE" display="none">
</g>
<g id="SCENE_5_-_m__x3D__FACE_kopie" display="none">
</g>
<g id="UI_only_forth" display="none">
</g>
<g id="UI">
</g>
</svg>
