<?xml version="1.0" encoding="utf-8"?>
<!-- Generator: Adobe Illustrator 16.0.4, SVG Export Plug-In . SVG Version: 6.00 Build 0)  -->
<!DOCTYPE svg PUBLIC "-//W3C//DTD SVG 1.1//EN" "http://www.w3.org/Graphics/SVG/1.1/DTD/svg11.dtd">
<svg version="1.1" xmlns="http://www.w3.org/2000/svg" xmlns:xlink="http://www.w3.org/1999/xlink" x="0px" y="0px" width="190px"
	 height="340px" viewBox="0 0 190 340" enable-background="new 0 0 190 340" xml:space="preserve">
<pattern  x="-405" y="51.5" width="12.428" height="7.306" patternUnits="userSpaceOnUse" id="Nieuwe_patroonstaal_8" viewBox="0 -7.306 12.428 7.306" overflow="visible">
	<g>
		<polygon fill="none" points="0,-7.306 12.428,-7.306 12.428,0 0,0 		"/>
		<path fill="#006A86" d="M7.301-5.835c0,0.421-0.343,0.763-0.764,0.763S5.774-5.414,5.774-5.835s0.342-0.763,0.763-0.763
			S7.301-6.257,7.301-5.835z"/>
		<path fill="#006A86" d="M2.952-5.835c0,0.421-0.342,0.763-0.764,0.763c-0.421,0-0.763-0.342-0.763-0.763s0.342-0.763,0.763-0.763
			C2.61-6.599,2.952-6.257,2.952-5.835z"/>
		<path fill="#006A86" d="M11.649-5.835c0,0.421-0.343,0.763-0.764,0.763c-0.422,0-0.764-0.342-0.764-0.763s0.342-0.763,0.764-0.763
			C11.307-6.599,11.649-6.257,11.649-5.835z"/>
		<path fill="#006A86" d="M7.301-2.277c0,0.421-0.343,0.763-0.764,0.763S5.774-1.856,5.774-2.277s0.342-0.763,0.763-0.763
			S7.301-2.699,7.301-2.277z"/>
		<path fill="#006A86" d="M2.952-2.277c0,0.421-0.342,0.763-0.764,0.763c-0.421,0-0.763-0.342-0.763-0.763s0.342-0.763,0.763-0.763
			C2.61-3.041,2.952-2.699,2.952-2.277z"/>
		<path fill="#006A86" d="M11.649-2.277c0,0.421-0.343,0.763-0.764,0.763c-0.422,0-0.764-0.342-0.764-0.763s0.342-0.763,0.764-0.763
			C11.307-3.041,11.649-2.699,11.649-2.277z"/>
	</g>
</pattern>
<g id="BODY" display="none">
	<path display="inline" fill="#1EC3F8" d="M128.164,275.002c-0.188-2.041-0.857-5.336-0.857-5.336s2.562-19.166,2.307-22.791
		c-0.254-3.625,1.222-25.625-3.718-29.25s-10.944-5.879-13.485-9.129c-2.542-3.25-32.934-3.25-35.476,0
		c-2.541,3.25-8.547,5.504-13.486,9.129s-3.464,25.625-3.718,29.25c-0.255,3.625,2.306,22.791,2.306,22.791s-0.67,3.296-0.857,5.336
		c-0.188,2.04,1.888,5.9,5.846,5.9c4.013,0,4.875-4.058,4.875-5.921c0-1.861-1.762-5.479-1.762-5.479
		c-0.763-5.479-1.242-24.877-0.987-28.877c0.254-4,0.397-7.25,3.066-7s4.211,13.875,4.846,17.75
		C77.697,255.25,79.746,265,79.746,265l0.012,0.001c0.006,0.027,2.702,11.447,3.591,18.886c0.342,2.853,1.558,15.843,2.235,20.795
		c0.001,0.017-0.006,0.028-0.004,0.045c0.065,0.711-0.23,1.667-1.21,2.209c-1.146,0.634-1.914,0.874-1.914,2.579
		c0,0.74,0.479,1.331,2.33,1.331c1.505,0,5.154,0,6.35,0c1.24,0,1.665-1.138,1.665-2.062c0-1.393-0.614-1.777-0.614-3.783
		c0,0,0,0,0,0c0.41-5.78-0.147-19.162-0.147-21.113c0-2.138,0.481-11.709,2.633-11.726c2.153,0.017,2.633,9.588,2.633,11.726
		c0,1.951-0.557,15.333-0.147,21.113c0,0,0,0,0,0.001c0,2.006-0.614,2.391-0.614,3.783c0,0.925,0.425,2.062,1.665,2.062
		c1.195,0,4.845,0,6.35,0c1.851,0,2.33-0.59,2.33-1.331c0-1.705-0.768-1.945-1.914-2.579c-0.979-0.542-1.275-1.498-1.21-2.209
		c0.002-0.017-0.005-0.029-0.005-0.045c0.679-4.953,1.895-17.942,2.236-20.795c0.89-7.439,3.585-18.86,3.592-18.886l0.011-0.001
		c0,0,2.049-9.75,2.685-13.625c0.635-3.875,2.176-17.5,4.845-17.75s2.812,3,3.065,7c0.255,4-0.225,23.397-0.987,28.877
		c0,0-1.763,3.618-1.763,5.479c0,1.863,0.862,5.921,4.875,5.921C126.276,280.902,128.353,277.042,128.164,275.002z"/>
	<path display="inline" opacity="0.05" fill="#1D1D1B" d="M112.41,208.496c-2.542-3.25-32.934-3.25-35.476,0
		c-1.437,1.838-2.622,3.358-6.012,4.987c8.465,6.341,13.826,9.774,23.518,9.774c9.762,0,15.157-3.482,23.698-9.91
		C114.855,211.769,113.807,210.283,112.41,208.496z"/>
</g>
<g id="bottom_-_3" display="none">
	<path display="inline" fill="#78B47A" d="M94.667,262.441c-5.205,0-15.91-0.442-15.91-0.442s1.814,18.714,1.98,29.8
		c3.8,2.109,11.04,1.407,13.173,1.083c0.004-2.454-0.005-8.35-0.005-8.995c0-2.138-0.067-2.722,0.767-2.722
		c0.539,0,0.494,0.583,0.494,2.722c0,0.641-0.017,6.519-0.023,8.952c1.817,0.294,10.493,1.169,14.468-1.047
		c-0.6-9.735,0.978-29.793,0.978-29.793S99.871,262.441,94.667,262.441z"/>
</g>
<g id="bottom_-_2" display="none">
	<path display="inline" fill="#C95B50" d="M94.667,263.441c-5.205,0-15.727-1.088-15.727-1.088s3.519,14.085,4.41,21.533
		c0.374,3.117,1.423,12.958,1.801,22.369c1.188,0.489,4.508,1.458,7.274,0.269c0.528-5.256-0.038-20.594-0.038-22.638
		c0-2.138,0.88-6.724,2.286-6.724c1.224,0,1.936,4.585,1.936,6.724c0,2.043-0.156,17.382,0.372,22.638
		c2.768,1.189,6.053,0.255,7.239-0.234c0.422-9.211,1.402-19.287,1.776-22.404c0.891-7.448,4.409-21.533,4.409-21.533
		S99.871,263.441,94.667,263.441z"/>
</g>
<g id="bottom_-_1" display="none">
	<path display="inline" fill="#006A86" d="M94.667,262.441c-5.205,0-15.91-0.442-15.91-0.442s1.701,14.44,2.591,21.888
		c0.374,3.117,2.596,19.336,3.436,22.95c1.188,0.489,4.917,1.115,7.684-0.074c0.528-5.256,1.437-20.833,1.437-22.876
		c0-2.138-0.067-2.722,0.767-2.722c0.539,0,0.494,0.583,0.494,2.722c0,2.043,0.832,17.621,1.36,22.876
		c2.768,1.189,6.848,0.562,8.034,0.073c0.84-3.614,3.063-19.833,3.438-22.95c0.891-7.448,2.591-21.888,2.591-21.888
		S99.871,262.441,94.667,262.441z"/>
</g>
<g id="feet_-_4" display="none">
	<path display="inline" fill="#008AB2" d="M84.991,306.256c-1.866,0.204-3.215,0.904-3.703,2.298s-0.364,2.292,0.129,2.292
		c0.561,0,9.958,0,10.724,0s0.754-1.352,0.696-2.062s0.087-2.541-0.414-2.259c0,0-2.101,0.382-3.308,0.318
		S84.991,306.256,84.991,306.256z"/>
	<path display="inline" fill="#008AB2" d="M104.415,306.256c1.865,0.204,3.215,0.904,3.703,2.298
		c0.487,1.394,0.363,2.292-0.13,2.292c-0.562,0-9.958,0-10.725,0s-0.754-1.352-0.696-2.062s-0.087-2.541,0.413-2.259
		c0,0,2.102,0.382,3.309,0.318S104.415,306.256,104.415,306.256z"/>
	<path display="inline" fill="#1EC3F8" d="M92.862,310.647c0,0.24-0.195,0.436-0.436,0.436H81.42c-0.241,0-0.436-0.195-0.436-0.436
		l0,0c0-0.241,0.195-0.437,0.436-0.437h11.005C92.667,310.211,92.862,310.406,92.862,310.647L92.862,310.647z"/>
	<circle display="inline" fill="#1EC3F8" cx="90.685" cy="308.551" r="0.978"/>
	<path display="inline" fill="#1EC3F8" d="M108.424,310.647c0,0.24-0.195,0.436-0.437,0.436H96.981c-0.24,0-0.436-0.195-0.436-0.436
		l0,0c0-0.241,0.195-0.437,0.436-0.437h11.006C108.229,310.211,108.424,310.406,108.424,310.647L108.424,310.647z"/>
	<circle display="inline" fill="#1EC3F8" cx="98.414" cy="308.551" r="0.978"/>
</g>
<g id="feet_-_3" display="none">
	<path display="inline" fill="#ECAD5F" d="M84.991,306.256c-1.866,0.204-3.215,0.904-3.703,2.298s-0.364,2.292,0.129,2.292
		c0.561,0,9.958,0,10.724,0s0.754-1.352,0.696-2.062s0.087-2.541-0.414-2.259c0,0-2.101,0.382-3.308,0.318
		S84.991,306.256,84.991,306.256z"/>
	<path display="inline" fill="#ECAD5F" d="M104.415,306.256c1.865,0.204,3.215,0.904,3.703,2.298
		c0.487,1.394,0.363,2.292-0.13,2.292c-0.562,0-9.958,0-10.725,0s-0.754-1.352-0.696-2.062s-0.087-2.541,0.413-2.259
		c0,0,2.102,0.382,3.309,0.318S104.415,306.256,104.415,306.256z"/>
	<path display="inline" fill="#008AB2" d="M92.862,310.647c0,0.24-0.195,0.436-0.436,0.436H81.42c-0.241,0-0.436-0.195-0.436-0.436
		l0,0c0-0.241,0.195-0.437,0.436-0.437h11.005C92.667,310.211,92.862,310.406,92.862,310.647L92.862,310.647z"/>
	<circle display="inline" fill="#008AB2" cx="90.685" cy="308.551" r="0.978"/>
	<path display="inline" fill="#008AB2" d="M108.424,310.647c0,0.24-0.195,0.436-0.437,0.436H96.981c-0.24,0-0.436-0.195-0.436-0.436
		l0,0c0-0.241,0.195-0.437,0.436-0.437h11.006C108.229,310.211,108.424,310.406,108.424,310.647L108.424,310.647z"/>
	<circle display="inline" fill="#008AB2" cx="98.414" cy="308.551" r="0.978"/>
</g>
<g id="feet_-_2" display="none">
	<path display="inline" fill="#006A86" d="M108.952,310.37c0,0,0.183,0.358,0.232,0.677c0.05,0.318-0.661,0.597-3.252,0.597
		c-5.176,0-10.474-1.067-10.474-1.067v-1.269C95.458,309.308,108.207,310.37,108.952,310.37z"/>
	<path display="inline" fill="#006A86" d="M102.623,310.365c0,0,0.627-2.321,1.314-3.021c0.688-0.699,0.988-1.176,0.601-1.489
		c-0.474-0.383-1.557,0.775-1.936,1.577c-0.38,0.802-1.215,2.566-1.215,2.566L102.623,310.365z"/>
	<path display="inline" fill="#006A86" d="M106.883,309.308c0,0,0.122,0.593-0.264,0.972s2.652,0.842,2.333,0.09
		S106.883,309.308,106.883,309.308z"/>
	<path display="inline" fill="#006A86" d="M96.549,308.582c0,0-1.09,0.114-1.09,0.726s1.219,0.5,1.16,0.136
		S96.549,308.582,96.549,308.582z"/>
	<path display="inline" fill="#006A86" d="M80.387,310.37c0,0-0.183,0.358-0.232,0.677c-0.05,0.318,0.661,0.597,3.252,0.597
		c5.176,0,10.474-1.067,10.474-1.067v-1.269C93.88,309.308,81.132,310.37,80.387,310.37z"/>
	<path display="inline" fill="#006A86" d="M86.716,310.365c0,0-0.627-2.321-1.314-3.021c-0.688-0.699-0.988-1.176-0.601-1.489
		c0.474-0.383,1.557,0.775,1.936,1.577c0.38,0.802,1.215,2.566,1.215,2.566L86.716,310.365z"/>
	<path display="inline" fill="#006A86" d="M82.456,309.308c0,0-0.122,0.593,0.264,0.972s-2.652,0.842-2.333,0.09
		S82.456,309.308,82.456,309.308z"/>
	<path display="inline" fill="#006A86" d="M92.79,308.582c0,0,1.09,0.114,1.09,0.726s-1.219,0.5-1.16,0.136
		S92.79,308.582,92.79,308.582z"/>
</g>
<g id="feet_-_3_kopie" display="none">
	<path display="inline" fill="#C95B50" d="M84.991,306.256c-1.866,0.204-3.215,0.904-3.703,2.298s-0.364,2.292,0.129,2.292
		c0.561,0,9.958,0,10.724,0s0.754-1.352,0.696-2.062s0.087-2.541-0.414-2.259c0,0-2.101,0.382-3.308,0.318
		S84.991,306.256,84.991,306.256z"/>
	<path display="inline" fill="#C95B50" d="M104.415,306.256c1.865,0.204,3.215,0.904,3.703,2.298
		c0.487,1.394,0.363,2.292-0.13,2.292c-0.562,0-9.958,0-10.725,0s-0.754-1.352-0.696-2.062s-0.087-2.541,0.413-2.259
		c0,0,2.102,0.382,3.309,0.318S104.415,306.256,104.415,306.256z"/>
</g>
<g id="top_-_5" display="none">
	<path display="inline" fill="#1EC3F8" d="M120.77,208.625h-1.445H69.835H68.39c-10.298,0-12.013,8.244-11.553,23.248
		c0.455,14.849,3.305,38.828,3.305,38.828l10.591-0.195c0,0-0.97-28.85-0.794-30.295c0.464-3.767,1.691-3.184,1.691-3.184
		l3.272,25.875c0,0,2.482,6.431,19.678,6.431c17.195,0,19.679-6.431,19.679-6.431l3.271-25.875c0,0,1.227-0.583,1.691,3.184
		c0.178,1.446-0.794,30.295-0.794,30.295l10.589,0.195c0,0,2.849-23.979,3.308-38.828
		C132.784,216.869,131.068,208.625,120.77,208.625z"/>
	<path display="inline" fill="#FFFFFF" d="M78.441,208.625c0.016,0.099,0.022,0.189,0.041,0.29
		c2.618,14.894,16.194,36.132,16.194,36.132c0.083-0.094,13.571-21.238,16.19-36.132c0.019-0.101,0.024-0.191,0.04-0.29H78.441z"/>
	<path display="inline" fill="#219DC8" d="M87.34,243.332c0,0-5.608-5.925-7.811-9.796c-0.535-0.94-1.162-1.908-1.856-3.012
		c-0.17-0.27,0.775-2.078,0.598-2.365c-0.127-0.206-1.838,0.051-1.968-0.166c-1.787-2.961-3.271-10.173-4.004-13.506
		c-1.724-7.836-2.006-6.715,0.965-0.317c1.084,2.335,2.453,9.497,3.744,12.952c0.11,0.295,2.488-0.099,2.641,0.18
		c0.13,0.239-1.021,2.99-0.889,3.23C81.699,235.858,84.786,240.795,87.34,243.332z"/>
	<path display="inline" fill="#219DC8" d="M101.424,243.332c0,0,5.608-5.925,7.811-9.796c0.535-0.94,1.162-1.908,1.856-3.012
		c0.17-0.27-0.775-2.078-0.598-2.365c0.127-0.206,1.838,0.051,1.968-0.166c1.787-2.961,3.271-10.173,4.004-13.506
		c1.724-7.836,2.006-6.715-0.965-0.317c-1.084,2.335-2.452,9.497-3.744,12.952c-0.11,0.295-2.488-0.099-2.641,0.18
		c-0.13,0.239,1.021,2.99,0.889,3.23C107.064,235.858,103.978,240.795,101.424,243.332z"/>
	<circle display="inline" fill="#006A86" cx="94.667" cy="253.284" r="1.191"/>
	<circle display="inline" fill="#006A86" cx="94.667" cy="259.398" r="1.191"/>
	<path display="inline" fill="#006A86" d="M95.164,222.611c0,0-4.307-2.816-6.14-2.816c-1.469,0-1.821,1.17-1.821,2.653
		c0,1.484,0.524,5.088,2.186,5.088s5.775-3.871,5.775-3.871V222.611z"/>
	<path display="inline" fill="#006A86" d="M94.17,222.611c0,0,4.307-2.816,6.139-2.816c1.468,0,1.819,1.17,1.819,2.653
		c0,1.484-0.524,5.088-2.185,5.088c-1.659,0-5.774-3.871-5.774-3.871V222.611z"/>
</g>
<g id="top_-_4" display="none">
	<path display="inline" fill="#006A86" d="M120.77,208.625h-1.445H69.835H68.39c-10.298,0-12.013,8.244-11.553,23.248
		c0.455,14.849,4.305,37.827,4.305,37.827l10.591-0.195c0,0-1.971-27.849-1.794-29.295c0.464-3.767,1.691-3.184,1.691-3.184
		l3.272,25.875c0,0,2.482,6.431,19.678,6.431c17.195,0,19.679-6.431,19.679-6.431l3.271-25.875c0,0,1.227-0.583,1.691,3.184
		c0.178,1.446-1.795,29.295-1.795,29.295l10.589,0.195c0,0,3.85-22.978,4.309-37.827
		C132.784,216.869,131.068,208.625,120.77,208.625z"/>
	<path display="inline" fill="#FFFFFF" d="M78.441,208.625c0.016,0.099,0.022,0.189,0.041,0.29
		c2.618,14.894,16.194,36.132,16.194,36.132c0.083-0.094,13.571-21.238,16.19-36.132c0.019-0.101,0.024-0.191,0.04-0.29H78.441z"/>
	<circle display="inline" fill="#006A86" cx="94.667" cy="253.284" r="1.191"/>
	<circle display="inline" fill="#006A86" cx="94.667" cy="259.398" r="1.191"/>
	<path display="inline" fill="#006A86" d="M98.804,220.304c0-4.236-4.106-9.979-4.106-9.979l-0.056-0.016
		c0,0-4.106,5.744-4.106,9.98c0,1.143,1.301,3.313,2.542,4.013c-0.627,1.519-1.624,9.262-2.438,14.949
		c2.322,4.115,4.035,6.796,4.035,6.796c0.029-0.033,1.729-2.691,4.028-6.764c-0.813-5.691-1.814-13.444-2.442-14.966
		C97.502,223.617,98.804,221.447,98.804,220.304z"/>
</g>
<g id="top_-_3" display="none">
	<g display="inline">
		<path fill="#219DC8" d="M120.77,208.625h-1.445H69.835H68.39c-10.298,0-12.013,8.244-11.553,23.248
			c0.455,14.849,3.305,38.828,3.305,38.828l10.591-0.195c0,0-0.97-28.85-0.794-30.295c0.464-3.767,1.691-3.184,1.691-3.184
			l3.272,25.875c0,0,2.482,6.431,19.678,6.431c17.195,0,19.679-6.431,19.679-6.431l3.271-25.875c0,0,1.227-0.583,1.691,3.184
			c0.178,1.446-0.794,30.295-0.794,30.295l10.589,0.195c0,0,2.849-23.979,3.308-38.828
			C132.784,216.869,131.068,208.625,120.77,208.625z"/>
		<path fill="#FFFFFF" d="M78.441,208.625c0.016,0.099,0.022,0.189,0.041,0.29c2.618,14.894,16.194,36.132,16.194,36.132
			c0.083-0.094,13.571-21.238,16.19-36.132c0.019-0.101,0.024-0.191,0.04-0.29H78.441z"/>
		<path fill="#006A86" d="M101.701,242.269c0,0,5.608-5.925,7.811-9.796c2.037-3.58,5.999-8.698,9.351-19.119
			c2.457-7.638-0.037-1.153-3.008,5.245S106.114,237.886,101.701,242.269z"/>
		<path fill="#006A86" d="M87.59,242.269c0,0-5.608-5.925-7.811-9.796c-2.037-3.58-5.999-8.698-9.351-19.119
			c-2.457-7.638,0.037-1.153,3.008,5.245S83.177,237.886,87.59,242.269z"/>
		<circle fill="#006A86" cx="94.667" cy="253.284" r="1.191"/>
		<circle fill="#006A86" cx="94.667" cy="259.398" r="1.191"/>
		<path fill="#006A86" d="M98.804,220.304c0-4.236-4.106-9.979-4.106-9.979l-0.056-0.016c0,0-4.106,5.744-4.106,9.98
			c0,1.143,1.301,3.313,2.542,4.013c-0.627,1.519-1.624,8.262-2.438,13.948c2.322,4.115,4.035,6.796,4.035,6.796
			c0.029-0.033,1.729-2.691,4.028-6.764c-0.813-5.691-1.814-12.443-2.442-13.966C97.502,223.617,98.804,221.447,98.804,220.304z"/>
	</g>
</g>
<g id="top_-_2" display="none">
	<path display="inline" fill="#F5F5F5" d="M109.556,211.777h-2.841c0,11.171,0.22,20.658-12.043,20.658
		c-12.691,0-11.796-9.179-12.047-20.658h-3.841c0,0,5.628,32.908-3.423,32.908c0.512,3.272,1.713,24.641,1.713,24.641
		c9.577,3.08,17.594,2.944,17.599,2.944s8.023,0.136,17.6-2.944c0,0,1.904-22.672,1.904-24.812
		C107.434,244.515,109.556,211.777,109.556,211.777z"/>
</g>
<g id="top_-_1" display="none">
	<path display="inline" fill="#1EC3F8" d="M120.77,208.625h-1.445H69.835H68.39c-10.298,0-12.013,8.244-11.553,23.248
		c0.455,14.849,3.305,38.828,3.305,38.828l10.591-0.195c0,0-0.97-28.85-0.794-30.295c0.464-3.767,1.691-3.184,1.691-3.184
		l3.272,25.875c0,0,2.482,6.431,19.678,6.431c17.195,0,19.679-6.431,19.679-6.431l3.271-25.875c0,0,1.227-0.583,1.691,3.184
		c0.178,1.446-0.794,30.295-0.794,30.295l10.589,0.195c0,0,2.849-23.979,3.308-38.828
		C132.784,216.869,131.068,208.625,120.77,208.625z"/>
</g>
<g id="BALD">
	<path fill="#1EC3F8" d="M156.686,122.724c1.4-9.476,4.689-16.967,3.145-35.637c-1.023-12.361-11.012-39.508-44.454-47.646
		c-6.543-2.328-13.586-3.607-20.928-3.607c-7.344,0-14.385,1.279-20.929,3.607c-33.442,8.139-43.431,35.285-44.454,47.646
		c-1.552,18.748,1.771,26.224,3.162,35.756c-6.33,1.689-10.609,7.818-9.777,14.503l1.672,13.429
		c0.854,6.867,6.792,11.856,13.57,11.673c0.818,6.884,1.551,12.787,2.049,16.851c1.988,16.218,7.551,19.557,20.43,28.144
		c12.879,8.586,21.467,13.356,34.277,13.356s21.396-4.771,34.275-13.356c12.879-8.587,18.441-11.926,20.43-28.144
		c0.5-4.07,1.234-9.984,2.055-16.883c6.956,0.414,13.132-4.629,14.004-11.641l1.672-13.429
		C167.733,130.512,163.249,124.246,156.686,122.724z"/>
</g>
<g id="FACE" display="none">
	<circle display="inline" opacity="0.7" fill="#000100" cx="78.487" cy="135.092" r="4.252"/>
	<circle display="inline" opacity="0.7" fill="#000100" cx="111.927" cy="135.092" r="4.252"/>
	<g display="inline" opacity="0.2">
		<path fill="#1D1D1B" d="M94.899,178.101h-0.884c-7.701,0-11.393-3.288-11.546-3.428c-0.612-0.558-0.655-1.507-0.097-2.119
			c0.558-0.612,1.507-0.656,2.119-0.097c0.021,0.018,3.073,2.644,9.524,2.644h0.884c6.445,0,9.495-2.618,9.524-2.644
			c0.61-0.558,1.561-0.516,2.119,0.097c0.558,0.612,0.515,1.561-0.098,2.119C106.292,174.812,102.6,178.101,94.899,178.101z"/>
	</g>
</g>
<g id="brd_-_1" display="none">
	<pattern  id="SVGID_1_" xlink:href="#Nieuwe_patroonstaal_8" patternTransform="matrix(1 0 0 1 0 51.1396)">
	</pattern>
	<path display="inline" fill="url(#SVGID_1_)" d="M126.435,179.02c-1.562,8.854-8.594,21.616-16.928,24.481
		c-8.152,2.802-14.78,3.36-15.067,3.384c0-0.018,0-0.025,0-0.025s-6.758-0.521-15.092-3.386
		c-8.334-2.865-15.367-15.628-16.929-24.481c-1.562-8.854-14.194-25.196-27.346-36.461c0,0,0.671,9.331,1.674,19.616
		c0.244,0.007,0.486,0.021,0.732,0.015c0.818,6.882,1.551,12.784,2.049,16.847c1.987,16.213,7.549,19.552,20.424,28.137
		c12.876,8.583,21.462,13.353,34.269,13.353c12.808,0,21.391-4.77,34.267-13.353c12.876-8.585,18.437-11.924,20.425-28.137
		c0.5-4.069,1.234-9.982,2.055-16.879c0.382,0.023,0.763,0.023,1.142,0.014c1.002-10.271,1.672-19.585,1.672-19.585
		C140.628,153.823,127.997,170.165,126.435,179.02z"/>
	<pattern  id="SVGID_2_" xlink:href="#Nieuwe_patroonstaal_8" patternTransform="matrix(1 0 0 1 0 51.1396)">
	</pattern>
	<path display="inline" fill="url(#SVGID_2_)" d="M94.417,178.855c-16.056,0-39.818,9.557-39.818,20.546
		c0,10.992,39.818,12.425,39.818,12.425V178.855z"/>
	<pattern  id="SVGID_3_" xlink:href="#Nieuwe_patroonstaal_8" patternTransform="matrix(1 0 0 1 0 51.1396)">
	</pattern>
	<path display="inline" fill="url(#SVGID_3_)" d="M94.45,178.855c16.057,0,39.819,9.557,39.819,20.546
		c0,10.992-39.819,12.425-39.819,12.425V178.855z"/>
	<pattern  id="SVGID_4_" xlink:href="#Nieuwe_patroonstaal_8" patternTransform="matrix(1 0 0 1 0 51.1396)">
	</pattern>
	<path display="inline" fill="url(#SVGID_4_)" d="M125.974,172.449c0,0-0.389-1.479-1.436-3.845c0-0.002-0.002-0.008-0.002-0.008
		h-0.001c-0.993-2.245-2.577-5.287-4.999-8.643c-6.111-8.465-14.561-8.199-25.433-8.199c-10.872,0-19.069-0.266-25.181,8.199
		c-4.976,6.894-6.437,12.495-6.437,12.495l0.506,0.414c-0.557,3.202-0.64,7.443,1.966,9.896c4.581,4.315,6.056,1.713,8.574-3.427
		l-0.12-0.138c1.517-3.293,5.127-10.72,7.823-12.955c2.927-2.427,7.997-3.407,12.995-3.407c4.999,0,10.068,0.98,12.996,3.407
		c3.499,2.901,8.542,14.553,8.542,14.553l0.053-0.043c2.125,4.155,3.73,5.905,7.866,2.01c2.642-2.487,2.52-6.811,1.942-10.028
		L125.974,172.449z"/>
</g>
<g id="brd_-_2" display="none">
	<path display="inline" fill="#008AB2" d="M105.311,213.932c-3.585-0.334-11.166,0-11.166,0s-7.582-0.334-11.166,0
		c-3.584,0.334-3.783,4.599-3.783,4.599c2.939,3.204,10.563,4.686,14.949,4.732s9.993,0.224,14.948-4.732
		C109.093,218.531,108.896,214.266,105.311,213.932z"/>
	<path display="inline" fill="#008AB2" d="M112.203,217.062c0,0-3.925,3.375-7.246,4.1c-3.323,0.725-1.784-8.342,1.357-7.01
		C109.458,215.483,112.203,217.062,112.203,217.062z"/>
	<path display="inline" fill="#008AB2" d="M76.764,217.062c0,0,3.925,3.375,7.246,4.1c3.323,0.725,0.45-8.025-2.691-6.693
		C78.175,215.8,76.764,217.062,76.764,217.062z"/>
</g>
<g id="brd_-_3" display="none">
	<path display="inline" fill="#965096" d="M97.397,183.622c-1.509,0-2.4,0-2.4,0s-0.891,0-2.402,0c-1.511,0-6.5,0.385-6.5,2.577
		c0,2.191,1.57,4.711,4.311,5.554c2.738,0.843,3.158,1.364,4.592,1.364c1.432,0,1.852-0.521,4.592-1.364
		c2.738-0.843,4.309-3.363,4.309-5.554C103.898,184.007,98.908,183.622,97.397,183.622z"/>
</g>
<g id="brd_-_4" display="none">
	<path display="inline" fill="#C95B50" d="M153.853,132.09c-0.72,0-2.558,4.183-3.634,6.789c-1.491,3.766-3.047,7.431-4.357,10.022
		c-3.422,6.771-13.543,14.639-15.279,19.248s-3.078,7.815-5.562,7.504s-1.242-6.367-8.074-15.84
		c-6.748-9.355-19.67-9.303-22.383-9.3c-2.713-0.003-15.634-0.056-22.382,9.3c-6.833,9.473-5.59,15.529-8.075,15.84
		s-3.826-2.896-5.562-7.504s-11.857-12.477-15.28-19.248c-1.444-2.856-3.186-7.016-4.812-11.178
		c-1.078-2.527-2.527-5.633-3.148-5.633c-1.046,0-0.772,3.189-0.582,5.217c0.004,0.042-0.019,0.062-0.022,0.097
		c1.021,10.9,2.267,23.426,3.006,29.552c1.087,9.007,0.622,20.188,6.988,27.797s24.954,19.587,35.717,23.759
		c6.794,2.634,13.286,2.652,14.151,2.642c0.866,0.01,7.356-0.008,14.151-2.642c10.763-4.172,29.351-16.15,35.717-23.759
		s5.901-18.79,6.988-27.797c0.742-6.148,1.995-18.743,3.018-29.67C154.627,135.258,154.895,132.09,153.853,132.09z M114.89,184.865
		c-2.422,1.214-9.67,5.176-20.327,5.203c-10.657-0.026-17.905-3.989-20.327-5.203c-1.97-0.987-4.695-3.157-3.608-5.797
		s7.765-11.181,12.853-14.729c3.042-2.121,8.146-2.483,11.082-2.435c2.937-0.048,8.039,0.314,11.082,2.435
		c5.088,3.547,11.766,12.088,12.854,14.729C119.584,181.708,116.859,183.878,114.89,184.865z"/>
</g>
<g id="mst_-_1" display="none">
	<path display="inline" fill="#006B86" d="M112.113,164.884c-1.769-2.869-5.366-7.073-10.389-7.945
		c-0.456-0.061-0.898-0.112-1.328-0.157c-0.003,0-0.005-0.001-0.007-0.001c-0.211-0.01-0.38-0.029-0.53-0.052
		c-2.368-0.222-4.253-0.228-5.192-0.227c-0.939-0.001-2.825,0.005-5.195,0.227c-0.148,0.022-0.318,0.042-0.527,0.052
		c-0.433,0.045-0.879,0.097-1.339,0.158c-5.021,0.873-8.618,5.077-10.387,7.945c-1.016,1.647-1.5,3.646-0.525,4.721
		c0.87,0.959,3.346,0.654,4.334,0.142c0.008-0.004,0.015-0.008,0.023-0.012c0.594-0.422,1.188-0.811,1.778-1.143
		c1.661-0.939,5.57-2.129,11.838-2.129c6.534,0,13.023,2.852,13.619,3.274c0.006,0.004,0.013,0.006,0.019,0.01
		c0.989,0.512,3.465,0.817,4.335-0.142C113.613,168.53,113.13,166.531,112.113,164.884z"/>
</g>
<g id="mst_-_2" display="none">
	<path display="inline" fill="#006B86" d="M124.633,182.442c-0.178-1.752-0.657-3.776-1.167-5.58
		c-0.915-2.489-1.748-7.431-6.521-14.047c-6.67-9.248-19.366-9.303-22.278-9.3c-2.912-0.003-15.608,0.052-22.278,9.3
		c-4.772,6.617-5.605,11.558-6.521,14.047c-0.51,1.804-0.989,3.828-1.167,5.58c-0.445,4.385,1.349,5.159,2.482,5.569
		c1.471,0.532,3.356-4.045,4.932-6.525c1.664-3.139,6.814-10.827,11.574-14.146c3.01-2.098,8.026-2.473,10.978-2.435
		c2.951-0.039,7.968,0.337,10.978,2.435c4.76,3.319,9.909,11.007,11.573,14.146c1.576,2.48,3.462,7.057,4.933,6.525
		C123.284,187.602,125.078,186.827,124.633,182.442z"/>
</g>
<g id="mst_-_3" display="none">
	<path display="inline" fill="#965096" d="M103.073,160.117c0,0-4.402,0.336-8.406,0.336c-4.109,0-8.406-0.336-8.406-0.336
		c-0.738,3.556-2.195,6.926-1.833,8.535c0,0.001,0.001,0.003,0.002,0.005c0.377-0.319,5.27,1.25,10.236,1.25
		c5.299,0,9.86-1.569,10.236-1.25c0.001-0.002,0.002-0.003,0.003-0.005C105.269,167.043,103.811,163.672,103.073,160.117z"/>
</g>
<g id="snit_-_1" display="none">
	<path display="inline" fill="#008AB2" d="M29.88,123.712c0,0-0.468-20.896-1.477-28.098c-1.079-7.705,1.201-25.727,6.882-33.508
		s16.31-22.351,40.397-25.271c19.19-2.326,33.914-2.182,45.794,1.242c12.786,3.686,21.119,11.854,24.53,14.52
		c8.459,6.611,17.807,20.139,16.049,38.229c-1.687,17.344-1.279,33.268-1.762,33.32s-1.779-0.988-2.259-0.408
		c-0.479,0.578-1.87,2.602-3.118,24.75c-0.295,2.574-1.785,2.658-1.76,1.369c0.865-43.611-6.077-44.486-5.752-51.994
		c0.371-8.58,4.844-22.484-2.391-32.037c-9.557-12.619-22.736,1.805-48.74,1.805s-45.838-13.379-51.458-3.438
		s-2.485,25.521-2.056,29.389c1.178,10.6-6.299,20.156-5.971,30.895c0.301,9.846,0.711,19.627,0.434,24.012
		c-0.246,3.875-1.75,2.959-1.938,0c-1.774-27.76-3.829-25.361-3.829-25.361L29.88,123.712z"/>
</g>
<g id="snit__-_2" display="none">
	<path display="inline" fill="#008AB2" d="M31.245,118.195"/>
	<g display="inline">
		<path fill="#008AB2" d="M29.88,123.712c0,0-0.468-20.896-1.477-28.098c-1.079-7.705,1.201-25.727,6.882-33.508
			s16.31-22.351,40.397-25.271c19.19-2.326,33.914-2.182,45.794,1.242c12.786,3.686,21.119,11.854,24.53,14.52
			c8.459,6.611,17.807,20.139,16.049,38.229c-1.687,17.344-1.279,33.268-1.762,33.32s-1.757-0.969-2.259-0.408
			c-1.45,1.622-0.2,14.371-4.298,30.078c-0.295,2.574-0.605-2.669-0.58-3.958c0.865-43.611-6.077-44.486-5.752-51.994
			c0.371-8.58,4.844-22.484-2.391-32.037c-9.557-12.619-22.736,1.805-48.74,1.805s-45.838-13.379-51.458-3.438
			s-2.485,25.521-2.056,29.389c1.178,10.6-6.299,20.156-5.971,30.895c0.301,9.846,0.711,19.627,0.434,24.012
			c-0.246,3.875-1.75,2.959-1.938,0c-1.774-27.76-3.829-25.361-3.829-25.361L29.88,123.712z"/>
		<ellipse fill="#008AB2" cx="76.706" cy="38.557" rx="8.49" ry="8.688"/>
		<circle fill="#008AB2" cx="76.373" cy="63.379" r="7.524"/>
		<ellipse fill="#008AB2" cx="53.843" cy="50.526" rx="9.586" ry="8.688"/>
		<circle fill="#008AB2" cx="61.808" cy="45.522" r="11.25"/>
		
			<ellipse transform="matrix(0.4947 -0.8691 0.8691 0.4947 -7.2715 75.0759)" fill="#008AB2" cx="60.925" cy="43.791" rx="9.586" ry="8.687"/>
		<circle fill="#008AB2" cx="110.752" cy="52.15" r="11.249"/>
		
			<ellipse transform="matrix(0.4947 -0.8691 0.8691 0.4947 11.7012 120.9606)" fill="#008AB2" cx="109.869" cy="50.418" rx="9.586" ry="8.687"/>
		<circle fill="#008AB2" cx="100.951" cy="62.41" r="11.249"/>
		
			<ellipse transform="matrix(-0.0998 -0.995 0.995 -0.0998 42.677 157.3248)" fill="#008AB2" cx="92.506" cy="59.357" rx="9.585" ry="8.688"/>
		<circle fill="#008AB2" cx="73.734" cy="51.212" r="6.754"/>
		
			<ellipse transform="matrix(0.6624 0.7491 -0.7491 0.6624 63.5229 -38.8701)" fill="#008AB2" cx="74.89" cy="51.047" rx="5.755" ry="5.215"/>
		<circle fill="#008AB2" cx="52.774" cy="44.458" r="6.753"/>
		
			<ellipse transform="matrix(0.6625 0.7491 -0.7491 0.6625 51.383 -25.4478)" fill="#008AB2" cx="53.93" cy="44.293" rx="5.755" ry="5.215"/>
		<circle fill="#008AB2" cx="117.507" cy="64.72" r="6.753"/>
		
			<ellipse transform="matrix(0.6624 0.7491 -0.7491 0.6624 88.3779 -65.3963)" fill="#008AB2" cx="116.75" cy="65.362" rx="6.487" ry="6.779"/>
		<circle fill="#008AB2" cx="139.001" cy="55.906" r="6.753"/>
		
			<ellipse transform="matrix(0.6624 0.7491 -0.7491 0.6624 89.0713 -86.1784)" fill="#008AB2" cx="140.156" cy="55.741" rx="5.755" ry="5.215"/>
		
			<ellipse transform="matrix(-0.9778 0.2095 -0.2095 -0.9778 242.129 53.3732)" fill="#008AB2" cx="118.237" cy="39.512" rx="4.628" ry="5.216"/>
		
			<ellipse transform="matrix(-0.543 0.8397 -0.8397 -0.543 104.997 54.9109)" fill="#008AB2" cx="37.557" cy="56.025" rx="4.41" ry="4.308"/>
		
			<ellipse transform="matrix(-0.543 0.8397 -0.8397 -0.543 129.0276 50.4632)" fill="#008AB2" cx="50.782" cy="60.341" rx="5.012" ry="4.896"/>
		
			<ellipse transform="matrix(-0.543 0.8397 -0.8397 -0.543 139.9126 47.1991)" fill="#008AB2" cx="57.114" cy="61.669" rx="4.41" ry="4.308"/>
		
			<ellipse transform="matrix(-0.543 0.8397 -0.8397 -0.543 150.8544 39.8101)" fill="#008AB2" cx="64.595" cy="60.952" rx="4.41" ry="4.308"/>
		<circle fill="#008AB2" cx="44.257" cy="51.328" r="6.753"/>
		
			<ellipse transform="matrix(-0.5431 0.8397 -0.8397 -0.5431 113.0134 43.2915)" fill="#008AB2" cx="44.728" cy="52.396" rx="5.754" ry="5.216"/>
		<circle fill="#008AB2" cx="87.103" cy="62.19" r="6.754"/>
		
			<ellipse transform="matrix(-0.543 0.8397 -0.8397 -0.543 188.2426 24.0667)" fill="#008AB2" cx="87.572" cy="63.258" rx="5.755" ry="5.214"/>
		<circle fill="#008AB2" cx="100.951" cy="53.165" r="6.754"/>
		
			<ellipse transform="matrix(0.9846 0.1749 -0.1749 0.9846 10.716 -16.9864)" fill="#008AB2" cx="101.752" cy="52.318" rx="5.755" ry="5.215"/>
		<path fill="#008AB2" d="M134.194,42.682c-0.694,3.9-4.418,6.5-8.318,5.807c-3.901-0.693-6.501-4.417-5.808-8.318
			c0.693-3.897,4.417-6.499,8.318-5.806C132.286,35.058,134.887,38.782,134.194,42.682z"/>
		
			<ellipse transform="matrix(0.9846 0.175 -0.175 0.9846 9.6908 -22.8579)" fill="#008AB2" cx="134.483" cy="43.532" rx="2.794" ry="2.748"/>
		
			<ellipse transform="matrix(0.9846 0.1749 -0.1749 0.9846 10.5536 -23.8442)" fill="#008AB2" cx="140.568" cy="47.959" rx="5.62" ry="5.843"/>
		
			<ellipse transform="matrix(0.9846 0.175 -0.175 0.9846 11.5209 -24.9202)" fill="#008AB2" cx="147.096" cy="52.881" rx="4.517" ry="4.431"/>
		
			<ellipse transform="matrix(0.9846 0.175 -0.175 0.9846 14.1025 -26.4592)" fill="#008AB2" cx="157.067" cy="66.728" rx="3.309" ry="3.247"/>
		
			<ellipse transform="matrix(0.9846 0.175 -0.175 0.9846 13.0379 -25.6924)" fill="#008AB2" cx="152.207" cy="61.085" rx="6.094" ry="6.331"/>
		
			<ellipse transform="matrix(0.9846 0.175 -0.175 0.9846 12.6331 -24.5859)" fill="#008AB2" cx="145.759" cy="59.357" rx="5.755" ry="5.214"/>
		
			<ellipse transform="matrix(0.9846 0.175 -0.175 0.9846 15.3192 -26.3475)" fill="#008AB2" cx="157.093" cy="73.711" rx="5.755" ry="5.215"/>
		
			<ellipse transform="matrix(0.9846 0.1749 -0.1749 0.9846 16.4684 -26.8188)" fill="#008AB2" cx="160.408" cy="80.034" rx="3.064" ry="3.058"/>
		
			<ellipse transform="matrix(0.9846 0.1749 -0.1749 0.9846 20.3454 -26.4741)" fill="#008AB2" cx="160.408" cy="102.219" rx="2.344" ry="2.339"/>
		
			<ellipse transform="matrix(0.9846 0.1748 -0.1748 0.9846 22.6717 -26.104)" fill="#008AB2" cx="159.512" cy="115.641" rx="2.142" ry="2.352"/>
		
			<ellipse transform="matrix(0.9846 0.1748 -0.1748 0.9846 20.3646 -4.7409)" fill="#008AB2" cx="37.093" cy="113.227" rx="2.142" ry="2.352"/>
		
			<ellipse transform="matrix(0.9846 0.1749 -0.1749 0.9846 21.1278 -26.4249)" fill="#008AB2" cx="160.492" cy="106.661" rx="3.181" ry="3.174"/>
		<circle fill="#008AB2" cx="127.058" cy="52.396" r="6.754"/>
		
			<ellipse transform="matrix(0.9846 0.1749 -0.1749 0.9846 10.9898 -21.5731)" fill="#008AB2" cx="127.86" cy="51.549" rx="5.755" ry="5.214"/>
		<circle fill="#008AB2" cx="109.869" cy="36.322" r="6.754"/>
		
			<ellipse transform="matrix(0.9846 0.1749 -0.1749 0.9846 7.9127 -18.8138)" fill="#008AB2" cx="110.67" cy="35.475" rx="5.755" ry="5.215"/>
		<circle fill="#008AB2" cx="99.501" cy="36.322" r="6.754"/>
		
			<ellipse transform="matrix(0.9846 0.175 -0.175 0.9846 7.7536 -17.0015)" fill="#008AB2" cx="100.303" cy="35.475" rx="5.755" ry="5.215"/>
		
			<ellipse transform="matrix(0.9846 0.175 -0.175 0.9846 18.8926 -4.1508)" fill="#008AB2" cx="32.988" cy="105.076" rx="5.755" ry="5.215"/>
		
			<ellipse transform="matrix(0.9846 0.1749 -0.1749 0.9846 12.469 -21.0016)" fill="#008AB2" cx="125.415" cy="60.258" rx="5.755" ry="5.215"/>
		
			<ellipse transform="matrix(0.9846 0.1749 -0.1749 0.9846 12.7893 -22.611)" fill="#008AB2" cx="134.697" cy="61.265" rx="5.755" ry="5.215"/>
		
			<ellipse transform="matrix(0.9846 0.1749 -0.1749 0.9846 14.4347 -24.3633)" fill="#008AB2" cx="145.423" cy="69.702" rx="8.126" ry="8.25"/>
		
			<ellipse transform="matrix(0.9846 0.1749 -0.1749 0.9846 15.8421 -25.526)" fill="#008AB2" cx="152.728" cy="77.108" rx="6.987" ry="6.332"/>
		
			<ellipse transform="matrix(0.9846 0.1749 -0.1749 0.9846 17.7583 -26.3113)" fill="#008AB2" cx="158.148" cy="87.591" rx="8.047" ry="7.292"/>
		
			<ellipse transform="matrix(0.9846 0.1749 -0.1749 0.9846 18.2811 -4.7168)" fill="#008AB2" cx="35.9" cy="101.356" rx="6.988" ry="6.332"/>
		
			<ellipse transform="matrix(0.9846 0.1749 -0.1749 0.9846 12.3349 -6.7134)" fill="#008AB2" cx="44.255" cy="66.625" rx="5.363" ry="5.215"/>
		
			<ellipse transform="matrix(0.9846 0.1749 -0.1749 0.9846 17.27 -4.2918)" fill="#008AB2" cx="32.988" cy="95.85" rx="5.755" ry="5.215"/>
		
			<ellipse transform="matrix(0.9846 0.1749 -0.1749 0.9846 17.0342 -25.5992)" fill="#008AB2" cx="153.78" cy="83.862" rx="4.692" ry="4.252"/>
		
			<ellipse transform="matrix(0.9846 0.175 -0.175 0.9846 13.2622 -23.9206)" fill="#008AB2" cx="142.3" cy="63.258" rx="5.755" ry="5.214"/>
		
			<ellipse transform="matrix(0.9846 0.175 -0.175 0.9846 18.3337 -25.0119)" fill="#008AB2" cx="151.026" cy="91.477" rx="5.928" ry="6.119"/>
		
			<ellipse transform="matrix(0.9846 0.175 -0.175 0.9846 13.2131 -14.4225)" fill="#008AB2" cx="88.405" cy="67.729" rx="5.755" ry="5.214"/>
		
			<ellipse transform="matrix(0.9846 0.1749 -0.1749 0.9846 12.8614 -17.8119)" fill="#008AB2" cx="107.493" cy="64.068" rx="5.754" ry="5.215"/>
		
			<ellipse transform="matrix(0.9846 0.1749 -0.1749 0.9846 7.0791 -14.8093)" fill="#008AB2" cx="87.572" cy="32.765" rx="5.755" ry="5.215"/>
		
			<ellipse transform="matrix(0.9846 0.1751 -0.1751 0.9846 7.8866 -15.5992)" fill="#008AB2" cx="92.367" cy="36.905" rx="5.551" ry="6.375"/>
		<circle fill="#008AB2" cx="65.322" cy="37.161" r="7.426"/>
		
			<ellipse transform="matrix(0.9846 0.1749 -0.1749 0.9846 7.4515 -10.8582)" fill="#008AB2" cx="65.344" cy="36.857" rx="5.755" ry="5.215"/>
		
			<ellipse transform="matrix(0.9846 0.175 -0.175 0.9846 13.8538 -4.8394)" fill="#008AB2" cx="34.362" cy="76.118" rx="6.415" ry="6.531"/>
		<circle fill="#008AB2" cx="32.988" cy="83.861" r="6.754"/>
		
			<ellipse transform="matrix(0.9846 0.175 -0.175 0.9846 15.045 -4.6314)" fill="#008AB2" cx="33.79" cy="83.014" rx="5.755" ry="5.215"/>
		<circle fill="#008AB2" cx="33.79" cy="88.247" r="6.753"/>
		
			<ellipse transform="matrix(-0.6214 -0.7835 0.7835 -0.6214 -2.7838 169.3765)" fill="#008AB2" cx="39.53" cy="85.361" rx="4.376" ry="3.965"/>
		
			<ellipse transform="matrix(-0.6215 -0.7835 0.7835 -0.6215 -6.0657 181.7025)" fill="#008AB2" cx="40.865" cy="92.317" rx="4.205" ry="4.237"/>
		
			<ellipse transform="matrix(-0.6214 -0.7835 0.7835 -0.6214 -10.2714 190.4927)" fill="#008AB2" cx="40.89" cy="97.728" rx="2.277" ry="2.188"/>
		<path fill="#008AB2" d="M31.475,60.288c2.846-2.387,7.103-1.994,9.507,0.875c2.404,2.868,2.047,7.127-0.797,9.514
			c-2.849,2.386-7.105,1.993-9.508-0.875C28.27,66.934,28.628,62.671,31.475,60.288z"/>
		
			<ellipse transform="matrix(-0.6735 0.7392 -0.7392 -0.6735 111.4384 81.1748)" fill="#008AB2" cx="37.792" cy="65.198" rx="5.755" ry="5.214"/>
		
			<ellipse transform="matrix(-0.6735 0.7392 -0.7392 -0.6735 121.6305 98.724)" fill="#008AB2" cx="39.012" cy="76.224" rx="6.472" ry="6.493"/>
		
			<ellipse transform="matrix(-0.6735 0.7392 -0.7392 -0.6735 139.6966 153.7167)" fill="#008AB2" cx="35.9" cy="107.71" rx="5.755" ry="5.214"/>
		
			<ellipse transform="matrix(-0.6735 0.7392 -0.7392 -0.6735 136.3494 160.9608)" fill="#008AB2" cx="32.627" cy="110.593" rx="5.755" ry="5.214"/>
		
			<ellipse transform="matrix(-0.6736 0.7391 -0.7391 -0.6736 142.5676 173.426)" fill="#008AB2" cx="32.988" cy="118.195" rx="3.904" ry="3.538"/>
		
			<ellipse transform="matrix(-0.6736 0.7391 -0.7391 -0.6736 325.1161 54.7346)" fill="#008AB2" cx="150.472" cy="99.159" rx="4.329" ry="3.923"/>
		
			<ellipse transform="matrix(-0.6735 0.7392 -0.7392 -0.6735 336.0471 43.2584)" fill="#008AB2" cx="158.469" cy="95.851" rx="5.755" ry="5.215"/>
		
			<ellipse transform="matrix(-0.6735 0.7392 -0.7392 -0.6735 349.2252 69.3531)" fill="#008AB2" cx="159.295" cy="111.806" rx="3.752" ry="3.887"/>
		
			<ellipse transform="matrix(-0.6735 0.7392 -0.7392 -0.6735 345.6915 80.9724)" fill="#008AB2" cx="154.963" cy="116.831" rx="4.596" ry="4.495"/>
		
			<ellipse transform="matrix(-0.6736 0.7391 -0.7391 -0.6736 341.5743 73.377)" fill="#008AB2" cx="154.584" cy="112.115" rx="4.961" ry="4.495"/>
		
			<ellipse transform="matrix(-0.6735 0.7392 -0.7392 -0.6735 331.5253 65.244)" fill="#008AB2" cx="151.354" cy="105.837" rx="4.961" ry="4.495"/>
	</g>
	<path display="inline" fill="#008AB2" d="M36.572,123.643c0,0,1.569,13.528,2.435,18.43c1.538,8.707,4.413,12.039,4.367,17.168
		c-0.027,3.087-2.899,6.944-5.895,2.922c-0.438-0.587-2.076-9.831-2.54-15.972c-0.463-6.141-1.952-19.692-1.952-19.692
		L36.572,123.643z"/>
	<path display="inline" fill="#008AB2" d="M153,123.643c0,0-1.569,13.528-2.435,18.43c-1.537,8.707-4.411,12.039-4.366,17.168
		c0.027,3.087,2.898,6.944,5.895,2.922c0.438-0.587,2.076-9.831,2.539-15.972s1.952-18.74,1.952-18.74L153,123.643z"/>
</g>
<g id="snit_-_3" display="none">
	<path display="inline" fill="#1EC3F8" d="M29.669,123.806c0,0-0.467-21.897-1.477-29.099c-1.078-7.705,1.201-25.727,6.883-33.508
		c5.68-7.781,15.309-21.35,39.396-24.271c39.844-4.831,63.557-8.969,66.149-23.234c3.139,26.237-3.811,31.623-3.811,31.623
		s2.406,1.23,8.986,6.372c8.459,6.611,17.807,20.139,16.049,38.229c-1.686,17.344-1.205,34.094-1.688,34.147
		s-1.854-0.814-2.332-0.235c-0.48,0.579-1.871,1.602-3.119,23.75c-0.295,2.574-1.785,2.658-1.76,1.369
		c0.865-43.611-6.076-44.486-5.752-51.993c0.371-8.581,4.844-22.484-2.391-32.037c-9.557-12.619-22.736,1.804-48.74,1.804
		c-26.004,0-45.838-13.378-51.458-3.437c-5.621,9.941-2.486,25.521-2.057,29.388c1.178,10.601-6.299,20.156-5.971,30.895
		c0.301,9.846,0.711,19.627,0.434,24.012c-0.246,3.875-1.75,2.959-1.938,0c-1.775-27.76-3.83-24.36-3.83-24.36L29.669,123.806z"/>
</g>
<g id="snit_-_4" display="none">
	<g display="inline">
		<path fill="#006B86" d="M172.173,142.642c0.577-6.864,5.733-8.896,4.952-17.282c-1.652-17.712-6.831-13.989-6.928-24.087
			c-0.098-10.098,1.938-21.382-13.068-42.507c-6.067-8.541-14.181-14.586-22.816-18.761c-2.479-3.276-10.017-7.186-31.436-8.059
			c-1.845-0.122-3.612-0.18-5.277-0.18h-8.01c-17,0-38.953,5.207-53.959,26.332c-15.007,21.125-12.33,32.766-12.428,42.863
			s-13.111,15.035-9.896,32.531c1.471,8.006,5.91,10.25,6.391,17.122c0.348,4.973-4.541,11.81,2.223,20.401
			c4.402,5.593-3.399,18.267-3.399,18.267s4.683-0.78,9.425-4.376c0,0,7.417,2.455,5.865,13.569
			c-1.587,11.357-7.453,16.425-7.453,16.425s20.334-0.247,26.592-4.77c0,0,1.488,2.423-0.328,4.922c0,0,2.744-1.08,8.723-6.835
			c-0.391-0.259-0.774-0.51-1.173-0.776c-12.879-8.587-18.441-11.926-20.43-28.144c-0.498-4.063-1.23-9.967-2.049-16.851
			c-6.778,0.184-12.717-4.806-13.57-11.673l-1.672-13.429c-0.832-6.685,3.447-12.813,9.777-14.503
			c-0.508-3.48-1.272-6.688-1.964-10.268c0.221-0.201,0.439-0.4,0.674-0.613c2.135-0.523,33.7-8.31,61.926-18.313
			C113.708,86.26,124.387,69.843,129.246,58l0,0c23.137,14.241,20.399,33.711,20.715,45.384c0.249,9.213,4.815,16.574,6.734,19.276
			c-0.003,0.021-0.007,0.042-0.01,0.063c0.023,0.005,0.045,0.014,0.068,0.019c0.479,0.671,0.788,1.047,0.788,1.047l1.083,0.06
			c5.703,2.08,9.04,7.215,8.259,13.496l-1.672,13.429c-0.872,7.012-7.048,12.055-14.004,11.641
			c-0.82,6.898-1.555,12.812-2.055,16.883c-1.988,16.218-7.551,19.557-20.43,28.144c-0.225,0.149-0.438,0.289-0.659,0.436
			c6.786,3.898,17.178,2.786,17.178,2.786l-0.139-4.673c6.101,5.608,19.732,4.906,19.732,4.906s-6.756-6.401-7.453-12.421
			c-0.791-6.823,4.065-12.779,9.059-19.828c0.639,1.163,1.722,2.918,2.809,3.678c-1.197-4.389,0.869-9.006,1.811-10.787
			c0.141-0.248,0.281-0.497,0.42-0.749c0.003-0.005,0.014-0.022,0.014-0.022l-0.004,0.004c1.415-2.58,2.647-5.339,3.514-8.348
			C177.924,152.283,171.596,149.506,172.173,142.642z M132.962,46.48c0.082,0.049,0.165,0.097,0.247,0.146
			c-0.146,0.002-0.293,0.005-0.44,0.008C132.837,46.581,132.896,46.533,132.962,46.48z"/>
	</g>
</g>
<g id="snit_-_5" display="none">
	<path display="inline" fill="none" stroke="#006B86" stroke-width="3" stroke-linecap="round" stroke-miterlimit="10" d="
		M156.109,119.852"/>
	<path display="inline" fill="#965096" d="M134.538,44.052c0.551-0.505,0.852-0.784,0.852-0.784s7-13-41.495-13
		c-78.864,0-65.227,83.275-65.227,83.275s1.169-0.9,3.299-2.15c-0.999,0.645-1.708,1.16-1.708,1.16l1.969,10.29l3.682-0.549
		l1.34-13.446c-0.228,0.03-0.482,0.097-0.749,0.181c3.299-1.534,7.514-3.114,12.461-4.124c0,0,0.001,0,0.001,0
		c5.167-1.013,20.681-4.417,44.199-12.753c12.007-4.255,20.637-11.509,26.73-19.158l0,0c4.107,0,27.168,18.225,29.944,32.264
		c1.297,6.556,1.617,15.714,6.849,17.467l2.121,0.688c0,0,2.704-8.157,5.596-27.205C168.313,70.444,135.738,44.98,134.538,44.052z"
		/>
</g>
<g id="snit_-_6" display="none">
	<path display="inline" fill="#ECAD5F" d="M164.013,95.42c-0.772-2.167-4.004-7.281-4.035-6.359
		c-0.114,3.383-4.757,14.585-5.577,19.759c-1.264,7.972-1.93,13.681-2.454,40.128c-0.025,1.289,2.466,1.205,2.761-1.369
		c1.248-22.147,2.639-23.17,3.119-23.75c0.479-0.579,4.061,1.388,4.061,1.388c0.283-0.031,2.327-8.811,2.581-17.11
		C164.59,104.125,165.753,100.303,164.013,95.42z"/>
	<path display="inline" fill="#ECAD5F" d="M25.296,95.42c0.772-2.167,4.004-7.281,4.035-6.359
		c0.114,3.383,4.756,14.585,5.576,19.759c1.264,7.972,1.931,13.681,2.455,40.128c0.025,1.289-2.466,1.205-2.761-1.369
		c-1.248-22.147-2.639-23.17-3.119-23.75c-0.479-0.579-4.061,1.388-4.061,1.388c-0.283-0.031-2.327-8.811-2.581-17.11
		C24.719,104.125,23.556,100.303,25.296,95.42z"/>
</g>
<g id="snit_-_7" display="none">
	<path display="inline" fill="#965096" d="M160.25,63.002c-1.184-8.641-6.269-15.034-10.01-18.68l2.977-2.49h-5.793
		c-0.828-0.657-1.343-1-1.343-1l2.075-4.182c-1.75,0.25-8.263,0.116-8.263,0.116c1-0.75,3.951-7.353,3.951-7.353l-12.972,2.34
		c0,0,1.432-6.152,2.871-7.625c-2,0.75-16.368,5.845-16.368,5.845l3.187-8.47l-21.312,7.453c0,0,0.999-4.703,3.499-7.453
		c-3.75,1.5-16.128,7.453-16.128,7.453c0.847-1.573,0.956-5.438,2.378-7.453c-3.771,2.763-14.765,9.651-14.765,9.651v-7.676
		c0,0-0.491,0.931-3.979,3.954s-7.771,6.978-7.771,6.978s-0.138-3.489,0-6.978c-2.886,2.791-10.837,8.606-10.837,8.606v-3.721
		c0,0-5.582,6.513-8.373,9.304v-5.117c0,0-6.047,11.165-9.304,15.351s-4.884,10.699-5.828,17.444
		c-0.491,3.512-0.277,12.27,0.04,19.86c-0.093,2.511-0.021,4.74,0.22,6.456c0.05,0.356,0.098,0.755,0.146,1.175
		c0.172,3.211,0.308,5.355,0.308,5.355l0.134-0.173c0.604,9.012,0.89,21.74,0.89,21.74l1.576-0.586c0,0,2.055-2.398,3.829,25.361
		c0.188,2.959,1.692,3.875,1.938,0c0.277-4.385-0.133-14.166-0.434-24.012c-0.328-10.738,7.148-20.295,5.971-30.895
		c-0.214-1.925-0.105-5.763,0.75-10.356l15.175-19.591c8.298,0.106,20.827,3.997,37.589,3.997c26.004,0,35.18-10.422,44.736,2.197
		c7.234,9.553,6.766,19.455,6.395,28.035c-0.325,7.508,6.617,8.383,5.752,51.994c-0.025,1.289,1.465,1.205,1.76-1.369
		c1.248-22.148,2.639-24.172,3.118-24.75c0.479-0.58,1.776,0.461,2.259,0.408c0.361-0.04,0.224-8.967,0.839-20.726
		c0.004-0.076,0.008-0.152,0.012-0.229c0.013-0.229,0.025-0.462,0.038-0.693c0.174-2.802,0.527-5.584,0.785-7.372
		c0.031-0.091,0.062-0.189,0.088-0.299C163.861,87.402,161.935,75.299,160.25,63.002z"/>
</g>
</svg>
