<?xml version="1.0" encoding="utf-8"?>
<!-- Generator: Adobe Illustrator 16.0.4, SVG Export Plug-In . SVG Version: 6.00 Build 0)  -->
<!DOCTYPE svg PUBLIC "-//W3C//DTD SVG 1.1//EN" "http://www.w3.org/Graphics/SVG/1.1/DTD/svg11.dtd">
<svg version="1.1" xmlns="http://www.w3.org/2000/svg" xmlns:xlink="http://www.w3.org/1999/xlink" x="0px" y="0px" width="190px"
	 height="340px" viewBox="0 0 190 340" enable-background="new 0 0 190 340" xml:space="preserve">
<pattern  x="-405" y="51.5" width="12.428" height="7.306" patternUnits="userSpaceOnUse" id="Nieuwe_patroonstaal_8" viewBox="0 -7.306 12.428 7.306" overflow="visible">
	<g>
		<polygon fill="none" points="0,-7.306 12.428,-7.306 12.428,0 0,0 		"/>
		<path fill="#006A86" d="M7.301-5.835c0,0.421-0.343,0.763-0.764,0.763S5.774-5.414,5.774-5.835s0.342-0.763,0.763-0.763
			S7.301-6.257,7.301-5.835z"/>
		<path fill="#006A86" d="M2.952-5.835c0,0.421-0.342,0.763-0.764,0.763c-0.421,0-0.763-0.342-0.763-0.763s0.342-0.763,0.763-0.763
			C2.61-6.599,2.952-6.257,2.952-5.835z"/>
		<path fill="#006A86" d="M11.649-5.835c0,0.421-0.343,0.763-0.764,0.763c-0.422,0-0.764-0.342-0.764-0.763s0.342-0.763,0.764-0.763
			C11.307-6.599,11.649-6.257,11.649-5.835z"/>
		<path fill="#006A86" d="M7.301-2.277c0,0.421-0.343,0.763-0.764,0.763S5.774-1.856,5.774-2.277s0.342-0.763,0.763-0.763
			S7.301-2.699,7.301-2.277z"/>
		<path fill="#006A86" d="M2.952-2.277c0,0.421-0.342,0.763-0.764,0.763c-0.421,0-0.763-0.342-0.763-0.763s0.342-0.763,0.763-0.763
			C2.61-3.041,2.952-2.699,2.952-2.277z"/>
		<path fill="#006A86" d="M11.649-2.277c0,0.421-0.343,0.763-0.764,0.763c-0.422,0-0.764-0.342-0.764-0.763s0.342-0.763,0.764-0.763
			C11.307-3.041,11.649-2.699,11.649-2.277z"/>
	</g>
</pattern>
<g id="BODY" display="none">
	<path display="inline" fill="#006A86" d="M128.164,275.002c-0.188-2.041-0.857-5.336-0.857-5.336s2.562-19.166,2.307-22.791
		c-0.254-3.625,1.222-25.625-3.718-29.25s-10.944-5.879-13.485-9.129c-2.542-3.25-32.934-3.25-35.476,0
		c-2.541,3.25-8.547,5.504-13.486,9.129s-3.464,25.625-3.718,29.25c-0.255,3.625,2.306,22.791,2.306,22.791s-0.67,3.296-0.857,5.336
		c-0.188,2.04,1.888,5.9,5.846,5.9c4.013,0,4.875-4.058,4.875-5.921c0-1.861-1.762-5.479-1.762-5.479
		c-0.763-5.479-1.242-24.877-0.987-28.877c0.254-4,0.397-7.25,3.066-7s4.211,13.875,4.846,17.75
		C77.697,255.25,79.746,265,79.746,265l0.012,0.001c0.006,0.027,2.702,11.447,3.591,18.886c0.342,2.853,1.558,15.843,2.235,20.795
		c0.001,0.017-0.006,0.028-0.004,0.045c0.065,0.711-0.23,1.667-1.21,2.209c-1.146,0.634-1.914,0.874-1.914,2.579
		c0,0.74,0.479,1.331,2.33,1.331c1.505,0,5.154,0,6.35,0c1.24,0,1.665-1.138,1.665-2.062c0-1.393-0.614-1.777-0.614-3.783
		c0,0,0,0,0,0c0.41-5.78-0.147-19.162-0.147-21.113c0-2.138,0.481-11.709,2.633-11.726c2.153,0.017,2.633,9.588,2.633,11.726
		c0,1.951-0.557,15.333-0.147,21.113c0,0,0,0,0,0.001c0,2.006-0.614,2.391-0.614,3.783c0,0.925,0.425,2.062,1.665,2.062
		c1.195,0,4.845,0,6.35,0c1.851,0,2.33-0.59,2.33-1.331c0-1.705-0.768-1.945-1.914-2.579c-0.979-0.542-1.275-1.498-1.21-2.209
		c0.002-0.017-0.005-0.029-0.005-0.045c0.679-4.953,1.895-17.942,2.236-20.795c0.89-7.439,3.585-18.86,3.592-18.886l0.011-0.001
		c0,0,2.049-9.75,2.685-13.625c0.635-3.875,2.176-17.5,4.845-17.75s2.812,3,3.065,7c0.255,4-0.225,23.397-0.987,28.877
		c0,0-1.763,3.618-1.763,5.479c0,1.863,0.862,5.921,4.875,5.921C126.276,280.902,128.353,277.042,128.164,275.002z"/>
	<path display="inline" opacity="0.05" fill="#1D1D1B" d="M112.41,208.496c-2.542-3.25-32.934-3.25-35.476,0
		c-1.437,1.838-2.622,3.358-6.012,4.987c8.465,6.341,13.826,9.774,23.518,9.774c9.762,0,15.157-3.482,23.698-9.91
		C114.855,211.769,113.807,210.283,112.41,208.496z"/>
</g>
<g id="bottom_-_3" display="none">
	<path display="inline" fill="#78B47A" d="M94.667,262.441c-5.205,0-15.91-0.442-15.91-0.442s1.814,18.714,1.98,29.8
		c3.8,2.109,11.04,1.407,13.173,1.083c0.004-2.454-0.005-8.35-0.005-8.995c0-2.138-0.067-2.722,0.767-2.722
		c0.539,0,0.494,0.583,0.494,2.722c0,0.641-0.017,6.519-0.023,8.952c1.817,0.294,10.493,1.169,14.468-1.047
		c-0.6-9.735,0.978-29.793,0.978-29.793S99.871,262.441,94.667,262.441z"/>
</g>
<g id="bottom_-_2" display="none">
	<path display="inline" fill="#C95B50" d="M94.667,263.441c-5.205,0-15.727-1.088-15.727-1.088s3.519,14.085,4.41,21.533
		c0.374,3.117,1.423,12.958,1.801,22.369c1.188,0.489,4.508,1.458,7.274,0.269c0.528-5.256-0.038-20.594-0.038-22.638
		c0-2.138,0.88-6.724,2.286-6.724c1.224,0,1.936,4.585,1.936,6.724c0,2.043-0.156,17.382,0.372,22.638
		c2.768,1.189,6.053,0.255,7.239-0.234c0.422-9.211,1.402-19.287,1.776-22.404c0.891-7.448,4.409-21.533,4.409-21.533
		S99.871,263.441,94.667,263.441z"/>
</g>
<g id="bottom_-_1" display="none">
	<path display="inline" fill="#006A86" d="M94.667,262.441c-5.205,0-15.91-0.442-15.91-0.442s1.701,14.44,2.591,21.888
		c0.374,3.117,2.596,19.336,3.436,22.95c1.188,0.489,4.917,1.115,7.684-0.074c0.528-5.256,1.437-20.833,1.437-22.876
		c0-2.138-0.067-2.722,0.767-2.722c0.539,0,0.494,0.583,0.494,2.722c0,2.043,0.832,17.621,1.36,22.876
		c2.768,1.189,6.848,0.562,8.034,0.073c0.84-3.614,3.063-19.833,3.438-22.95c0.891-7.448,2.591-21.888,2.591-21.888
		S99.871,262.441,94.667,262.441z"/>
</g>
<g id="feet_-_4" display="none">
	<path display="inline" fill="#008AB2" d="M84.991,306.256c-1.866,0.204-3.215,0.904-3.703,2.298s-0.364,2.292,0.129,2.292
		c0.561,0,9.958,0,10.724,0s0.754-1.352,0.696-2.062s0.087-2.541-0.414-2.259c0,0-2.101,0.382-3.308,0.318
		S84.991,306.256,84.991,306.256z"/>
	<path display="inline" fill="#008AB2" d="M104.415,306.256c1.865,0.204,3.215,0.904,3.703,2.298
		c0.487,1.394,0.363,2.292-0.13,2.292c-0.562,0-9.958,0-10.725,0s-0.754-1.352-0.696-2.062s-0.087-2.541,0.413-2.259
		c0,0,2.102,0.382,3.309,0.318S104.415,306.256,104.415,306.256z"/>
	<path display="inline" fill="#1EC3F8" d="M92.862,310.647c0,0.24-0.195,0.436-0.436,0.436H81.42c-0.241,0-0.436-0.195-0.436-0.436
		l0,0c0-0.241,0.195-0.437,0.436-0.437h11.005C92.667,310.211,92.862,310.406,92.862,310.647L92.862,310.647z"/>
	<circle display="inline" fill="#1EC3F8" cx="90.685" cy="308.551" r="0.978"/>
	<path display="inline" fill="#1EC3F8" d="M108.424,310.647c0,0.24-0.195,0.436-0.437,0.436H96.981c-0.24,0-0.436-0.195-0.436-0.436
		l0,0c0-0.241,0.195-0.437,0.436-0.437h11.006C108.229,310.211,108.424,310.406,108.424,310.647L108.424,310.647z"/>
	<circle display="inline" fill="#1EC3F8" cx="98.414" cy="308.551" r="0.978"/>
</g>
<g id="feet_-_3" display="none">
	<path display="inline" fill="#ECAD5F" d="M84.991,306.256c-1.866,0.204-3.215,0.904-3.703,2.298s-0.364,2.292,0.129,2.292
		c0.561,0,9.958,0,10.724,0s0.754-1.352,0.696-2.062s0.087-2.541-0.414-2.259c0,0-2.101,0.382-3.308,0.318
		S84.991,306.256,84.991,306.256z"/>
	<path display="inline" fill="#ECAD5F" d="M104.415,306.256c1.865,0.204,3.215,0.904,3.703,2.298
		c0.487,1.394,0.363,2.292-0.13,2.292c-0.562,0-9.958,0-10.725,0s-0.754-1.352-0.696-2.062s-0.087-2.541,0.413-2.259
		c0,0,2.102,0.382,3.309,0.318S104.415,306.256,104.415,306.256z"/>
	<path display="inline" fill="#008AB2" d="M92.862,310.647c0,0.24-0.195,0.436-0.436,0.436H81.42c-0.241,0-0.436-0.195-0.436-0.436
		l0,0c0-0.241,0.195-0.437,0.436-0.437h11.005C92.667,310.211,92.862,310.406,92.862,310.647L92.862,310.647z"/>
	<circle display="inline" fill="#008AB2" cx="90.685" cy="308.551" r="0.978"/>
	<path display="inline" fill="#008AB2" d="M108.424,310.647c0,0.24-0.195,0.436-0.437,0.436H96.981c-0.24,0-0.436-0.195-0.436-0.436
		l0,0c0-0.241,0.195-0.437,0.436-0.437h11.006C108.229,310.211,108.424,310.406,108.424,310.647L108.424,310.647z"/>
	<circle display="inline" fill="#008AB2" cx="98.414" cy="308.551" r="0.978"/>
</g>
<g id="feet_-_2" display="none">
	<path display="inline" fill="#006A86" d="M108.952,310.37c0,0,0.183,0.358,0.232,0.677c0.05,0.318-0.661,0.597-3.252,0.597
		c-5.176,0-10.474-1.067-10.474-1.067v-1.269C95.458,309.308,108.207,310.37,108.952,310.37z"/>
	<path display="inline" fill="#006A86" d="M102.623,310.365c0,0,0.627-2.321,1.314-3.021c0.688-0.699,0.988-1.176,0.601-1.489
		c-0.474-0.383-1.557,0.775-1.936,1.577c-0.38,0.802-1.215,2.566-1.215,2.566L102.623,310.365z"/>
	<path display="inline" fill="#006A86" d="M106.883,309.308c0,0,0.122,0.593-0.264,0.972s2.652,0.842,2.333,0.09
		S106.883,309.308,106.883,309.308z"/>
	<path display="inline" fill="#006A86" d="M96.549,308.582c0,0-1.09,0.114-1.09,0.726s1.219,0.5,1.16,0.136
		S96.549,308.582,96.549,308.582z"/>
	<path display="inline" fill="#006A86" d="M80.387,310.37c0,0-0.183,0.358-0.232,0.677c-0.05,0.318,0.661,0.597,3.252,0.597
		c5.176,0,10.474-1.067,10.474-1.067v-1.269C93.88,309.308,81.132,310.37,80.387,310.37z"/>
	<path display="inline" fill="#006A86" d="M86.716,310.365c0,0-0.627-2.321-1.314-3.021c-0.688-0.699-0.988-1.176-0.601-1.489
		c0.474-0.383,1.557,0.775,1.936,1.577c0.38,0.802,1.215,2.566,1.215,2.566L86.716,310.365z"/>
	<path display="inline" fill="#006A86" d="M82.456,309.308c0,0-0.122,0.593,0.264,0.972s-2.652,0.842-2.333,0.09
		S82.456,309.308,82.456,309.308z"/>
	<path display="inline" fill="#006A86" d="M92.79,308.582c0,0,1.09,0.114,1.09,0.726s-1.219,0.5-1.16,0.136
		S92.79,308.582,92.79,308.582z"/>
</g>
<g id="feet_-_3_kopie" display="none">
	<path display="inline" fill="#C95B50" d="M84.991,306.256c-1.866,0.204-3.215,0.904-3.703,2.298s-0.364,2.292,0.129,2.292
		c0.561,0,9.958,0,10.724,0s0.754-1.352,0.696-2.062s0.087-2.541-0.414-2.259c0,0-2.101,0.382-3.308,0.318
		S84.991,306.256,84.991,306.256z"/>
	<path display="inline" fill="#C95B50" d="M104.415,306.256c1.865,0.204,3.215,0.904,3.703,2.298
		c0.487,1.394,0.363,2.292-0.13,2.292c-0.562,0-9.958,0-10.725,0s-0.754-1.352-0.696-2.062s-0.087-2.541,0.413-2.259
		c0,0,2.102,0.382,3.309,0.318S104.415,306.256,104.415,306.256z"/>
</g>
<g id="top_-_5" display="none">
	<path display="inline" fill="#1EC3F8" d="M120.77,208.625h-1.445H69.835H68.39c-10.298,0-12.013,8.244-11.553,23.248
		c0.455,14.849,3.305,38.828,3.305,38.828l10.591-0.195c0,0-0.97-28.85-0.794-30.295c0.464-3.767,1.691-3.184,1.691-3.184
		l3.272,25.875c0,0,2.482,6.431,19.678,6.431c17.195,0,19.679-6.431,19.679-6.431l3.271-25.875c0,0,1.227-0.583,1.691,3.184
		c0.178,1.446-0.794,30.295-0.794,30.295l10.589,0.195c0,0,2.849-23.979,3.308-38.828
		C132.784,216.869,131.068,208.625,120.77,208.625z"/>
	<path display="inline" fill="#FFFFFF" d="M78.441,208.625c0.016,0.099,0.022,0.189,0.041,0.29
		c2.618,14.894,16.194,36.132,16.194,36.132c0.083-0.094,13.571-21.238,16.19-36.132c0.019-0.101,0.024-0.191,0.04-0.29H78.441z"/>
	<path display="inline" fill="#219DC8" d="M87.34,243.332c0,0-5.608-5.925-7.811-9.796c-0.535-0.94-1.162-1.908-1.856-3.012
		c-0.17-0.27,0.775-2.078,0.598-2.365c-0.127-0.206-1.838,0.051-1.968-0.166c-1.787-2.961-3.271-10.173-4.004-13.506
		c-1.724-7.836-2.006-6.715,0.965-0.317c1.084,2.335,2.453,9.497,3.744,12.952c0.11,0.295,2.488-0.099,2.641,0.18
		c0.13,0.239-1.021,2.99-0.889,3.23C81.699,235.858,84.786,240.795,87.34,243.332z"/>
	<path display="inline" fill="#219DC8" d="M101.424,243.332c0,0,5.608-5.925,7.811-9.796c0.535-0.94,1.162-1.908,1.856-3.012
		c0.17-0.27-0.775-2.078-0.598-2.365c0.127-0.206,1.838,0.051,1.968-0.166c1.787-2.961,3.271-10.173,4.004-13.506
		c1.724-7.836,2.006-6.715-0.965-0.317c-1.084,2.335-2.452,9.497-3.744,12.952c-0.11,0.295-2.488-0.099-2.641,0.18
		c-0.13,0.239,1.021,2.99,0.889,3.23C107.064,235.858,103.978,240.795,101.424,243.332z"/>
	<circle display="inline" fill="#006A86" cx="94.667" cy="253.284" r="1.191"/>
	<circle display="inline" fill="#006A86" cx="94.667" cy="259.398" r="1.191"/>
	<path display="inline" fill="#006A86" d="M95.164,222.611c0,0-4.307-2.816-6.14-2.816c-1.469,0-1.821,1.17-1.821,2.653
		c0,1.484,0.524,5.088,2.186,5.088s5.775-3.871,5.775-3.871V222.611z"/>
	<path display="inline" fill="#006A86" d="M94.17,222.611c0,0,4.307-2.816,6.139-2.816c1.468,0,1.819,1.17,1.819,2.653
		c0,1.484-0.524,5.088-2.185,5.088c-1.659,0-5.774-3.871-5.774-3.871V222.611z"/>
</g>
<g id="top_-_4" display="none">
	<path display="inline" fill="#006A86" d="M120.77,208.625h-1.445H69.835H68.39c-10.298,0-12.013,8.244-11.553,23.248
		c0.455,14.849,4.305,37.827,4.305,37.827l10.591-0.195c0,0-1.971-27.849-1.794-29.295c0.464-3.767,1.691-3.184,1.691-3.184
		l3.272,25.875c0,0,2.482,6.431,19.678,6.431c17.195,0,19.679-6.431,19.679-6.431l3.271-25.875c0,0,1.227-0.583,1.691,3.184
		c0.178,1.446-1.795,29.295-1.795,29.295l10.589,0.195c0,0,3.85-22.978,4.309-37.827
		C132.784,216.869,131.068,208.625,120.77,208.625z"/>
	<path display="inline" fill="#FFFFFF" d="M78.441,208.625c0.016,0.099,0.022,0.189,0.041,0.29
		c2.618,14.894,16.194,36.132,16.194,36.132c0.083-0.094,13.571-21.238,16.19-36.132c0.019-0.101,0.024-0.191,0.04-0.29H78.441z"/>
	<circle display="inline" fill="#006A86" cx="94.667" cy="253.284" r="1.191"/>
	<circle display="inline" fill="#006A86" cx="94.667" cy="259.398" r="1.191"/>
	<path display="inline" fill="#006A86" d="M98.804,220.304c0-4.236-4.106-9.979-4.106-9.979l-0.056-0.016
		c0,0-4.106,5.744-4.106,9.98c0,1.143,1.301,3.313,2.542,4.013c-0.627,1.519-1.624,9.262-2.438,14.949
		c2.322,4.115,4.035,6.796,4.035,6.796c0.029-0.033,1.729-2.691,4.028-6.764c-0.813-5.691-1.814-13.444-2.442-14.966
		C97.502,223.617,98.804,221.447,98.804,220.304z"/>
</g>
<g id="top_-_3" display="none">
	<g display="inline">
		<path fill="#219DC8" d="M120.77,208.625h-1.445H69.835H68.39c-10.298,0-12.013,8.244-11.553,23.248
			c0.455,14.849,3.305,38.828,3.305,38.828l10.591-0.195c0,0-0.97-28.85-0.794-30.295c0.464-3.767,1.691-3.184,1.691-3.184
			l3.272,25.875c0,0,2.482,6.431,19.678,6.431c17.195,0,19.679-6.431,19.679-6.431l3.271-25.875c0,0,1.227-0.583,1.691,3.184
			c0.178,1.446-0.794,30.295-0.794,30.295l10.589,0.195c0,0,2.849-23.979,3.308-38.828
			C132.784,216.869,131.068,208.625,120.77,208.625z"/>
		<path fill="#FFFFFF" d="M78.441,208.625c0.016,0.099,0.022,0.189,0.041,0.29c2.618,14.894,16.194,36.132,16.194,36.132
			c0.083-0.094,13.571-21.238,16.19-36.132c0.019-0.101,0.024-0.191,0.04-0.29H78.441z"/>
		<path fill="#006A86" d="M101.701,242.269c0,0,5.608-5.925,7.811-9.796c2.037-3.58,5.999-8.698,9.351-19.119
			c2.457-7.638-0.037-1.153-3.008,5.245S106.114,237.886,101.701,242.269z"/>
		<path fill="#006A86" d="M87.59,242.269c0,0-5.608-5.925-7.811-9.796c-2.037-3.58-5.999-8.698-9.351-19.119
			c-2.457-7.638,0.037-1.153,3.008,5.245S83.177,237.886,87.59,242.269z"/>
		<circle fill="#006A86" cx="94.667" cy="253.284" r="1.191"/>
		<circle fill="#006A86" cx="94.667" cy="259.398" r="1.191"/>
		<path fill="#006A86" d="M98.804,220.304c0-4.236-4.106-9.979-4.106-9.979l-0.056-0.016c0,0-4.106,5.744-4.106,9.98
			c0,1.143,1.301,3.313,2.542,4.013c-0.627,1.519-1.624,8.262-2.438,13.948c2.322,4.115,4.035,6.796,4.035,6.796
			c0.029-0.033,1.729-2.691,4.028-6.764c-0.813-5.691-1.814-12.443-2.442-13.966C97.502,223.617,98.804,221.447,98.804,220.304z"/>
	</g>
</g>
<g id="top_-_2" display="none">
	<path display="inline" fill="#F5F5F5" d="M109.556,211.777h-2.841c0,11.171,0.22,20.658-12.043,20.658
		c-12.691,0-11.796-9.179-12.047-20.658h-3.841c0,0,5.628,32.908-3.423,32.908c0.512,3.272,1.713,24.641,1.713,24.641
		c9.577,3.08,17.594,2.944,17.599,2.944s8.023,0.136,17.6-2.944c0,0,1.904-22.672,1.904-24.812
		C107.434,244.515,109.556,211.777,109.556,211.777z"/>
</g>
<g id="top_-_3_1_" display="none">
	<path display="inline" fill="#1EC3F8" d="M125.896,217.625c-4.939-3.625-10.944-5.879-13.485-9.129
		c-2.542-3.25-32.934-3.25-35.476,0c-2.541,3.25-9.547,5.504-14.487,9.129c-2.561,1.879-3.396,8.698-3.644,15.335l11.146,2.101
		c0.422-0.99,1.104-1.545,2.266-1.436c2.669,0.25,4.211,13.875,4.846,17.75c0.41,2.497,1.039,7.428,1.696,10.624
		c0,0,4.512,1.815,15.91,1.815s15.922-1.815,15.922-1.815c0.656-3.195,1.285-8.127,1.694-10.624c0.635-3.875,2.176-17.5,4.845-17.75
		c1.419-0.133,2.12,0.729,2.508,2.162l10.952-1.304C130.412,227.399,128.653,219.649,125.896,217.625z"/>
</g>
<g id="top_-_2_1_" display="none">
	<path display="inline" fill="#1EC3F8" d="M132.324,231.873c0.46-15.004-1.256-23.248-11.555-23.248h-1.445H69.835H68.39
		c-10.298,0-12.013,8.244-11.553,23.248c0.041,1.32,0.101,2.715,0.175,4.157l12.905,5.236c-0.001-0.554,0.005-0.922,0.021-1.056
		c0.464-3.767,1.691-3.184,1.691-3.184l3.272,25.875c0,0,2.482,6.431,19.678,6.431c17.195,0,19.679-6.431,19.679-6.431l3.271-25.875
		c0,0,1.227-0.583,1.691,3.184c0.014,0.109,0.02,0.39,0.021,0.787l12.745-2.161C132.139,236.39,132.258,234.033,132.324,231.873z"/>
</g>
<g id="top_-_1" display="none">
	<path display="inline" fill="#1EC3F8" d="M120.77,208.625h-1.445H69.835H68.39c-10.298,0-12.013,8.244-11.553,23.248
		c0.455,14.849,3.305,38.828,3.305,38.828l10.591-0.195c0,0-0.97-28.85-0.794-30.295c0.464-3.767,1.691-3.184,1.691-3.184
		l3.272,25.875c0,0,2.482,6.431,19.678,6.431c17.195,0,19.679-6.431,19.679-6.431l3.271-25.875c0,0,1.227-0.583,1.691,3.184
		c0.178,1.446-0.794,30.295-0.794,30.295l10.589,0.195c0,0,2.849-23.979,3.308-38.828
		C132.784,216.869,131.068,208.625,120.77,208.625z"/>
</g>
<g id="BALD" display="none">
	<path display="inline" fill="#006A86" d="M156.686,122.724c1.4-9.476,4.689-16.967,3.145-35.637
		c-1.023-12.361-11.012-39.508-44.454-47.646c-6.543-2.328-13.586-3.607-20.928-3.607c-7.344,0-14.385,1.279-20.929,3.607
		c-33.442,8.139-43.431,35.285-44.454,47.646c-1.552,18.748,1.771,26.224,3.162,35.756c-6.33,1.689-10.609,7.818-9.777,14.503
		l1.672,13.429c0.854,6.867,6.792,11.856,13.57,11.673c0.818,6.884,1.551,12.787,2.049,16.851
		c1.988,16.218,7.551,19.557,20.43,28.144c12.879,8.586,21.467,13.356,34.277,13.356s21.396-4.771,34.275-13.356
		c12.879-8.587,18.441-11.926,20.43-28.144c0.5-4.07,1.234-9.984,2.055-16.883c6.956,0.414,13.132-4.629,14.004-11.641l1.672-13.429
		C167.733,130.512,163.249,124.246,156.686,122.724z"/>
</g>
<g id="FACE" display="none">
	<circle display="inline" opacity="0.7" fill="#000100" cx="78.487" cy="135.092" r="4.252"/>
	<circle display="inline" opacity="0.7" fill="#000100" cx="111.927" cy="135.092" r="4.252"/>
	<g display="inline" opacity="0.2">
		<path fill="#1D1D1B" d="M94.899,178.101h-0.884c-7.701,0-11.393-3.288-11.546-3.428c-0.612-0.558-0.655-1.507-0.097-2.119
			c0.558-0.612,1.507-0.656,2.119-0.097c0.021,0.018,3.073,2.644,9.524,2.644h0.884c6.445,0,9.495-2.618,9.524-2.644
			c0.61-0.558,1.561-0.516,2.119,0.097c0.558,0.612,0.515,1.561-0.098,2.119C106.292,174.812,102.6,178.101,94.899,178.101z"/>
	</g>
</g>
<g id="brd_-_1" display="none">
	<pattern  id="SVGID_1_" xlink:href="#Nieuwe_patroonstaal_8" patternTransform="matrix(1 0 0 1 0 51.1396)">
	</pattern>
	<path display="inline" fill="url(#SVGID_1_)" d="M126.435,179.02c-1.562,8.854-8.594,21.616-16.928,24.481
		c-8.152,2.802-14.78,3.36-15.067,3.384c0-0.018,0-0.025,0-0.025s-6.758-0.521-15.092-3.386
		c-8.334-2.865-15.367-15.628-16.929-24.481c-1.562-8.854-14.194-25.196-27.346-36.461c0,0,0.671,9.331,1.674,19.616
		c0.244,0.007,0.486,0.021,0.732,0.015c0.818,6.882,1.551,12.784,2.049,16.847c1.987,16.213,7.549,19.552,20.424,28.137
		c12.876,8.583,21.462,13.353,34.269,13.353c12.808,0,21.391-4.77,34.267-13.353c12.876-8.585,18.437-11.924,20.425-28.137
		c0.5-4.069,1.234-9.982,2.055-16.879c0.382,0.023,0.763,0.023,1.142,0.014c1.002-10.271,1.672-19.585,1.672-19.585
		C140.628,153.823,127.997,170.165,126.435,179.02z"/>
	<pattern  id="SVGID_2_" xlink:href="#Nieuwe_patroonstaal_8" patternTransform="matrix(1 0 0 1 0 51.1396)">
	</pattern>
	<path display="inline" fill="url(#SVGID_2_)" d="M94.417,178.855c-16.056,0-39.818,9.557-39.818,20.546
		c0,10.992,39.818,12.425,39.818,12.425V178.855z"/>
	<pattern  id="SVGID_3_" xlink:href="#Nieuwe_patroonstaal_8" patternTransform="matrix(1 0 0 1 0 51.1396)">
	</pattern>
	<path display="inline" fill="url(#SVGID_3_)" d="M94.45,178.855c16.057,0,39.819,9.557,39.819,20.546
		c0,10.992-39.819,12.425-39.819,12.425V178.855z"/>
	<pattern  id="SVGID_4_" xlink:href="#Nieuwe_patroonstaal_8" patternTransform="matrix(1 0 0 1 0 51.1396)">
	</pattern>
	<path display="inline" fill="url(#SVGID_4_)" d="M125.974,172.449c0,0-0.389-1.479-1.436-3.845c0-0.002-0.002-0.008-0.002-0.008
		h-0.001c-0.993-2.245-2.577-5.287-4.999-8.643c-6.111-8.465-14.561-8.199-25.433-8.199c-10.872,0-19.069-0.266-25.181,8.199
		c-4.976,6.894-6.437,12.495-6.437,12.495l0.506,0.414c-0.557,3.202-0.64,7.443,1.966,9.896c4.581,4.315,6.056,1.713,8.574-3.427
		l-0.12-0.138c1.517-3.293,5.127-10.72,7.823-12.955c2.927-2.427,7.997-3.407,12.995-3.407c4.999,0,10.068,0.98,12.996,3.407
		c3.499,2.901,8.542,14.553,8.542,14.553l0.053-0.043c2.125,4.155,3.73,5.905,7.866,2.01c2.642-2.487,2.52-6.811,1.942-10.028
		L125.974,172.449z"/>
</g>
<g id="brd_-_2" display="none">
	<path display="inline" fill="#008AB2" d="M105.311,213.932c-3.585-0.334-11.166,0-11.166,0s-7.582-0.334-11.166,0
		c-3.584,0.334-3.783,4.599-3.783,4.599c2.939,3.204,10.563,4.686,14.949,4.732s9.993,0.224,14.948-4.732
		C109.093,218.531,108.896,214.266,105.311,213.932z"/>
	<path display="inline" fill="#008AB2" d="M112.203,217.062c0,0-3.925,3.375-7.246,4.1c-3.323,0.725-1.784-8.342,1.357-7.01
		C109.458,215.483,112.203,217.062,112.203,217.062z"/>
	<path display="inline" fill="#008AB2" d="M76.764,217.062c0,0,3.925,3.375,7.246,4.1c3.323,0.725,0.45-8.025-2.691-6.693
		C78.175,215.8,76.764,217.062,76.764,217.062z"/>
</g>
<g id="brd_-_3" display="none">
	<path display="inline" fill="#965096" d="M97.397,183.622c-1.509,0-2.4,0-2.4,0s-0.891,0-2.402,0c-1.511,0-6.5,0.385-6.5,2.577
		c0,2.191,1.57,4.711,4.311,5.554c2.738,0.843,3.158,1.364,4.592,1.364c1.432,0,1.852-0.521,4.592-1.364
		c2.738-0.843,4.309-3.363,4.309-5.554C103.898,184.007,98.908,183.622,97.397,183.622z"/>
</g>
<g id="brd_-_4" display="none">
	<path display="inline" fill="#C95B50" d="M153.853,132.09c-0.72,0-2.558,4.183-3.634,6.789c-1.491,3.766-3.047,7.431-4.357,10.022
		c-3.422,6.771-13.543,14.639-15.279,19.248s-3.078,7.815-5.562,7.504s-1.242-6.367-8.074-15.84
		c-6.748-9.355-19.67-9.303-22.383-9.3c-2.713-0.003-15.634-0.056-22.382,9.3c-6.833,9.473-5.59,15.529-8.075,15.84
		s-3.826-2.896-5.562-7.504s-11.857-12.477-15.28-19.248c-1.444-2.856-3.186-7.016-4.812-11.178
		c-1.078-2.527-2.527-5.633-3.148-5.633c-1.046,0-0.772,3.189-0.582,5.217c0.004,0.042-0.019,0.062-0.022,0.097
		c1.021,10.9,2.267,23.426,3.006,29.552c1.087,9.007,0.622,20.188,6.988,27.797s24.954,19.587,35.717,23.759
		c6.794,2.634,13.286,2.652,14.151,2.642c0.866,0.01,7.356-0.008,14.151-2.642c10.763-4.172,29.351-16.15,35.717-23.759
		s5.901-18.79,6.988-27.797c0.742-6.148,1.995-18.743,3.018-29.67C154.627,135.258,154.895,132.09,153.853,132.09z M114.89,184.865
		c-2.422,1.214-9.67,5.176-20.327,5.203c-10.657-0.026-17.905-3.989-20.327-5.203c-1.97-0.987-4.695-3.157-3.608-5.797
		s7.765-11.181,12.853-14.729c3.042-2.121,8.146-2.483,11.082-2.435c2.937-0.048,8.039,0.314,11.082,2.435
		c5.088,3.547,11.766,12.088,12.854,14.729C119.584,181.708,116.859,183.878,114.89,184.865z"/>
</g>
<g id="snit_-_1" display="none">
	<path display="inline" fill="#008AB2" d="M29.88,123.712c0,0-0.468-20.896-1.477-28.098c-1.079-7.705,1.201-25.727,6.882-33.508
		s16.31-22.351,40.397-25.271c19.19-2.326,33.914-2.182,45.794,1.242c12.786,3.686,21.119,11.854,24.53,14.52
		c8.459,6.611,17.807,20.139,16.049,38.229c-1.687,17.344-1.279,33.268-1.762,33.32s-1.779-0.988-2.259-0.408
		c-0.479,0.578-1.87,2.602-3.118,24.75c-0.295,2.574-1.785,2.658-1.76,1.369c0.865-43.611-6.077-44.486-5.752-51.994
		c0.371-8.58,4.844-22.484-2.391-32.037c-9.557-12.619-22.736,1.805-48.74,1.805s-45.838-13.379-51.458-3.438
		s-2.485,25.521-2.056,29.389c1.178,10.6-6.299,20.156-5.971,30.895c0.301,9.846,0.711,19.627,0.434,24.012
		c-0.246,3.875-1.75,2.959-1.938,0c-1.774-27.76-3.829-25.361-3.829-25.361L29.88,123.712z"/>
</g>
<g id="snit__-_2">
	<path fill="#008AB2" d="M162.874,81.833c0.268-0.365,0.467-0.788,0.551-1.263c0.261-1.467-0.575-2.872-1.918-3.387
		c0.634-0.676,1.083-1.513,1.252-2.466c0.423-2.378-1.011-4.691-3.329-5.705c0.452-0.45,0.776-1.034,0.896-1.706
		c0.306-1.717-0.829-3.352-2.545-3.736c0.189-0.447,0.338-0.919,0.427-1.419c0.612-3.443-1.579-6.711-4.892-7.301
		c-0.751-0.133-1.493-0.111-2.202,0.033c0.193-0.376,0.352-0.775,0.43-1.212c0.429-2.411-1.216-4.718-3.672-5.154
		c-0.588-0.104-1.168-0.086-1.719,0.026c0.337-3.026-1.635-5.816-4.561-6.337c-1.584-0.282-3.133,0.16-4.339,1.09
		c-0.112-1.207-1.021-2.245-2.288-2.471c-0.235-0.042-0.467-0.044-0.694-0.028c-0.277-3.15-2.622-5.853-5.884-6.432
		c-2.479-0.44-4.885,0.454-6.488,2.162c-1.09-1.611-2.924-2.506-4.755-2.114c-0.258,0.055-0.498,0.147-0.733,0.247
		c-0.635-2.49-2.665-4.508-5.358-4.986c-2.472-0.439-4.864,0.53-6.366,2.326c-0.983-1.181-2.371-2.036-4.003-2.326
		c-2.085-0.37-4.114,0.26-5.6,1.544c-0.488-0.282-1.024-0.484-1.6-0.587c-0.267-0.047-0.532-0.064-0.795-0.067
		c-0.803-1.465-2.319-2.597-4.203-2.932c-3.109-0.553-6.038,1.271-6.566,4.079c-1.439-1.149-3.245-1.84-5.212-1.84
		c-2.257,0-4.303,0.908-5.824,2.378c-1.072-1.214-2.542-2.091-4.26-2.396c-3.693-0.657-7.223,1.54-8.351,5.006
		c-1.723,0.571-3.308,1.556-4.6,2.913c-1.874-0.25-3.842,0.278-5.37,1.629c-1.604,1.418-2.369,3.429-2.266,5.414
		c-2.763-0.754-5.811,0.314-7.448,2.848c-0.797,1.231-1.135,2.625-1.07,3.985c-1.391,0.044-2.751,0.761-3.577,2.039
		c-1.088,1.682-0.894,3.799,0.315,5.221c-0.993,0.23-1.947,0.683-2.78,1.382c-2.847,2.384-3.205,6.646-0.799,9.514
		c0.187,0.223,0.388,0.425,0.595,0.618c-1.635,0.925-2.868,2.561-3.225,4.575c-0.239,1.346-0.054,2.667,0.457,3.824
		c-1.096,0.973-1.888,2.305-2.164,3.861c-0.288,1.619,0.028,3.206,0.785,4.53c-0.25,1.612,0.077,3.307,1.028,4.749
		c0.005,0.306,0.013,0.605,0.025,0.896c-0.423,0.58-0.723,1.25-0.854,1.989c-0.292,1.645,0.305,3.258,1.466,4.434
		c0.052,0.623,0.102,1.276,0.15,1.956c0,0.007,0,0.013,0,0.02c-0.828,0.726-1.416,1.691-1.616,2.816
		c-0.239,1.346,0.12,2.669,0.891,3.75c-1.545,2.293-1.379,5.279,0.538,7.027c0.274,0.25,0.572,0.459,0.885,0.634
		c0.017,0.474,0.032,0.937,0.047,1.385c-0.552,1.167-0.519,2.486,0.108,3.508c0.059,2.048,0.088,3.339,0.088,3.339l1.576-0.586
		c0,0,0.665-0.768,1.563,3.665c0.217,1.983,1.497,13.786,1.92,19.4c0.464,6.141,2.103,15.385,2.54,15.972
		c2.995,4.022,5.867,0.165,5.895-2.922c0.046-5.129-2.829-8.461-4.367-17.168c-0.648-3.671-1.691-12.183-2.174-16.224
		c-0.015-0.458-0.029-0.915-0.043-1.373c-0.097-3.163,0.491-6.221,1.328-9.236c0.542-0.342,0.958-0.921,1.084-1.639
		c0.09-0.506,0.021-0.999-0.163-1.424c0.046-0.142,0.092-0.284,0.138-0.426c0.197-0.168,0.398-0.331,0.578-0.528
		c1.456-1.598,1.901-3.709,1.383-5.511c0.002-0.008,0.005-0.016,0.007-0.023c0.83-0.84,1.418-1.898,1.634-3.11
		c0.173-0.976,0.083-1.94-0.212-2.841c0.03-0.192,0.057-0.385,0.083-0.578c0.528-0.673,0.611-1.619,0.2-2.41
		C42.86,96.5,42.87,96.25,42.872,96c0.208-0.114,0.414-0.236,0.606-0.389c1.833-1.453,2.149-4.107,0.707-5.927
		c-0.44-0.556-1.001-0.951-1.61-1.216c1.389-1.422,1.458-3.811,0.063-5.57c-0.251-0.317-0.542-0.577-0.845-0.811
		c0.743-0.35,1.433-0.846,2.02-1.49c2.295-2.519,2.216-6.362-0.095-8.809c2.775,0.3,5.338-1.512,5.819-4.226
		c0.15-0.845,0.078-1.678-0.169-2.447c1.458,0.411,3.03,0.122,4.262-0.787c0.295,0.398,0.651,0.759,1.09,1.043
		c1.998,1.292,4.689,0.681,6.011-1.364c0.11-0.17,0.188-0.35,0.272-0.528c0.309,0.456,0.708,0.858,1.198,1.175
		c1.942,1.256,4.532,0.701,5.889-1.21c0.254,0.062,0.516,0.125,0.773,0.188c0.135,4.038,3.442,7.271,7.512,7.271
		c2.639,0,4.957-1.361,6.3-3.417c-0.037,2.549,1.974,4.871,4.82,5.376c2.357,0.419,4.61-0.527,5.793-2.233
		c2.286,2.13,5.434,3.311,8.787,2.974c3.447-0.345,6.371-2.214,8.179-4.871c0.172-0.081,0.339-0.169,0.5-0.265
		c0.241,0.49,0.542,0.958,0.92,1.385c2.089,2.363,5.591,2.771,8.313,1.143c0.712-0.281,1.39-0.681,1.995-1.216
		c1.344-1.188,2.095-2.793,2.245-4.449c0.093,0.021,0.183,0.046,0.277,0.062c2.046,0.363,4.01-0.305,5.268-1.602
		c0.84,1.307,2.271,2.299,4.015,2.609c1.319,0.234,2.603,0.038,3.687-0.476c0.144,0.208,0.3,0.409,0.473,0.598
		c-0.231,0.555-0.412,1.141-0.521,1.759c-0.796,4.487,2.14,8.757,6.557,9.544c0.634,0.113,1.262,0.139,1.878,0.103
		c0.327,1.817,1.499,3.447,3.194,4.46c-0.057,1.162-0.151,2.318-0.268,3.458c-1.809,0.784-3.216,2.462-3.595,4.593
		c-0.421,2.376,0.55,4.662,2.312,5.986c-0.006,0.07-0.012,0.138-0.017,0.208c-1.511,1.764-1.496,4.295,0.071,5.725
		c0.168,0.153,0.353,0.277,0.54,0.393c-0.021,0.021-0.045,0.037-0.065,0.06c-1.844,2.024-1.853,5.022-0.018,6.693
		c0.657,0.6,1.465,0.937,2.312,1.043c-0.703,1.591-0.562,3.384,0.434,4.685c-0.678,1.709-0.304,3.707,1.109,4.995
		c0.103,0.093,0.219,0.16,0.327,0.242c0.192,1.706,0.366,3.577,0.514,5.635c-0.495,4.132-1.509,12.371-2.144,15.968
		c-1.537,8.707-4.411,12.039-4.366,17.168c0.027,3.087,2.898,6.944,5.895,2.922c0.263-0.353,0.96-3.842,1.575-7.9
		c0.022-0.111,0.046-0.249,0.068-0.447c4.098-15.707,2.848-28.456,4.298-30.078c0.502-0.561,1.776,0.461,2.259,0.408
		c0.189-0.021,0.242-2.502,0.338-6.551c0.495-0.349,0.87-0.903,0.989-1.579c0.066-0.373,0.041-0.735-0.046-1.072
		c0.212-0.149,0.412-0.321,0.594-0.521c1.295-1.42,1.238-3.591-0.041-5.053c0.759-0.456,1.33-1.213,1.496-2.153
		c0.244-1.37-0.439-2.677-1.593-3.318c0.345-0.331,0.595-0.765,0.685-1.271c0.185-1.038-0.354-2.027-1.248-2.483
		c0.303-0.229,0.59-0.49,0.856-0.783c1.631-1.791,2.016-4.233,1.167-6.154c1.328-1.039,2.274-2.494,2.58-4.21
		C166.568,86.206,165.233,83.478,162.874,81.833z"/>
</g>
<g id="snit_-_3" display="none">
	<path display="inline" fill="#1EC3F8" d="M29.669,123.806c0,0-0.467-21.897-1.477-29.099c-1.078-7.705,1.201-25.727,6.883-33.508
		c5.68-7.781,15.309-21.35,39.396-24.271c39.844-4.831,63.557-8.969,66.149-23.234c3.139,26.237-3.811,31.623-3.811,31.623
		s2.406,1.23,8.986,6.372c8.459,6.611,17.807,20.139,16.049,38.229c-1.686,17.344-1.205,34.094-1.688,34.147
		s-1.854-0.814-2.332-0.235c-0.48,0.579-1.871,1.602-3.119,23.75c-0.295,2.574-1.785,2.658-1.76,1.369
		c0.865-43.611-6.076-44.486-5.752-51.993c0.371-8.581,4.844-22.484-2.391-32.037c-9.557-12.619-22.736,1.804-48.74,1.804
		c-26.004,0-45.838-13.378-51.458-3.437c-5.621,9.941-2.486,25.521-2.057,29.388c1.178,10.601-6.299,20.156-5.971,30.895
		c0.301,9.846,0.711,19.627,0.434,24.012c-0.246,3.875-1.75,2.959-1.938,0c-1.775-27.76-3.83-24.36-3.83-24.36L29.669,123.806z"/>
</g>
<g id="snit_-_4" display="none">
	<g display="inline">
		<path fill="#006B86" d="M172.173,142.642c0.577-6.864,5.733-8.896,4.952-17.282c-1.652-17.712-6.831-13.989-6.928-24.087
			c-0.098-10.098,1.938-21.382-13.068-42.507c-6.067-8.541-14.181-14.586-22.816-18.761c-2.479-3.276-10.017-7.186-31.436-8.059
			c-1.845-0.122-3.612-0.18-5.277-0.18h-8.01c-17,0-38.953,5.207-53.959,26.332c-15.007,21.125-12.33,32.766-12.428,42.863
			s-13.111,15.035-9.896,32.531c1.471,8.006,5.91,10.25,6.391,17.122c0.348,4.973-4.541,11.81,2.223,20.401
			c4.402,5.593-3.399,18.267-3.399,18.267s4.683-0.78,9.425-4.376c0,0,7.417,2.455,5.865,13.569
			c-1.587,11.357-7.453,16.425-7.453,16.425s20.334-0.247,26.592-4.77c0,0,1.488,2.423-0.328,4.922c0,0,2.744-1.08,8.723-6.835
			c-0.391-0.259-0.774-0.51-1.173-0.776c-12.879-8.587-18.441-11.926-20.43-28.144c-0.498-4.063-1.23-9.967-2.049-16.851
			c-6.778,0.184-12.717-4.806-13.57-11.673l-1.672-13.429c-0.832-6.685,3.447-12.813,9.777-14.503
			c-0.508-3.48-1.272-6.688-1.964-10.268c0.221-0.201,0.439-0.4,0.674-0.613c2.135-0.523,33.7-8.31,61.926-18.313
			C113.708,86.26,124.387,69.843,129.246,58l0,0c23.137,14.241,20.399,33.711,20.715,45.384c0.249,9.213,4.815,16.574,6.734,19.276
			c-0.003,0.021-0.007,0.042-0.01,0.063c0.023,0.005,0.045,0.014,0.068,0.019c0.479,0.671,0.788,1.047,0.788,1.047l1.083,0.06
			c5.703,2.08,9.04,7.215,8.259,13.496l-1.672,13.429c-0.872,7.012-7.048,12.055-14.004,11.641
			c-0.82,6.898-1.555,12.812-2.055,16.883c-1.988,16.218-7.551,19.557-20.43,28.144c-0.225,0.149-0.438,0.289-0.659,0.436
			c6.786,3.898,17.178,2.786,17.178,2.786l-0.139-4.673c6.101,5.608,19.732,4.906,19.732,4.906s-6.756-6.401-7.453-12.421
			c-0.791-6.823,4.065-12.779,9.059-19.828c0.639,1.163,1.722,2.918,2.809,3.678c-1.197-4.389,0.869-9.006,1.811-10.787
			c0.141-0.248,0.281-0.497,0.42-0.749c0.003-0.005,0.014-0.022,0.014-0.022l-0.004,0.004c1.415-2.58,2.647-5.339,3.514-8.348
			C177.924,152.283,171.596,149.506,172.173,142.642z M132.962,46.48c0.082,0.049,0.165,0.097,0.247,0.146
			c-0.146,0.002-0.293,0.005-0.44,0.008C132.837,46.581,132.896,46.533,132.962,46.48z"/>
	</g>
</g>
<g id="snit_-_5" display="none">
	<path display="inline" fill="none" stroke="#006B86" stroke-width="3" stroke-linecap="round" stroke-miterlimit="10" d="
		M156.109,119.852"/>
	<path display="inline" fill="#F5F5F5" d="M134.538,44.052c0.551-0.505,0.852-0.784,0.852-0.784s7-13-41.495-13
		c-78.864,0-65.227,83.275-65.227,83.275s1.169-0.9,3.299-2.15c-0.999,0.645-1.708,1.16-1.708,1.16l1.969,10.29l3.682-0.549
		l1.34-13.446c-0.228,0.03-0.482,0.097-0.749,0.181c3.299-1.534,7.514-3.114,12.461-4.124c0,0,0.001,0,0.001,0
		c5.167-1.013,20.681-4.417,44.199-12.753c12.007-4.255,20.637-11.509,26.73-19.158l0,0c4.107,0,27.168,18.225,29.944,32.264
		c1.297,6.556,1.617,15.714,6.849,17.467l2.121,0.688c0,0,2.704-8.157,5.596-27.205C168.313,70.444,135.738,44.98,134.538,44.052z"
		/>
</g>
<g id="snit_-_6" display="none">
	<path display="inline" fill="#006B86" d="M164.013,95.42c-0.772-2.167-4.004-7.281-4.035-6.359
		c-0.114,3.383-4.757,14.585-5.577,19.759c-1.264,7.972-1.93,13.681-2.454,40.128c-0.025,1.289,2.466,1.205,2.761-1.369
		c1.248-22.147,2.639-23.17,3.119-23.75c0.479-0.579,4.061,1.388,4.061,1.388c0.283-0.031,2.327-8.811,2.581-17.11
		C164.59,104.125,165.753,100.303,164.013,95.42z"/>
	<path display="inline" fill="#006B86" d="M25.296,95.42c0.772-2.167,4.004-7.281,4.035-6.359
		c0.114,3.383,4.756,14.585,5.576,19.759c1.264,7.972,1.931,13.681,2.455,40.128c0.025,1.289-2.466,1.205-2.761-1.369
		c-1.248-22.147-2.639-23.17-3.119-23.75c-0.479-0.579-4.061,1.388-4.061,1.388c-0.283-0.031-2.327-8.811-2.581-17.11
		C24.719,104.125,23.556,100.303,25.296,95.42z"/>
</g>
<g id="snit_-_7" display="none">
	<path display="inline" fill="#965096" d="M160.25,63.002c-1.184-8.641-6.269-15.034-10.01-18.68l2.977-2.49h-5.793
		c-0.828-0.657-1.343-1-1.343-1l2.075-4.182c-1.75,0.25-8.263,0.116-8.263,0.116c1-0.75,3.951-7.353,3.951-7.353l-12.972,2.34
		c0,0,1.432-6.152,2.871-7.625c-2,0.75-16.368,5.845-16.368,5.845l3.187-8.47l-21.312,7.453c0,0,0.999-4.703,3.499-7.453
		c-3.75,1.5-16.128,7.453-16.128,7.453c0.847-1.573,0.956-5.438,2.378-7.453c-3.771,2.763-14.765,9.651-14.765,9.651v-7.676
		c0,0-0.491,0.931-3.979,3.954s-7.771,6.978-7.771,6.978s-0.138-3.489,0-6.978c-2.886,2.791-10.837,8.606-10.837,8.606v-3.721
		c0,0-5.582,6.513-8.373,9.304v-5.117c0,0-6.047,11.165-9.304,15.351s-4.884,10.699-5.828,17.444
		c-0.491,3.512-0.277,12.27,0.04,19.86c-0.093,2.511-0.021,4.74,0.22,6.456c0.05,0.356,0.098,0.755,0.146,1.175
		c0.172,3.211,0.308,5.355,0.308,5.355l0.134-0.173c0.604,9.012,0.89,21.74,0.89,21.74l1.576-0.586c0,0,2.055-2.398,3.829,25.361
		c0.188,2.959,1.692,3.875,1.938,0c0.277-4.385-0.133-14.166-0.434-24.012c-0.328-10.738,7.148-20.295,5.971-30.895
		c-0.214-1.925-0.105-5.763,0.75-10.356l15.175-19.591c8.298,0.106,20.827,3.997,37.589,3.997c26.004,0,35.18-10.422,44.736,2.197
		c7.234,9.553,6.766,19.455,6.395,28.035c-0.325,7.508,6.617,8.383,5.752,51.994c-0.025,1.289,1.465,1.205,1.76-1.369
		c1.248-22.148,2.639-24.172,3.118-24.75c0.479-0.58,1.776,0.461,2.259,0.408c0.361-0.04,0.224-8.967,0.839-20.726
		c0.004-0.076,0.008-0.152,0.012-0.229c0.013-0.229,0.025-0.462,0.038-0.693c0.174-2.802,0.527-5.584,0.785-7.372
		c0.031-0.091,0.062-0.189,0.088-0.299C163.861,87.402,161.935,75.299,160.25,63.002z"/>
</g>
</svg>
