<?xml version="1.0" encoding="utf-8"?>
<!-- Generator: Adobe Illustrator 16.0.4, SVG Export Plug-In . SVG Version: 6.00 Build 0)  -->
<!DOCTYPE svg PUBLIC "-//W3C//DTD SVG 1.1//EN" "http://www.w3.org/Graphics/SVG/1.1/DTD/svg11.dtd">
<svg version="1.1" xmlns="http://www.w3.org/2000/svg" xmlns:xlink="http://www.w3.org/1999/xlink" x="0px" y="0px" width="190px"
	 height="340px" viewBox="15 0 190 340" enable-background="new 15 0 190 340" xml:space="preserve">
<g id="Laag_14" display="none">
	<path display="inline" fill="#C95B50" d="M141.643,270.546c-0.717-1.917-2.192-4.926-2.192-4.926s-0.077-0.303-0.215-0.836l0,0
		c0,0,1.433-13.681,0.193-32.318c-0.879-13.213-7.573-18.529-8.504-18.982s-21.931-7.423-21.931-7.423
		c-0.015,0-0.044,0.013-0.044,0.013s-22.729,7.653-21.923,7.41s-7.185,1.352-8.505,19.983s0.192,32.318,0.192,32.318
		c-0.137,0.533-0.215,0.836-0.215,0.836s-1.476,3.009-2.192,4.926c-0.718,1.917,0.289,5.173,3.695,6.138
		c3.454,0.979,5.029-1.753,5.537-3.545c0.507-1.791-0.023-5.702-0.023-5.702c0.061-0.393-1.311-13.883,0.356-22.887
		c1.154-6.235,2.79-10.925,4.287-10.925c2.399,0,3.424,9.219,3.12,14.747c-0.215,3.91-1.573,11.958-0.812,19.635
		s5.5,17.051,8.224,35.674c0.001,0.018-0.005,0.029-0.005,0.046c0.06,0.711-0.205,1.667-1.081,2.209
		c-1.026,0.634-1.712,0.874-1.712,2.579c0,0.74,0.428,1.33,2.084,1.33c1.346,0,4.609,0,5.68,0c1.109,0,1.488-1.137,1.488-2.062
		c0-1.393-0.549-1.777-0.549-3.783c0.365-5.78,1.458-16.36,1.076-20.521c-0.682-7.429,0.345-11.288,1.303-11.288
		c1.753,0,2.893,3.419,2.545,11.249c-0.203,4.573-0.335,14.78,0.03,20.561c0,2.006-0.549,2.391-0.549,3.783
		c0,0.926,0.379,2.062,1.488,2.062c1.07,0,4.334,0,5.68,0c1.656,0,2.084-0.59,2.084-1.33c0-1.705-0.686-1.945-1.712-2.579
		c-0.876-0.542-1.141-1.498-1.081-2.209c0-0.017-0.006-0.028-0.005-0.046c3.089-19.446,7.463-27.997,8.224-35.674
		s-0.793-15.725-1.008-19.635c-0.304-5.528,0.722-14.747,3.121-14.747c1.646,0,4.088,5.542,4.955,11.489
		c1.35,9.26-0.374,20.929-0.313,21.321c0,0-0.53,3.911-0.023,5.702c0.508,1.792,2.083,4.523,5.537,3.545
		C141.354,275.719,142.36,272.463,141.643,270.546z"/>
	<path display="inline" opacity="0.05" fill="#000100" d="M108.994,206.061c-0.015,0-0.044,0.013-0.044,0.013
		s-11.42,3.846-17.782,5.998c6.244,4.474,12.802,7.182,17.91,7.182c4.906,0,11.065-2.727,16.927-7.495
		C119.203,209.552,108.994,206.061,108.994,206.061z"/>
</g>
<g id="acc_-_1" display="none">
	<circle display="inline" fill="#1EC3F8" cx="108.975" cy="223.562" r="1.239"/>
	<circle display="inline" fill="#1EC3F8" cx="112.273" cy="223.048" r="1.238"/>
	<path display="inline" fill="#1EC3F8" d="M114.25,222.268c-0.402-0.555-0.279-1.328,0.275-1.729
		c0.553-0.404,1.328-0.281,1.729,0.273c0.404,0.553,0.279,1.326-0.273,1.73C115.428,222.943,114.652,222.822,114.25,222.268z"/>
	<circle display="inline" fill="#1EC3F8" cx="117.619" cy="219.186" r="1.239"/>
	<path display="inline" fill="#1EC3F8" d="M118.76,217.393c-0.65-0.213-1.006-0.911-0.793-1.561c0.211-0.652,0.91-1.01,1.561-0.795
		c0.65,0.209,1.006,0.91,0.795,1.561C120.111,217.246,119.412,217.604,118.76,217.393z"/>
	<path display="inline" fill="#1EC3F8" d="M119.674,214.157c-0.684-0.001-1.238-0.556-1.236-1.239c0-0.686,0.555-1.242,1.24-1.238
		c0.682-0.002,1.236,0.555,1.236,1.238C120.914,213.601,120.359,214.156,119.674,214.157z"/>
	<path display="inline" fill="#1EC3F8" d="M119.545,210.798c-0.65,0.21-1.35-0.146-1.559-0.797
		c-0.213-0.651,0.143-1.353,0.797-1.562c0.646-0.212,1.348,0.146,1.559,0.797C120.553,209.885,120.195,210.585,119.545,210.798z"/>
	<path display="inline" fill="#1EC3F8" d="M99.246,208.367c0.649,0.213,1.007,0.913,0.79,1.562
		c-0.211,0.651-0.912,1.009-1.564,0.791c-0.643-0.206-1.002-0.908-0.788-1.56C97.893,208.512,98.593,208.157,99.246,208.367z"/>
	<path display="inline" fill="#1EC3F8" d="M98.327,211.602c0.684,0.002,1.239,0.557,1.234,1.242c0,0.684-0.557,1.24-1.244,1.234
		c-0.675,0.004-1.233-0.554-1.23-1.239C97.085,212.156,97.641,211.604,98.327,211.602z"/>
	<path display="inline" fill="#1EC3F8" d="M98.452,214.961c0.651-0.209,1.351,0.146,1.559,0.801c0.211,0.65-0.147,1.352-0.803,1.559
		c-0.641,0.212-1.344-0.146-1.553-0.799C97.443,215.872,97.8,215.176,98.452,214.961z"/>
	<path display="inline" fill="#1EC3F8" d="M99.609,218.117c0.555-0.4,1.329-0.277,1.729,0.281c0.401,0.553,0.277,1.33-0.282,1.73
		c-0.544,0.398-1.323,0.275-1.724-0.281C98.93,219.296,99.055,218.523,99.609,218.117z"/>
	<path display="inline" fill="#1EC3F8" d="M101.684,220.762c0.404-0.551,1.179-0.674,1.732-0.266c0.552,0.4,0.674,1.179,0.266,1.732
		c-0.395,0.547-1.174,0.67-1.727,0.266C101.403,222.093,101.283,221.32,101.684,220.762z"/>
	<path display="inline" fill="#1EC3F8" d="M104.475,222.637c0.215-0.648,0.912-1.006,1.564-0.788
		c0.649,0.21,1.006,0.913,0.789,1.565c-0.207,0.643-0.91,1-1.561,0.786C104.619,223.988,104.265,223.291,104.475,222.637z"/>
</g>
<g id="feed_-_1" display="none">
	<path display="inline" fill="#006A86" d="M107.256,308.115c0,0,0.222,0.491,0.222,1.554c0,2.519-0.915,2.519-0.915,2.519
		s-7.411,0-9.536,0s-0.502-2.698,1.434-4.27c0,0,1.041,0.915,3.332,1.04S107.256,308.115,107.256,308.115z"/>
	<path display="inline" fill="#006A86" d="M110.633,308.115c0,0-0.222,0.491-0.222,1.554c0,2.519,0.916,2.519,0.916,2.519
		s7.411,0,9.536,0s0.503-2.698-1.435-4.27c0,0-1.04,0.915-3.332,1.04C113.805,309.083,110.633,308.115,110.633,308.115z"/>
</g>
<g id="feed_-_2" display="none">
	<path display="inline" d="M107.123,308.115c0,0,0.222,0.491,0.222,1.554s-0.04,2.519-0.04,2.519h-0.875
		c0,0,0.056-1.507-0.799-1.241c-3.996,1.241-7.613,1.241-9.738,1.241s0.498-2.698,2.435-4.27c0,0,0.04,1.916,2.332,2.041
		S107.123,308.115,107.123,308.115z"/>
	<path display="inline" d="M111.045,308.115c0,0-0.222,0.491-0.222,1.554s0.04,2.519,0.04,2.519h0.875c0,0-0.056-1.507,0.799-1.241
		c3.996,1.241,7.613,1.241,9.738,1.241s-0.498-2.698-2.436-4.27c0,0,0.962,1.916-1.33,2.041S111.045,308.115,111.045,308.115z"/>
</g>
<g id="feed_-_3" display="none">
	<path display="inline" fill="#008AB2" d="M100.461,306.256c-1.866,0.204-3.215,0.904-3.703,2.298s-0.364,2.292,0.129,2.292
		c0.561,0,8.957,0,9.724,0s0.754-1.352,0.696-2.062s0.087-2.541-0.414-2.259c0,0-2.101,0.382-3.308,0.318
		S100.461,306.256,100.461,306.256z"/>
	<path display="inline" fill="#008AB2" d="M117.413,306.256c1.865,0.204,3.215,0.904,3.703,2.298
		c0.487,1.394,0.363,2.292-0.13,2.292c-0.562,0-8.957,0-9.724,0s-0.754-1.352-0.696-2.062s-0.087-2.541,0.413-2.259
		c0,0,2.102,0.382,3.309,0.318S117.413,306.256,117.413,306.256z"/>
</g>
<g id="feed_-_4" display="none">
	<path display="inline" fill="#F5F5F5" d="M100.461,306.256c-1.866,0.204-3.215,0.904-3.703,2.298s-0.364,2.292,0.129,2.292
		c0.561,0,8.957,0,9.724,0s0.754-1.352,0.696-2.062s0.087-2.541-0.414-2.259c0,0-2.101,0.382-3.308,0.318
		S100.461,306.256,100.461,306.256z"/>
	<path display="inline" fill="#F5F5F5" d="M117.413,306.256c1.865,0.204,3.215,0.904,3.703,2.298
		c0.487,1.394,0.363,2.292-0.13,2.292c-0.562,0-8.957,0-9.724,0s-0.754-1.352-0.696-2.062s-0.087-2.541,0.413-2.259
		c0,0,2.102,0.382,3.309,0.318S117.413,306.256,117.413,306.256z"/>
	<path display="inline" fill="#C95B50" d="M107.332,310.647c0,0.24-0.195,0.436-0.436,0.436H96.891
		c-0.241,0-0.436-0.195-0.436-0.436l0,0c0-0.241,0.195-0.437,0.436-0.437h10.005C107.136,310.211,107.332,310.406,107.332,310.647
		L107.332,310.647z"/>
	<circle display="inline" fill="#C95B50" cx="105.155" cy="308.551" r="0.978"/>
	<path display="inline" fill="#C95B50" d="M121.422,310.647c0,0.24-0.195,0.436-0.437,0.436H110.98c-0.24,0-0.436-0.195-0.436-0.436
		l0,0c0-0.241,0.195-0.437,0.436-0.437h10.005C121.227,310.211,121.422,310.406,121.422,310.647L121.422,310.647z"/>
	<circle display="inline" fill="#C95B50" cx="112.413" cy="308.551" r="0.978"/>
</g>
<g id="feed_-_5" display="none">
	<path display="inline" fill="#1EC3F8" d="M100.461,306.256c-1.866,0.204-3.215,0.904-3.703,2.298s-0.364,2.292,0.129,2.292
		c0.561,0,8.957,0,9.724,0s0.754-1.352,0.696-2.062s0.087-2.541-0.414-2.259c0,0-2.101,0.382-3.308,0.318
		S100.461,306.256,100.461,306.256z"/>
	<path display="inline" fill="#1EC3F8" d="M117.413,306.256c1.865,0.204,3.215,0.904,3.703,2.298
		c0.487,1.394,0.363,2.292-0.13,2.292c-0.562,0-8.957,0-9.724,0s-0.754-1.352-0.696-2.062s-0.087-2.541,0.413-2.259
		c0,0,2.102,0.382,3.309,0.318S117.413,306.256,117.413,306.256z"/>
	<path display="inline" fill="#008AB2" d="M107.332,310.647c0,0.24-0.195,0.436-0.436,0.436H96.891
		c-0.241,0-0.436-0.195-0.436-0.436l0,0c0-0.241,0.195-0.437,0.436-0.437h10.005C107.136,310.211,107.332,310.406,107.332,310.647
		L107.332,310.647z"/>
	<circle display="inline" fill="#008AB2" cx="105.155" cy="308.551" r="0.978"/>
	<path display="inline" fill="#008AB2" d="M121.422,310.647c0,0.24-0.195,0.436-0.437,0.436H110.98c-0.24,0-0.436-0.195-0.436-0.436
		l0,0c0-0.241,0.195-0.437,0.436-0.437h10.005C121.227,310.211,121.422,310.406,121.422,310.647L121.422,310.647z"/>
	<circle display="inline" fill="#008AB2" cx="112.413" cy="308.551" r="0.978"/>
</g>
<g id="feed_-_6" display="none">
	<g display="inline">
		<path fill="#1EC3F8" d="M118.133,306.937c-0.934-0.435-1.141-1.498-1.081-2.209c0-0.017-0.006-0.028-0.005-0.046
			c0.424-3.46,0.983-7.433,1.456-10.479c-2.154,0.157-4.774,0.282-7.871,0.316c0.16,3.883,0.349,7.924,0.51,10.48
			c0,1.645-0.365,2.205-0.498,3.119c-0.001,0-0.011-0.004-0.011-0.004s-0.222,0.491-0.222,1.554s0.04,2.519,0.04,2.519h0.875
			c0,0-0.056-1.507,0.799-1.241c3.996,1.241,7.684,1.782,9.738,1.241C124,311.625,119.781,307.703,118.133,306.937z"/>
		<path fill="#1EC3F8" d="M106.759,305c0.162-2.557,0.35-6.598,0.51-10.48c-3.252-0.037-5.849-0.176-7.876-0.348
			c0.473,3.05,1.035,7.038,1.46,10.51c0.001,0.018-0.005,0.029-0.005,0.046c0.06,0.711-0.205,1.667-1.081,2.209
			c-0.556,0.343-1.627,1.048-1.627,1.048c-1.937,1.571-4.171,3.516-2.115,4.203c2.015,0.674,5.742,0,9.738-1.241
			c0.854-0.266,0.799,1.241,0.799,1.241h0.875c0,0,0.04-1.456,0.04-2.519c0-1.061-0.221-1.552-0.222-1.553
			C107.123,307.204,106.759,306.643,106.759,305z"/>
	</g>
</g>
<g id="bottom_-_1_1_" display="none">
	<path display="inline" d="M108.948,260.439c-5.764,0.276-16.979-0.994-16.979-0.994s-0.051,9.053,0.669,12.912
		s5.75,19.082,6.316,23.147s1.608,7.62,1.546,8.808s2.438,1.375,3.125,1.375s3.157-0.131,3.157-1.068s1.146-15.79,1.199-17.859
		s0.178-13.026,1.165-13.026c2.074,0,2.053,11.536,2.074,13.097s-0.051,16.079,0.18,18.533c0.062,0.656,1.538,0.449,2.788,0.449
		s2.984-0.141,3.062-0.766c0.072-0.577,1.42-4.824,2.278-9.589c0.988-5.484,5.089-19.083,6.056-23.257
		c1.369-5.91,0.418-12.535,0.418-12.535S117.146,260.047,108.948,260.439z"/>
</g>
<g id="top_-_1" display="none">
	<path display="inline" fill="#ECAD5F" d="M109.107,232.236c0,0-12.935-6.736-11.988-21.322c-4.621,0.566-9.231,1.347-11.074,2.338
		c-3.306,1.777-4.604,2.582-6.57,10.664c-0.227,0.932-0.453,2.531-0.66,4.327l9.556,8.833c0.675-1.006,1.486-1.789,2.163-1.729
		c1.353,0.122,1.717,7.284,2.021,10.471s-0.61,14.628-0.61,14.628s11.449,1.912,17.165,1.912h0.078
		c5.715,0,17.165-1.912,17.165-1.912s-0.914-11.441-0.61-14.628s0.668-10.349,2.021-10.471c0.677-0.061,1.488,0.723,2.163,1.729
		l9.556-8.833c-0.207-1.796-0.434-3.396-0.66-4.327c-1.966-8.082-3.265-8.887-6.57-10.664c-1.843-0.991-6.453-1.771-11.074-2.338
		c0.946,14.586-11.988,21.322-11.988,21.322H109.107z"/>
</g>
<g id="top_-_3" display="none">
	<path display="inline" fill="#006A86" d="M140.935,237.577c0.196-0.203,0.319-0.477,0.319-0.78c0-0.526-0.368-0.95-0.857-1.074
		c-0.447-3.92-1.203-9.813-1.904-11.807c-1.084-3.083-2.666-7.995-6.666-10.664c-2.064-1.377-4.064-2.25-9.396-2.772l-13.31,9.774
		l-13.309-9.774c-5.331,0.522-7.331,1.396-9.395,2.772c-4,2.669-5.582,7.581-6.666,10.664c-0.701,1.993-1.457,7.887-1.904,11.807
		c-0.489,0.124-0.857,0.548-0.857,1.074c0,0.304,0.123,0.577,0.319,0.78c-0.19,0.232-0.319,0.518-0.319,0.84
		c0,0.399,0.184,0.749,0.461,0.995c0,0.002-0.001,0.01-0.001,0.01s1.578,1.96,5.313,1.96c4.542,0,4.709-1.206,4.709-1.206
		c-0.002-0.005-0.001-0.012-0.003-0.017c0.088-0.161,0.151-0.336,0.151-0.532c0-0.179-0.05-0.342-0.124-0.491
		c0.009-0.036,0.022-0.074,0.032-0.11c0.553-0.074,0.983-0.529,0.983-1.1c0-0.219-0.078-0.411-0.187-0.584
		c0.736-1.122,1.764-2.06,2.484-1.994c1.353,0.122,2.693,6.912,1.886,10.924c-1.527,7.583-0.451,18.593-0.451,18.593
		s11.28,3.95,15.84,3.95l1.193-1.32l1.86,1.32c4.635,0,15.186-4.359,15.186-4.359s-0.318-13.862-1.134-18.708
		c-0.531-3.156,0.892-10.277,2.244-10.399c0.721-0.065,1.748,0.872,2.484,1.994c-0.108,0.173-0.187,0.365-0.187,0.584
		c0,0.57,0.431,1.025,0.983,1.1c0.01,0.036,0.023,0.074,0.032,0.11c-0.074,0.149-0.124,0.312-0.124,0.491
		c0,0.196,0.063,0.371,0.151,0.532c-0.002,0.005-0.001,0.012-0.003,0.017c0,0,0.167,1.206,4.709,1.206
		c3.735,0,5.313-1.96,5.313-1.96s-0.001-0.008-0.001-0.01c0.277-0.246,0.461-0.596,0.461-0.995
		C141.254,238.095,141.125,237.81,140.935,237.577z"/>
	<path display="inline" opacity="0.05" fill="#000100" d="M136.316,241.328c0.208-9.191,0.313-16.624,0.367-22.011
		c-1.066-2.247-2.554-4.528-4.857-6.065c-0.319-0.213-0.639-0.412-0.967-0.602c0.05,5.863,0.117,17.933-0.072,27.576
		c0.092,0.229,0.711,1.155,4.693,1.155C135.78,241.382,136.044,241.351,136.316,241.328z"/>
	<path display="inline" opacity="0.05" fill="#000100" d="M86.417,213.252c-2.303,1.536-3.789,3.815-4.855,6.062
		c0.053,5.388,0.159,12.821,0.367,22.015c0.272,0.022,0.535,0.054,0.834,0.054c4.03,0,4.615-0.947,4.695-1.162
		c-0.19-9.643-0.123-21.709-0.072-27.57C87.056,212.839,86.736,213.039,86.417,213.252z"/>
	<path display="inline" opacity="0.05" fill="#000100" d="M92.8,210.869c0.111,3.799,0.466,14.702,1.299,31.104
		c0.561,11.05,1.054,18.978,1.391,23.963c1.531,0.485,3.443,1.062,5.371,1.572c-0.29-6.462-0.784-17.291-1.227-26.007
		c-0.498-9.813-0.788-22.732-0.906-28.881l-2.917-2.142C94.662,210.592,93.674,210.723,92.8,210.869z"/>
	<path display="inline" opacity="0.05" fill="#000100" d="M122.431,210.479l-2.914,2.141c-0.118,6.147-0.407,19.067-0.906,28.882
		c-0.445,8.762-0.942,19.661-1.231,26.111c1.898-0.554,3.813-1.214,5.383-1.787c0.337-4.992,0.827-12.886,1.384-23.853
		c0.833-16.402,1.188-27.305,1.3-31.104C124.57,210.723,123.582,210.592,122.431,210.479z"/>
	<path display="inline" opacity="0.05" fill="#000100" d="M114.444,241.796c-0.249-10.879-0.529-19.334-0.739-24.909l-4.584,3.367
		l-4.591-3.372c0.062,6.767,0.176,16.792,0.359,24.782c0.209,9.133,0.532,20.578,0.715,26.903c0.94,0.155,1.789,0.247,2.481,0.247
		l1.193-1.32l1.86,1.32c0.835,0,1.863-0.143,2.985-0.375C114.406,263.858,114.749,255.083,114.444,241.796z"/>
	<path display="inline" opacity="0.2" fill="#000100" d="M136.608,238.94c-3.043,0.625-5.121,0.275-5.892,0.092
		c0.01,0.034,0.022,0.069,0.03,0.104c-0.024,0.05-0.042,0.104-0.06,0.156c1.096,0.969,3.7,0.577,6.041,0.335
		c2.087-0.216,3.952-1.076,4.358-1.795c-0.047-0.088-0.09-0.179-0.152-0.255c0.052-0.054,0.082-0.123,0.123-0.186
		C140.49,237.947,140.387,238.165,136.608,238.94z"/>
	<path display="inline" opacity="0.2" fill="#000100" d="M81.634,238.94c3.043,0.625,5.121,0.275,5.892,0.092
		c-0.01,0.034-0.022,0.069-0.03,0.104c0.024,0.05,0.042,0.104,0.06,0.156c-1.096,0.969-3.7,0.577-6.041,0.335
		c-2.087-0.216-3.952-1.076-4.358-1.795c0.047-0.088,0.09-0.179,0.152-0.255c-0.052-0.054-0.082-0.123-0.123-0.186
		C77.752,237.947,77.856,238.165,81.634,238.94z"/>
	<line display="inline" opacity="0.2" fill="#000100" x1="108.972" y1="220.093" x2="108.972" y2="220.625"/>
	<g display="inline" opacity="0.05">
		<path fill="#000100" d="M78.961,227.474c-0.411,2.428-0.792,5.453-1.07,7.854c2.172,0.335,6.122,0.914,10.83,1.469
			c0.68-0.861,1.489-1.504,2.088-1.449c0.428,0.039,0.854,0.746,1.211,1.818c5.594,0.594,11.84,1.081,17.299,1.081
			c5.197,0,11.217-0.269,16.739-0.605c0.407-1.317,0.895-2.251,1.375-2.294c0.721-0.065,1.748,0.872,2.484,1.994
			c-0.01,0.016-0.015,0.033-0.024,0.05c4.822-0.333,8.938-0.684,11.308-0.896c-0.11-0.38-0.414-0.674-0.805-0.772
			c-0.271-2.369-0.653-5.454-1.069-7.969c-5.312,0.745-15.711,1.865-30.207,1.865C92.641,229.619,82.764,228.171,78.961,227.474z"/>
		<path fill="#000100" d="M109.121,220.254l-7.052-5.179c-7.042-0.189-12.542-0.641-16.562-1.104
			c-2.408,2.003-3.837,4.83-4.808,7.325c6.551,0.943,18.847,2.501,28.621,2.501c9.473,0,21.683-0.891,28.608-1.469
			c-0.966-2.667-2.395-5.974-5.067-8.26c-4.338,0.43-9.947,0.834-16.69,1.009L109.121,220.254z"/>
		<path fill="#000100" d="M92.877,244.902c-0.04,0.479-0.097,0.941-0.183,1.369c-0.418,2.075-0.64,4.406-0.743,6.698
			c5.612,0.597,11.886,1.088,17.368,1.088c5.143,0,11.093-0.263,16.568-0.596c-0.174-3.029-0.403-5.962-0.698-7.715
			c-0.041-0.242-0.066-0.514-0.085-0.797c-4.562,0.283-9.914,0.479-15.984,0.479C102.718,245.43,97.319,245.21,92.877,244.902z"/>
		<path fill="#000100" d="M92.003,261.368c0.106,2.115,0.241,3.496,0.241,3.496s11.28,3.95,15.84,3.95l1.193-1.32l1.86,1.32
			c4.635,0,15.186-4.359,15.186-4.359s-0.028-1.218-0.089-3.051c-4.801,0.322-10.533,0.554-17.114,0.554
			C102.295,261.958,96.603,261.709,92.003,261.368z"/>
	</g>
	<path display="inline" fill="none" d="M140.935,237.577c0.196-0.203,0.319-0.477,0.319-0.78c0-0.526-0.368-0.95-0.857-1.074
		c-0.447-3.92-1.203-9.813-1.904-11.807c-1.084-3.083-2.666-7.995-6.666-10.664c-2.064-1.377-4.064-2.25-9.396-2.772l-13.31,9.774
		l-13.309-9.774c-5.331,0.522-7.331,1.396-9.395,2.772c-4,2.669-5.582,7.581-6.666,10.664c-0.701,1.993-1.457,7.887-1.904,11.807
		c-0.489,0.124-0.857,0.548-0.857,1.074c0,0.304,0.123,0.577,0.319,0.78c-0.19,0.232-0.319,0.518-0.319,0.84
		c0,0.399,0.184,0.749,0.461,0.995c0,0.002-0.001,0.01-0.001,0.01s1.578,1.96,5.313,1.96c4.542,0,4.709-1.206,4.709-1.206
		c-0.002-0.005-0.001-0.012-0.003-0.017c0.088-0.161,0.151-0.336,0.151-0.532c0-0.179-0.05-0.342-0.124-0.491
		c0.009-0.036,0.022-0.074,0.032-0.11c0.553-0.074,0.983-0.529,0.983-1.1c0-0.219-0.078-0.411-0.187-0.584
		c0.736-1.122,1.764-2.06,2.484-1.994c1.353,0.122,2.693,6.912,1.886,10.924c-1.527,7.583-0.451,18.593-0.451,18.593
		s11.28,3.95,15.84,3.95l1.193-1.32l1.86,1.32c4.635,0,15.186-4.359,15.186-4.359s-0.318-13.862-1.134-18.708
		c-0.531-3.156,0.892-10.277,2.244-10.399c0.721-0.065,1.748,0.872,2.484,1.994c-0.108,0.173-0.187,0.365-0.187,0.584
		c0,0.57,0.431,1.025,0.983,1.1c0.01,0.036,0.023,0.074,0.032,0.11c-0.074,0.149-0.124,0.312-0.124,0.491
		c0,0.196,0.063,0.371,0.151,0.532c-0.002,0.005-0.001,0.012-0.003,0.017c0,0,0.167,1.206,4.709,1.206
		c3.735,0,5.313-1.96,5.313-1.96s-0.001-0.008-0.001-0.01c0.277-0.246,0.461-0.596,0.461-0.995
		C141.254,238.095,141.125,237.81,140.935,237.577z"/>
	<circle display="inline" opacity="0.5" fill="#000100" cx="109.146" cy="224.074" r="1.005"/>
	<circle display="inline" opacity="0.5" fill="#000100" cx="109.146" cy="232.999" r="1.005"/>
	<circle display="inline" opacity="0.5" fill="#000100" cx="109.146" cy="241.924" r="1.005"/>
	<circle display="inline" opacity="0.5" fill="#000100" cx="109.146" cy="250.849" r="1.005"/>
	<circle display="inline" opacity="0.5" fill="#000100" cx="109.146" cy="259.773" r="1.005"/>
	<path display="inline" fill="none" d="M140.935,237.577c0.196-0.203,0.319-0.477,0.319-0.78c0-0.526-0.368-0.95-0.857-1.074
		c-0.447-3.92-1.203-9.813-1.904-11.807c-1.084-3.083-2.666-7.995-6.666-10.664c-2.064-1.377-4.064-2.25-9.396-2.772l-13.31,9.774
		l-13.309-9.774c-5.331,0.522-7.331,1.396-9.395,2.772c-4,2.669-5.582,7.581-6.666,10.664c-0.701,1.993-1.457,7.887-1.904,11.807
		c-0.489,0.124-0.857,0.548-0.857,1.074c0,0.304,0.123,0.577,0.319,0.78c-0.19,0.232-0.319,0.518-0.319,0.84
		c0,0.399,0.184,0.749,0.461,0.995c0,0.002-0.001,0.01-0.001,0.01s1.578,1.96,5.313,1.96c4.542,0,4.709-1.206,4.709-1.206
		c-0.002-0.005-0.001-0.012-0.003-0.017c0.088-0.161,0.151-0.336,0.151-0.532c0-0.179-0.05-0.342-0.124-0.491
		c0.009-0.036,0.022-0.074,0.032-0.11c0.553-0.074,0.983-0.529,0.983-1.1c0-0.219-0.078-0.411-0.187-0.584
		c0.736-1.122,1.764-2.06,2.484-1.994c1.353,0.122,2.693,6.912,1.886,10.924c-1.527,7.583-0.451,18.593-0.451,18.593
		s11.28,3.95,15.84,3.95l1.193-1.32l1.86,1.32c4.635,0,15.186-4.359,15.186-4.359s-0.318-13.862-1.134-18.708
		c-0.531-3.156,0.892-10.277,2.244-10.399c0.721-0.065,1.748,0.872,2.484,1.994c-0.108,0.173-0.187,0.365-0.187,0.584
		c0,0.57,0.431,1.025,0.983,1.1c0.01,0.036,0.023,0.074,0.032,0.11c-0.074,0.149-0.124,0.312-0.124,0.491
		c0,0.196,0.063,0.371,0.151,0.532c-0.002,0.005-0.001,0.012-0.003,0.017c0,0,0.167,1.206,4.709,1.206
		c3.735,0,5.313-1.96,5.313-1.96s-0.001-0.008-0.001-0.01c0.277-0.246,0.461-0.596,0.461-0.995
		C141.254,238.095,141.125,237.81,140.935,237.577z"/>
	<g display="inline" opacity="0.2">
		<polygon fill="#000100" points="108.388,219.716 104.188,224.622 98.449,212.656 97.858,212.873 104.018,225.671 108.938,220.119 
					"/>
		<polygon fill="#000100" points="120.638,212.88 120.033,212.656 113.992,224.317 109.715,219.817 109.193,220.2 114.24,225.646 		
			"/>
	</g>
</g>
<g id="top_-_4" display="none">
	<path display="inline" fill="#ECAD5F" d="M139.748,230.5c-1.176-7.725-4.059-13.856-6.238-16.115
		c-1.133-1.175-3.988-2.479-8.398-3.464c-3.229,6.48-5.439,16.247-16.112,16.247c-9.781,0-12.884-9.767-16.112-16.247
		c-4.411,0.985-7.267,2.289-8.399,3.464c-2.178,2.259-5.061,8.391-6.238,16.115c-0.738,4.844-0.123,24.339-0.123,26.214l7.084-0.136
		c0.027-0.47,1.064-13.156,2.456-17.555c0.667-2.107,1.894-4.13,2.458-4.023c1.01,0.191,3.524,6.55,3.177,10.753
		c-0.53,6.411-2.479,21.319,1.063,39.504c0,0,9.727,1.001,15.007,1.001s15.481-1.001,15.481-1.001
		c3.141-20.385,0.431-33.162-0.205-39.695c-0.633-6.505,2.214-10.37,3.224-10.562c0.744-0.141,2.807,3.39,3.58,5.784
		c2.671,8.27,1.661,16.552,1.678,16.831l6.572,0.284C139.703,256.024,140.486,235.344,139.748,230.5z"/>
</g>
<g id="top_-_5" display="none">
	<path display="inline" fill="#008AB2" d="M127.468,234.733c-1.01,0.191-2.228,4.48-2.818,10.828
		c-0.608,6.535,4.619,19.023-2.798,39.695c0,0-7.198,1.001-12.479,1.001s-13.006-1.001-13.006-1.001
		c-7.797-19.432-3.203-33.133-3.078-39.695s-2.017-10.733-3.026-10.925c0,0-0.716-2.545,18.712-2.545
		C127.561,232.092,127.468,234.733,127.468,234.733z"/>
	<path display="inline" fill="#1EC3F8" d="M118.385,207.643c-0.555,0.4-1.33,0.278-1.729-0.277c-0.404-0.553-0.283-1.33,0.275-1.73
		c0.549-0.4,1.326-0.277,1.729,0.277C119.061,206.463,118.938,207.239,118.385,207.643z"/>
	<path display="inline" fill="#1EC3F8" d="M116.307,205c-0.404,0.552-1.18,0.676-1.73,0.27c-0.555-0.4-0.68-1.177-0.271-1.73
		c0.396-0.551,1.174-0.674,1.729-0.27C116.584,203.67,116.707,204.445,116.307,205z"/>
	<path display="inline" fill="#1EC3F8" d="M113.514,203.129c-0.215,0.649-0.914,1.008-1.562,0.791
		c-0.652-0.211-1.01-0.91-0.793-1.562c0.207-0.646,0.908-1.004,1.561-0.79C113.367,201.777,113.723,202.477,113.514,203.129z"/>
	<path display="inline" fill="#1EC3F8" d="M110.279,202.212c-0.003,0.685-0.558,1.241-1.241,1.235c-0.686,0-1.242-0.555-1.237-1.242
		c-0.003-0.678,0.554-1.234,1.24-1.232C109.722,200.971,110.276,201.527,110.279,202.212z"/>
	<path display="inline" fill="#1EC3F8" d="M106.918,202.34c0.209,0.65-0.146,1.352-0.799,1.557
		c-0.651,0.213-1.353-0.143-1.561-0.799c-0.211-0.643,0.146-1.345,0.799-1.555C106.006,201.33,106.705,201.689,106.918,202.34z"/>
	<path display="inline" fill="#1EC3F8" d="M103.762,203.498c0.4,0.555,0.278,1.331-0.278,1.729
		c-0.554,0.402-1.331,0.281-1.731-0.278c-0.398-0.546-0.276-1.325,0.279-1.726C102.583,202.82,103.358,202.945,103.762,203.498z"/>
	<path display="inline" fill="#1EC3F8" d="M101.119,205.575c0.552,0.403,0.676,1.18,0.269,1.729
		c-0.402,0.555-1.179,0.679-1.732,0.27c-0.548-0.395-0.672-1.174-0.268-1.727C99.788,205.295,100.563,205.174,101.119,205.575z"/>
	<path display="inline" opacity="0.05" fill="#000100" d="M108.994,206.061c-0.015,0-0.044,0.013-0.044,0.013
		s-11.42,3.846-17.782,5.998c6.244,4.474,12.802,7.182,17.91,7.182c4.906,0,11.294-2.911,17.155-7.68
		C119.432,209.367,108.994,206.061,108.994,206.061z"/>
</g>
<g id="BALD" display="none">
	<g id="head" display="inline">
		<path fill="#C95B50" d="M170.859,127.516c1.392-9.41,4.656-16.848,3.123-35.387c-1.018-12.273-10.937-39.229-44.143-47.311
			c-6.497-2.314-13.488-3.582-20.78-3.582c-7.29,0-14.283,1.268-20.781,3.582C55.072,52.9,45.153,79.855,44.137,92.129
			c-1.541,18.617,1.76,26.039,3.14,35.506c-6.284,1.676-10.533,7.762-9.707,14.4l4.639,13.334
			c0.903,7.248,4.532,12.396,11.786,11.496c0.527-0.066,1.041-0.17,1.546-0.295c2.498,15.994,9.116,27.123,20.478,34.697
			c12.789,8.524,23.702,15.492,33.042,15.492c9.642,0,21.421-8.412,33.04-18.474c10.836-9.381,17.854-16.724,20.451-31.849
			c0.649,0.187,1.317,0.34,2.008,0.427c7.254,0.899,10.885-4.248,11.787-11.496l4.639-13.334
			C181.83,135.249,177.377,129.027,170.859,127.516z"/>
	</g>
	<g id="snit_1">
		<path display="inline" fill="#006B88" d="M172.673,126.805c0,0,6.763-17.696,2.916-37.597c-3.844-19.9-7.437-20.293-9.625-23.139
			c-2.19-2.844-6.784,2.732-2.526,12.346C167.695,88.028,174.105,106.89,172.673,126.805z"/>
		<path display="inline" fill="#006B88" d="M46.27,126.805c-3.035-7.409-11.32-28.153-7.937-41.308
			c3.383-13.155,3.251-20.236,3.569-26.814c0.32-6.576,6.897-17.708,7.403-10.119c0.506,7.59-1.012,16.697,5.565,8.096
			c6.577-8.601,3.035-12.242,9.107-16.746C70.048,35.41,66,24.785,85.731,28.327c19.732,3.542,20.236,8.095,30.357,3.036
			c10.119-5.06,3.543-11.636,16.697-6.578c13.154,5.061,8.6,10.12,15.684,12.649c7.082,2.529,8.602,15.179,8.602,15.179
			l-3.036,4.047c0,0-25.298,32.887-49.582,41.488c-24.285,8.6-48.065,22.479-51.1,33.249
			C50.318,142.163,46.27,126.805,46.27,126.805z"/>
		<path display="inline" fill="#006B88" d="M157.073,52.612c0,0,10.09,9.75,13.444,19.311c3.355,9.559-5.842,10.939-8.006,4.051
			c-2.164-6.891-16.785-9.525-16.785-9.525L157.073,52.612z"/>
	</g>
	<g id="snit_2">
		<path display="inline" fill="#15B4E6" d="M187.172,139.939c0.577-6.864,5.734-8.896,4.952-17.282
			c-1.651-17.712-6.831-13.989-6.929-24.087c-0.096-10.098,1.938-21.382-13.067-42.507c-6.067-8.541-14.18-14.586-22.815-18.761
			c-2.479-3.276-10.017-7.186-31.435-8.059c-1.845-0.122-3.612-0.18-5.278-0.18h-8.01c-17,0-38.953,5.207-53.96,26.332
			C35.624,76.52,38.3,88.161,38.203,98.258c-0.097,10.097-13.111,15.035-9.896,32.531c1.471,8.006,5.91,10.25,6.391,17.122
			c0.348,4.973-4.541,11.81,2.222,20.401c4.402,5.593-3.399,18.267-3.399,18.267s4.683-0.78,9.424-4.376
			c0,0,7.417,2.455,5.865,13.568c-1.586,11.357-7.453,16.426-7.453,16.426s20.334-0.247,26.592-4.771c0,0,1.489,2.423-0.328,4.923
			c0,0,3.313-1.314,10.569-8.664c-0.211-0.141-0.419-0.274-0.631-0.416c-11.361-7.574-17.979-20.705-20.478-36.699
			c-0.505,0.125-1.019,0.229-1.546,0.295c-7.254,0.9-10.883-4.248-11.786-11.496l-4.639-13.334
			c-0.826-6.639,3.423-12.725,9.707-14.4c-0.845-5.798-2.409-10.833-3.142-18.138c0.089-0.081,0.17-0.156,0.262-0.238
			c2.135-0.523,33.7-8.311,61.925-18.314c20.846-7.388,31.524-23.806,36.384-35.649l0,0c23.137,14.241,20.398,33.711,20.715,45.384
			c0.206,7.634,5.078,16.326,8.425,21.426c-0.366,1.792-0.712,3.563-0.985,5.41c6.519,1.512,10.972,7.731,10.127,14.52
			l-4.639,13.334c-0.902,7.248-4.533,12.396-11.787,11.496c-0.689-0.086-1.357-0.24-2.008-0.426
			c-2.599,15.125-9.615,24.469-20.451,33.85c-1.108,0.96-2.219,1.887-3.328,2.795c6.203,6.352,19.928,4.876,19.928,4.876
			l-0.139-4.673c6.101,5.607,19.731,4.906,19.731,4.906s-6.755-6.401-7.453-12.422c-0.791-6.822,4.065-12.778,9.06-19.828
			c0.639,1.164,1.723,2.918,2.809,3.68c-1.197-4.391,0.871-9.01,1.812-10.79c0.141-0.247,0.28-0.496,0.418-0.746
			c0.004-0.005,0.015-0.022,0.015-0.022l-0.004,0.004c1.415-2.58,2.647-5.34,3.514-8.349
			C192.923,149.581,186.596,146.803,187.172,139.939z"/>
	</g>
	<g id="snit_3">
		<path display="inline" fill="#15B4E6" d="M71.626,72.902c0,0,23.82-32.363-6.573-16.719c-2.777,1.43-5.303,3.074-7.601,4.891
			c-0.04,0.031-0.102,0.08-0.188,0.152c-0.052,0.041-0.099,0.085-0.149,0.127C55.067,63.082,45.21,72.056,39.214,88.95
			c-3.598,11.153-3.498,25.28-3.666,32.708c0.621,39.303,21.208,67.253,21.208,67.253c0.001,0.001,0.001,0.001,0.003,0.001
			c-5.082-12.637-3.766-32.771-2.893-58.346C55.277,89.251,71.626,72.902,71.626,72.902z"/>
		<path display="inline" fill="#15B4E6" d="M186.924,108.325c-1.363-17.101-9.128-39.749-29.986-51.403
			c-29.845-16.673-5.14,15.483-5.14,15.483s18.782,3.995,18.782,45.333c0,30.838-5.721,59.538-11.859,74.592
			C158.721,192.33,186.759,164.173,186.924,108.325z"/>
		<path display="inline" fill="#3ABFF0" d="M155.936,55.921c0,0-9.095-16.792-47.26-16.792c-38.671,0-61.236,26.266-64.926,46.685
			c-2.352,13.013,8.221,55.9,9.631,62.948c0,0,8.986-32.192,52.932-43.506C131.759,98.705,155.936,68.725,155.936,55.921z"/>
	</g>
	<g id="glasses_1">
		<path display="inline" fill="#006B88" d="M159.261,127.717c-1.028-0.503-2.012-0.925-2.92-1.258l-0.006-0.09l-6.433-1.979
			l-0.182-0.047l-0.021-0.003c-3.16-0.617-6.521-0.931-9.988-0.931c-5.448,0-10.994,0.784-16.032,2.268
			c-3.119,0.919-5.74,2.089-7.789,3.476c-1.38,0.765-2.787,1.201-4.078,1.265c-0.062,0.004-0.119,0.005-0.183,0.005l-0.127-0.001
			h-0.026h-0.033l-0.129,0.001c-0.062,0-0.121-0.001-0.185-0.005c-1.289-0.062-2.697-0.5-4.076-1.265
			c-2.047-1.387-4.67-2.557-7.789-3.476c-5.037-1.482-10.582-2.268-16.031-2.268c-3.467,0-6.828,0.313-9.988,0.931l-6.634,2.029
			l-0.006,0.09c-0.91,0.333-1.892,0.755-2.921,1.257l-0.247,0.12l0.028,0.273c0.042,0.404,0.087,0.871,0.134,1.381
			c0.317,3.336,0.753,7.904,1.629,9.359c0.625,1.037,1.538,1.215,2.205,1.342c0.183,0.037,0.357,0.069,0.483,0.117
			c0.005,0.028,0.01,0.06,0.016,0.09c0.866,4.875,2.838,8.123,6.206,10.217c2.855,1.775,6.652,2.738,12.699,3.212
			c0.639,0.051,1.285,0.075,1.92,0.075c9.527,0,16.361-5.754,17.9-8.834c0.484-0.965,1.049-2.936,1.676-5.852
			c0.076-0.158,0.133-0.311,0.176-0.467c0.406-1.5,2.098-2.501,2.963-2.926c0.867,0.425,2.56,1.425,2.967,2.927
			c0.041,0.155,0.099,0.308,0.172,0.466c0.632,2.916,1.193,4.887,1.677,5.852c1.09,2.178,3.805,4.318,5.981,5.599
			c2.517,1.476,6.623,3.235,11.918,3.235h0.002c0.636,0,1.281-0.024,1.92-0.075c6.048-0.474,9.845-1.437,12.697-3.212
			c3.367-2.094,5.34-5.342,6.207-10.217c0.006-0.03,0.01-0.062,0.016-0.09c0.125-0.048,0.302-0.08,0.484-0.117
			c0.666-0.127,1.58-0.305,2.203-1.342c0.877-1.455,1.312-6.023,1.627-9.359c0.049-0.51,0.096-0.977,0.137-1.381l0.027-0.273
			L159.261,127.717z M118.741,139.464c-0.093-1.655-0.269-5.61,0.051-7.353c0.006-0.03,0.013-0.061,0.017-0.088
			c1.639-0.991,3.653-1.842,5.996-2.531c4.678-1.378,9.831-2.105,14.903-2.105c3.174,0,6.244,0.281,9.129,0.836l3.584,1.104
			c-0.078,1.625-0.356,4.934-1.323,10.375c-0.654,3.667-1.886,5.87-4.119,7.366c-2.244,1.503-5.691,2.363-11.181,2.793
			c-0.534,0.044-1.075,0.064-1.61,0.064c-4.515,0-7.97-1.523-10.072-2.804c-2.463-1.497-3.926-3.146-4.27-3.833
			C119.648,142.9,119.302,141.92,118.741,139.464z M98.825,147.122c-2.107,1.278-5.562,2.804-10.066,2.804
			c-0.531,0-1.074-0.021-1.611-0.064c-5.488-0.43-8.936-1.291-11.18-2.793c-2.234-1.496-3.469-3.699-4.119-7.366
			c-0.969-5.443-1.246-8.75-1.324-10.375l3.584-1.104c2.885-0.555,5.955-0.836,9.127-0.836c5.072,0,10.227,0.729,14.904,2.105
			c2.34,0.688,4.357,1.54,5.998,2.531c0.004,0.027,0.01,0.058,0.014,0.088c0.316,1.734,0.143,5.693,0.051,7.354
			c-0.559,2.458-0.908,3.436-1.102,3.824C102.757,143.975,101.292,145.622,98.825,147.122z"/>
	</g>
	<g id="leeloo">
		<path display="inline" fill="#15B4E6" d="M-10.638-38.372c0,0-0.6,3.342,1.176,8.512c1.777,5.169,4.998,5.911,5.938,5.607
			c0.94-0.306,3.086-2.113,0.157-4.553c-2.929-2.44-2.578-4.469-1.3-5.815C-3.389-35.967-6.218-40.485-10.638-38.372z"/>
		<path display="inline" fill="#15B4E6" d="M-6.573-35.352c0,0,0.037,11.817,9.235,10.897c9.204-0.921,8.205-12.49,12.012-14.831
			c2.938-1.807-0.391-3.154,7.215-9.005S1.771-48.794-6.573-35.352z"/>
		<path display="inline" fill="#15B4E6" d="M-96.132-81.403c-0.982,4.467,1.833,15.782,6.263,20.441
			c4.43,4.659,12.812,6.1,12.483,10.05c-0.329,3.95,1.178,12.55,8.915,13.813c7.737,1.263,8.444,3.493,9.364,6.386
			c2.072,6.519,17.874,10.244,20.308,2.019c1.517-5.126,5.925,2.462,5.576-7.087c-0.349-9.549-20.761-32.354-20.761-32.354
			L-96.132-81.403z"/>
		<path display="inline" fill="#15B4E6" d="M43.818-94.871c0.533-6.35,10.476-11.572,9.752-19.331
			c-1.528-16.386-9.852-14.963-9.852-27.323c0-9.342,2.066-11.398-11.816-30.941c-13.884-19.543-35.341-17.972-51.067-17.972h-7.41
			c-15.728,0-36.037,4.817-49.92,24.36c-13.884,19.544-15.411,23.306-15.5,32.647c-0.091,9.342-12.13,13.909-9.156,30.096
			c1.36,7.406,5.467,9.482,5.912,15.84c0.124,1.775-0.472,3.809-0.893,6.092l37.824,48.691c1.188-1.079,2.536-2.375,4.072-3.965
			l54.722-2.778c3.816,9.298,12.361-0.709,12.361-0.709l6.732,1.714c0.815,0.327,11.936,1.505,11.936-9.778
			c0-10.61,2.964-10.93,10.408-21.623C47.502-77.864,43.285-88.52,43.818-94.871z"/>
		<path display="inline" fill="#009FCC" d="M32.284-112.31c1.296-8.767,4.339-15.696,2.909-32.969
			c-0.946-11.436-10.188-36.549-41.126-44.079c-6.054-2.155-12.567-3.337-19.361-3.337c-6.792,0-13.308,1.182-19.361,3.337
			c-30.938,7.53-40.18,32.644-41.126,44.079c-1.436,17.345,1.64,24.26,2.925,33.079c-5.854,1.562-9.813,7.232-9.044,13.417
			l4.322,12.424c0.841,6.754,4.223,11.55,10.98,10.71c0.492-0.062,0.971-0.158,1.44-0.275c2.327,14.903,8.493,29.001,19.079,36.059
			c11.915,7.943,18.933,14.434,30.784,14.434s19.96-7.839,30.786-17.212c10.096-8.739,16.633-19.311,19.054-33.402
			c0.605,0.174,1.228,0.316,1.871,0.396c6.758,0.84,10.14-3.956,10.98-10.71l4.322-12.424
			C42.506-105.105,38.356-110.902,32.284-112.31z"/>
		<path display="inline" fill="#15B4E6" d="M20.58-174.962c0,0-41.564,26.913-66.064,35.913s-42.244,21.909-42.244,21.909
			s-13.76-78.303,60.749-78.303C21.516-195.443,20.58-174.962,20.58-174.962z"/>
		<path display="inline" fill="#15B4E6" d="M36.967-105.42c0,0-7.266-8.733-7.58-20.406c-0.316-11.673-2.491-30.307-37.178-41.477
			c-25.86-8.328,28.975-14.993,28.975-14.993s21.769,24.291,23.346,50.791c1.577,26.5,0,19.56,0,19.56L36.967-105.42z"/>
		<circle display="inline" fill="#010202" cx="-41.232" cy="-97.236" r="4.252"/>
		<circle display="inline" fill="#010202" cx="-7.791" cy="-97.236" r="4.252"/>
		<path display="inline" fill="#15B4E6" d="M53.617-87.767c0,0-6.797-6.27-1.187-20.296c2.562-6.405-8.561,0.515-8.71,10.621
			C43.571-87.336,53.617-87.767,53.617-87.767z"/>
		<path display="inline" fill="none" stroke="#15B4E6" stroke-width="4" stroke-miterlimit="10" d="M41.248-147.707
			c0,0,8.353,4.994,5.5,18.78"/>
		<path display="inline" fill="none" stroke="#15B4E6" stroke-width="4" stroke-miterlimit="10" d="M47.37-91.756
			c0,0,0.793,8.91-9.347,15.999"/>
		<path display="inline" fill="none" stroke="#15B4E6" stroke-width="4" stroke-miterlimit="10" d="M38.023-68.136
			c0,0,1.11,19.136-11.128,24.699"/>
		<path display="inline" fill="#FFFFFF" d="M-95.712-100.51c0,0-0.646-4.809,0.831-5.964c1.477-1.155,1.285-9.812,1.285-9.812
			S-98.982-113.593-95.712-100.51z"/>
		<path display="inline" fill="none" stroke="#15B4E6" stroke-width="4" stroke-miterlimit="10" d="M-12.043-157.293
			c-4.484,3.178-3.137,9.656-10.218,15.017c-7.081,5.361-12.979,7.097-23.224,9.006c-10.245,1.909-16.232-0.258-24.663,5.805"/>
		<path display="inline" fill="#009FCC" d="M-33.223-174.962c-11.277,6.118-26.242,12.798-37.646,28.664
			C-54.156-162.789-33.223-174.962-33.223-174.962z"/>
		<path display="inline" fill="none" stroke="#15B4E6" stroke-width="4" stroke-miterlimit="10" d="M-84.626-64.671
			c0,0-6.369,17.013,11.125,19.881"/>
		<path display="inline" fill="none" stroke="#15B4E6" stroke-width="4" stroke-miterlimit="10" d="M7.381-35.997
			c0,0,11.521,6.978,13.2-5.902"/>
		<path display="inline" fill="none" stroke="#006B88" stroke-width="3" stroke-linecap="round" stroke-miterlimit="10" d="
			M-14.112-64.189c0,0-3.327,3.036-10.535,3.036h-0.883c-7.208,0-10.535-3.036-10.535-3.036"/>
	</g>
</g>
<g id="FACE">
	<circle fill="#121212" cx="93.487" cy="143.1" r="4.252"/>
	<circle fill="#121212" cx="126.927" cy="143.1" r="4.252"/>
	<g opacity="0.2">
		<path fill="#000100" d="M109.899,186.108h-0.884c-7.701,0-11.393-3.288-11.546-3.428c-0.612-0.559-0.655-1.508-0.097-2.119
			c0.558-0.612,1.508-0.654,2.119-0.098c0.021,0.019,3.073,2.645,9.523,2.645h0.884c6.446,0,9.496-2.618,9.525-2.645
			c0.61-0.556,1.561-0.515,2.119,0.098c0.558,0.612,0.515,1.561-0.098,2.119C121.292,182.82,117.6,186.108,109.899,186.108z"/>
	</g>
</g>
<g id="snit_-_1" display="none">
	<g id="snit_1_2_" display="inline">
		<path fill="#006B88" d="M170.671,126.805c0,0,6.763-17.696,2.916-37.597c-3.844-19.9-7.437-20.293-9.625-23.139
			c-2.19-2.844-6.784,2.732-2.526,12.346C165.693,88.028,172.104,106.89,170.671,126.805z"/>
		<path fill="#006B88" d="M44.269,126.805c-3.035-7.409-11.32-28.153-7.937-41.308c3.383-13.155,3.251-20.236,3.569-26.814
			c0.32-6.576,6.897-17.708,7.403-10.119c0.506,7.59-1.012,16.697,5.565,8.096c6.577-8.601,3.035-12.242,9.107-16.746
			c6.071-4.504,2.023-15.129,21.754-11.587c19.731,3.542,20.235,8.095,30.356,3.036c10.119-5.06,3.543-11.636,16.697-6.578
			c13.154,5.061,8.6,10.12,15.684,12.649c7.082,2.529,8.602,15.179,8.602,15.179l-3.036,4.047c0,0-25.298,32.887-49.582,41.488
			c-24.285,8.6-48.064,22.479-51.1,33.249C48.317,142.163,44.269,126.805,44.269,126.805z"/>
		<path fill="#006B88" d="M155.071,52.612c0,0,10.09,9.75,13.444,19.311c3.355,9.559-5.842,10.939-8.006,4.051
			c-2.164-6.891-16.785-9.525-16.785-9.525L155.071,52.612z"/>
	</g>
</g>
<g id="snit_-_2" display="none">
	<g id="snit_2_3_" display="inline">
		<path fill="#1EC3F8" d="M185.631,139.939c0.577-6.864,5.734-8.896,4.952-17.282c-1.651-17.712-6.831-13.989-6.929-24.087
			c-0.096-10.098,1.938-21.382-13.067-42.507c-6.067-8.541-14.18-14.586-22.815-18.761c-2.479-3.276-10.017-7.186-31.435-8.059
			c-1.845-0.122-3.612-0.18-5.278-0.18h-8.009c-17,0-38.953,5.207-53.96,26.332C34.084,76.52,36.76,88.161,36.663,98.258
			c-0.097,10.097-13.111,15.035-9.896,32.531c1.471,8.006,5.91,10.25,6.391,17.122c0.348,4.973-4.541,11.81,2.222,20.401
			c4.402,5.593-3.399,18.267-3.399,18.267s4.683-0.78,9.424-4.376c0,0,7.417,2.455,5.865,13.568
			c-1.586,11.357-7.453,16.426-7.453,16.426s20.334-0.247,26.592-4.771c0,0,1.489,2.423-0.328,4.923c0,0,5.25-2.062,12.506-9.412
			c-0.211-0.141-0.419-0.274-0.631-0.416c-11.361-7.574-19.917-19.957-22.416-35.951c-0.505,0.125-1.019,0.229-1.546,0.295
			c-7.254,0.9-10.883-4.248-11.786-11.496l-4.639-13.334c-0.826-6.639,3.423-12.725,9.707-14.4
			c-0.845-5.798-2.409-10.833-3.142-18.138c0.089-0.081,0.17-0.156,0.262-0.238c2.135-0.523,33.7-8.311,61.925-18.314
			c20.845-7.388,31.523-23.806,36.383-35.649l0,0c23.137,14.241,20.398,33.711,20.715,45.384c0.206,7.634,5.078,16.326,8.425,21.426
			c-0.366,1.792-0.712,3.563-0.985,5.41c6.519,1.512,10.972,7.731,10.127,14.52l-4.639,13.334
			c-0.902,7.248-4.533,12.396-11.787,11.496c-0.689-0.086-1.357-0.24-2.008-0.426c-2.599,15.125-10.972,23.632-21.808,33.013
			c-1.108,0.96-2.158,1.824-3.268,2.732c6.203,6.352,21.224,5.775,21.224,5.775l-0.139-4.673c6.101,5.607,19.731,4.906,19.731,4.906
			s-6.755-6.401-7.453-12.422c-0.791-6.822,4.065-12.778,9.06-19.828c0.639,1.164,1.723,2.918,2.809,3.68
			c-1.197-4.391,0.871-9.01,1.812-10.79c0.141-0.247,0.28-0.496,0.418-0.746c0.004-0.005,0.015-0.022,0.015-0.022l-0.004,0.004
			c1.415-2.58,2.647-5.34,3.514-8.349C191.382,149.581,185.055,146.803,185.631,139.939z"/>
	</g>
</g>
<g id="snit_-_3" display="none">
	<path display="inline" fill="#965096" d="M186.924,108.325c-1.363-17.101-9.128-39.749-29.986-51.403
		c-0.353-0.197-0.689-0.38-1.026-0.563c0.006-0.144,0.024-0.297,0.024-0.438c0,0-9.095-16.792-47.26-16.792
		c-26.029,0-44.749,11.903-55.339,25.911c-3.98,4.33-9.974,12.221-14.123,23.911c-3.598,11.153-3.498,25.28-3.666,32.708
		c0.621,39.303,21.208,67.253,21.208,67.253c0.001,0.001,0.001,0.001,0.003,0.001c-5.082-12.637-3.766-32.771-2.893-58.346
		c0.065-1.915,0.173-3.759,0.299-5.568c3.798,9.662,7.292,17.906,7.863,20.76c0,0,0.339-29.189,44.285-40.503
		c18.047-4.646,35.446-21.075,44.043-34.806c0.866,1.206,1.441,1.955,1.441,1.955s18.782,3.995,18.782,45.333
		c0,30.838-5.721,59.538-11.859,74.592C158.721,192.33,186.759,164.173,186.924,108.325z"/>
</g>
<g id="snit_-_4" display="none">
	<path display="inline" fill="#0FB3E5" d="M193.835,125.42c-1.638-17.563-10.563-16.036-10.563-29.287
		c0-10.015,2.217-12.221-12.664-33.171c-6.036-8.494-13.405-13.264-21.159-15.937c-7.05-4.629-19.603-8.692-41.963-8.692
		c-43.561,0-58.976,24.966-63.99,47.667c-6.028,4.569-10.893,14.106-9.496,19.5c2.512,9.695-9.214,14.22-6.028,31.572
		c1.458,7.938,5.326,10.225,6.34,16.981c0.539,3.588-1.583,6.149-2.034,8.599c-0.948,10.697,2.438,16.521,7.79,19.845
		c0.897,0.558,1.562,1.443,2.44,2.069c-0.153,2.932,0.224,6.401,2.036,9.529c2.214,3.822,6.086,6.312,11.479,7.45
		c1.555,2.008,3.889,3.809,7.257,4.975c4.574,1.583,10.621-0.46,13.876-0.46c4.762,0,13.499,6.221,15.062,5.295
		c-5.037-2.717-10.425-6.239-16.199-10.088c-11.362-7.574-17.98-18.703-20.478-34.697c-0.505,0.125-1.019,0.229-1.546,0.295
		c-7.254,0.9-10.883-4.248-11.786-11.496l-4.639-13.334c-0.826-6.639,3.423-12.725,9.707-14.4
		c-0.385-2.638,2.764-11.03,12.989-16.359c5.196-2.261,11.552-2.914,17.04-3.231c3.439-0.199,6.995-0.404,10.71-1.096
		c3.286-0.613,6.318-0.907,9.251-1.191c6.864-0.665,12.792-1.239,18.503-5.562c4.845-3.668,5.759-8.861,6.493-13.034
		c0.497-2.822,4.605-7.555,6.072-8.597c3.619-2.074,7.094-4.112,10.315-6.034c27.032,12.066,28.954,29.233,29.259,40.432
		c0.334,12.511,2.949,14.554,2.949,14.554c6.518,1.512,10.971,7.733,10.127,14.519l-4.639,13.334
		c-0.902,7.248-4.533,12.396-11.787,11.496c-0.69-0.087-1.358-0.24-2.008-0.427c-2.598,15.125-9.615,22.468-20.451,31.849
		c-4.798,4.155-9.621,8.016-14.312,11.132c2.438-0.414,5.268-0.96,8.08-1.53c0.59,0.271,4.896,2.163,10.433,2.163
		c5.802,0,12.955-2.08,18.601-10.269c4.588-0.991,8.176-3.22,10.68-6.647c4.5-6.162,4.089-14.347,3.729-17.447
		c0.654-0.811,1.333-1.707,2.037-2.719c1.839-2.642,2.683-5.552,2.989-8.512c2.435-2.152,4.148-4.699,5.073-7.646
		c2.429-7.741-1.298-15.576-2.474-17.757C190.163,134.938,194.329,130.733,193.835,125.42z M54.22,192.64
		c0.047,1.052-0.02,1.925-0.911,2.222c-2.591-1.031-3.35-1.34-4.523-3.386c-1.75-3.05-2.09-9.587-2.221-11.298
		c0,0,1.451,3.212,2.59,4.972C51.599,188.927,54.084,189.581,54.22,192.64z M89.235,80.893c6.904-2.507,17.098-3.008,17.098-3.008
		c-2.172,0.167-15.041,3.676-22.393,7.019s-10.862,5.682-10.862,5.682S82.331,83.399,89.235,80.893z M118.324,86.468
		c-0.677,3.844-1.376,7.819-4.968,10.538c-4.809,3.64-9.957,4.138-16.475,4.77c-3.019,0.293-6.14,0.595-9.598,1.24
		c-3.466,0.645-6.894,0.843-10.209,1.035c-0.884,0.051-1.762,0.102-2.634,0.16c4.134-1.872,18.644-9.668,23.298-11.377
		c9.07-3.333,10.232-3.001,21.077-8.934C118.628,84.745,118.475,85.61,118.324,86.468z M144.561,206.048
		c3.316-0.727,5.62-1.256,5.62-1.256l8.29-5.052c0.152,0.061,0.643,0.1,1.337,0.088
		C154.849,205.444,149.014,206.412,144.561,206.048z M172.352,190.775c-0.621,0.85-1.346,1.594-2.152,2.253
		c-0.004-0.024-0.003-0.046-0.007-0.07c-1.229-8.131,0.981-8.964,5.314-13.132C175.453,183.061,174.834,187.377,172.352,190.775z
		 M185.588,155.635c-0.3,0.949-0.715,1.849-1.235,2.7c-0.347-4.577-1.246-8.916-0.972-12.188c0.092-1.093,0.446-2.154,0.969-3.201
		C185.563,145.833,187.091,150.875,185.588,155.635z"/>
	<path display="inline" fill="#FFFFFF" d="M60.858,196.076c0,0,1.937,5.186,6.6,6.324C67.236,199.301,60.858,196.076,60.858,196.076
		z"/>
</g>
<g id="snit_-_5" display="none">
	<path display="inline" fill="#ECAD5F" d="M181.089,90.167c-9.729-25.296-34.849-42.703-55.692-47.199s-33.468,0.269-46.088,4.686
		C46.619,59.095,39.755,89.395,37.467,98.278c-6.555,25.451-1.184,53.188,1.055,68.558c0.655,4.496-0.023,16.255-0.023,16.255
		l9.534,2.799l1.015-3.41l0.694,3.266l2.623-0.058l1.042-2.687l1.658,3.107l7.605,1.322c-2.44-4.534-5.336-11.642-6.521-17.501
		c-3.879-19.849-2.165-48.202-2.165-48.202s4.902-0.737,10.015-1.478l2.365-14.45l0.594,13.997c9.25-1.298,20.866-2.707,32.636-3.29
		h-0.023l1.523-7.406l1.12,7.295c1.779-0.063,3.509-0.101,5.158-0.101c0,0,1.397-11.845,1.748-12.28
		c0.35,0.435,2.129,11.947,2.129,11.947c3.056,0,11.153,0.544,11.153,0.544l1.523-7.406l1.089,7.539
		c0.352,0.016,9.355,0.937,13.679,1.418l0.873-13.776l1.933,14.467c12.727,1.517,23.599,2.978,23.599,2.978l-2.546,44.709
		c-1.339,7.797-5.756,15.986-9.364,20.993c0,0,5.559-1.735,8.82-2.488l1.455-3.839l0.287,3.975c1.125,0.055,6.373-1.045,6.813-1.045
		l0.736-3.391l0.736,3.41c0.412-0.007,7.704-2.729,7.704-2.729c0.061-0.598-0.374-9.533,0.169-14.224
		C185.162,121.762,187.146,105.917,181.089,90.167z"/>
	<path display="inline" fill="#78B47A" d="M122.516,115.963l0.063-0.311C122.549,115.744,122.526,115.846,122.516,115.963z"/>
</g>
<g id="snit_-_6" display="none">
	<path display="inline" fill="#78B47A" d="M185.269,124.143c1.017,0.678,2.277,1.45,3.581,2.078
		c-2.086-1.854-3.299-6.194-4.063-10.471c-0.035-0.356-0.109-0.957-0.11-0.963c-0.324-2.801-0.705-5.709-1.182-8.692
		c-0.006-0.039-0.012-0.091-0.018-0.128l-0.001,0.021c-1.936-12.056-5.513-25.381-13.904-38.331
		C156.8,47.948,138.55,47.551,138.55,47.551C134.301,41.236,125.375,38.5,110,38.5c-19.942,0-37.833,5.333-53.13,20.034
		c0,0,6.979-8.024,0-0.01S46.294,69.85,40.434,87.581c-2.89,8.744-8.516,26.39-9.468,40.039l0-0.006c0,0.005,0,0.012,0,0.017
		c-0.143,2.044-0.182,4-0.09,5.821c0.162,3.181,0.416,6.166,0.746,8.987c0.225,7.81-0.005,16.458-2.169,20.588
		c4.012-1.14,4.882-4.396,4.882-4.396l-0.004-0.035c3.984,19.012,16.662,38.909,26.118,45.363
		c10.908,7.444,7.368,20.305,7.368,20.305s4.244-4.099,5.56-8.837c0.135,0.439,0.279,0.867,0.394,1.334
		c2.258,9.137-3.126,18.108-3.126,18.108s15.345-3.273,19.616-8.119c6.424-7.287,8.38-12.327,8.38-12.327
		c-5.983-2.366-16.771-9.141-22.62-13.154c-12.648-8.68-18.408-20.535-20.478-34.697c0,0-0.89,0.321-2.234,0.347
		c-6.79,0.493-10.225-4.536-11.098-11.548l-4.639-13.334c-0.826-6.639,3.423-12.725,9.707-14.4
		c-0.13-0.893-0.745-31.831,34.254-34.693c1.696-0.139,3.292-0.237,4.838-0.316c-2.138,3.241-3.044,7.346-3.619,11.375
		c2-5.499,14.227-9.769,14.23-9.771c-1.87,3.514-2.48,7.739-2.48,12.271c5.449-9.231,21.812-11.938,21.878-11.949
		c-2.291,4.932-4.311,10.793-5.283,15.292c4.989-8.2,13.831-15.458,20.732-20.306c2.895-1.504,6.112-3.534,9.868-6.254
		c8.297,6.423,30.812,25.371,29.703,41.072c0,0.001,0,0.002,0,0.003c-0.197,1.04-0.381,2.086-0.539,3.157
		c1.441,0.334,11.935,9.605,9.756,15.584c-2.473,6.786-3.864,9.96-4.268,12.269s-1.096,5.138-1.856,6.4s-2.528,3.22-2.528,3.22
		c-1.85,1.528-4.29,2.262-7.402,1.876c-0.69-0.087-1.358-0.24-2.008-0.427c-2.598,15.125-9.517,22.583-20.451,31.849
		c-3.799,3.219-17.915,13.394-17.915,13.394s0.916,9.325,10.41,16.894C140.877,233.579,148,238,148,238s-1.683-14.683,0.804-25.077
		c-0.903,5.794,7.478,11.364,7.478,11.364s-2.57-2.886-2.284-11.631s5.854-10.817,13.279-22.098
		c5.56-8.446,9.226-15.769,11.323-20.325c0.051-0.079,0.1-0.153,0.15-0.233c1.514-2.385,6.061-16.783,6.528-25.609
		C185.558,139.113,185.269,124.275,185.269,124.143z"/>
</g>
<g id="Laag_22" display="none">
	<g display="inline">
		<path fill="#ECAD5F" d="M76.019,201.268c-11.362-7.574-17.98-18.703-20.478-34.697c-0.505,0.125-1.019,0.229-1.546,0.295
			c-7.254,0.9-10.883-4.248-11.786-11.496l-4.639-13.334c-0.02-0.157-0.022-0.313-0.037-0.47l-3.617,5.786
			c1.016,5.839,5.022,22.663,12.143,32.722S76.019,201.268,76.019,201.268z"/>
	</g>
	<path display="inline" fill="#78B47A" d="M190,100.957c-2.104-16.306-14.955-36.334-20-43.457
		c-10.842-15.307-25.813-20.106-36.51-29.667c-10.815-9.667-20.074-10-24.491-10c-4.416,0-15.512,0.667-24.49,10
		C74.564,38.173,58.842,42.193,48,57.5c-5.045,7.123-17.896,27.151-20,43.457c-2.417,18.735,5.916,46.395,5.916,46.395
		s18.971-30.1,34.056-40.336s41.486-8.701,41.486-8.701s25.486-1.536,40.572,8.701c15.084,10.236,34.055,40.336,34.055,40.336
		S192.416,119.692,190,100.957z"/>
	<g display="inline">
		<path fill="#ECAD5F" d="M138.584,201.268c11.469-9.434,21.479-19.111,23.969-34.83c0.505,0.125,1.038,0.295,1.564,0.361
			c7.254,0.9,10.771-4.182,11.674-11.43l4.639-13.334c0.02-0.157,0.023-0.313,0.037-0.47l3.617,5.786
			c-1.016,5.839-5.021,22.663-12.143,32.722S138.584,201.268,138.584,201.268z"/>
	</g>
</g>
<g id="Glasses_-_1" display="none">
	<g id="glasses_1_2_" display="inline">
		<path fill="#F5F5F5" d="M159.261,133.723c-1.028-0.503-2.012-0.925-2.92-1.258l-0.006-0.09l-6.433-1.979l-0.182-0.048
			l-0.021-0.003c-3.16-0.616-6.521-0.931-9.988-0.931c-5.448,0-10.994,0.784-16.032,2.269c-3.119,0.919-5.74,2.089-7.789,3.476
			c-1.38,0.765-2.787,1.201-4.078,1.265c-0.062,0.004-0.119,0.005-0.183,0.005l-0.127-0.001h-0.026h-0.033l-0.129,0.001
			c-0.062,0-0.121-0.001-0.185-0.005c-1.289-0.062-2.697-0.5-4.076-1.265c-2.047-1.387-4.67-2.557-7.789-3.476
			c-5.037-1.482-10.582-2.269-16.031-2.269c-3.467,0-6.828,0.313-9.988,0.931l-6.634,2.03l-0.006,0.09
			c-0.91,0.333-1.892,0.755-2.921,1.257l-0.247,0.12l0.028,0.273c0.042,0.404,0.087,0.871,0.134,1.381
			c0.317,3.336,0.753,7.904,1.629,9.359c0.625,1.037,1.538,1.215,2.205,1.342c0.183,0.037,0.357,0.069,0.483,0.117
			c0.005,0.028,0.01,0.06,0.016,0.09c0.866,4.875,2.838,8.123,6.206,10.217c2.855,1.775,6.652,2.738,12.699,3.212
			c0.639,0.051,1.285,0.075,1.92,0.075c9.527,0,16.361-5.754,17.9-8.834c0.484-0.965,1.049-2.936,1.676-5.852
			c0.076-0.158,0.133-0.311,0.176-0.467c0.406-1.5,2.098-2.501,2.963-2.926c0.867,0.425,2.56,1.425,2.967,2.927
			c0.041,0.155,0.099,0.308,0.172,0.466c0.632,2.916,1.193,4.887,1.677,5.852c1.09,2.178,3.805,4.318,5.981,5.599
			c2.517,1.476,6.623,3.235,11.918,3.235h0.002c0.636,0,1.281-0.024,1.92-0.075c6.048-0.474,9.845-1.437,12.697-3.212
			c3.367-2.094,5.34-5.342,6.207-10.217c0.006-0.03,0.01-0.062,0.016-0.09c0.125-0.048,0.302-0.08,0.484-0.117
			c0.666-0.127,1.58-0.305,2.203-1.342c0.877-1.455,1.312-6.023,1.627-9.359c0.049-0.51,0.096-0.977,0.137-1.381l0.027-0.273
			L159.261,133.723z M118.741,145.47c-0.093-1.655-0.269-5.61,0.051-7.353c0.006-0.03,0.013-0.061,0.017-0.088
			c1.639-0.991,3.653-1.842,5.996-2.531c4.678-1.378,9.831-2.105,14.903-2.105c3.174,0,6.244,0.281,9.129,0.836l3.584,1.104
			c-0.078,1.625-0.356,4.934-1.323,10.375c-0.654,3.667-1.886,5.87-4.119,7.366c-2.244,1.503-5.691,2.363-11.181,2.793
			c-0.534,0.044-1.075,0.064-1.61,0.064c-4.515,0-7.97-1.523-10.072-2.804c-2.463-1.497-3.926-3.146-4.27-3.833
			C119.648,148.906,119.302,147.926,118.741,145.47z M98.825,153.128c-2.107,1.278-5.562,2.804-10.066,2.804
			c-0.531,0-1.074-0.021-1.611-0.064c-5.488-0.43-8.936-1.291-11.18-2.793c-2.234-1.496-3.469-3.699-4.119-7.366
			c-0.969-5.443-1.246-8.75-1.324-10.375l3.584-1.104c2.885-0.555,5.955-0.836,9.127-0.836c5.072,0,10.227,0.729,14.904,2.105
			c2.34,0.688,4.357,1.54,5.998,2.531c0.004,0.027,0.01,0.058,0.014,0.088c0.316,1.734,0.143,5.693,0.051,7.354
			c-0.559,2.458-0.908,3.436-1.102,3.824C102.757,149.98,101.292,151.628,98.825,153.128z"/>
	</g>
</g>
</svg>
